<svg xmlns="http://www.w3.org/2000/svg" xmlns:xlink="http://www.w3.org/1999/xlink" width="108" height="108" viewBox="0 0 108 108">
  <defs>
    <clipPath id="clip-path">
      <rect id="Rectángulo_402994" data-name="Rectángulo 402994" width="68.604" height="74" fill="none"/>
    </clipPath>
  </defs>
  <g id="Grupo_1106651" data-name="Grupo 1106651" transform="translate(-326.051 -1403)">
    <circle id="Elipse_11684" data-name="Elipse 11684" cx="54" cy="54" r="54" transform="translate(326.051 1403)" fill="#f7f0d8"/>
    <g id="Grupo_1106649" data-name="Grupo 1106649" transform="translate(345.749 1415.644)">
      <g id="Grupo_1106648" data-name="Grupo 1106648" transform="translate(0 0)" clip-path="url(#clip-path)">
        <path id="Trazado_895740" data-name="Trazado 895740" d="M66.837,62.514a6.889,6.889,0,0,0-5.451-11.105,6.853,6.853,0,0,0-1.3.122,7.48,7.48,0,0,0-7.367-6.253l-.2.014V36.783a5.63,5.63,0,0,0-5.628-5.628H45.1l.612-17.263,4.323-3.561A3.838,3.838,0,0,0,51.45,7.354V3.031A3.017,3.017,0,0,0,48.418,0H27.893a3.022,3.022,0,0,0-3.018,3.031V7.354a3.869,3.869,0,0,0,1.4,2.977l4.35,3.561.6,17.263H29.442a5.639,5.639,0,0,0-5.628,5.628v6.905a7.219,7.219,0,0,0-5.791,6.144,5.939,5.939,0,0,0-2.542.8A6.375,6.375,0,0,0,4.173,54.685a5.633,5.633,0,0,0,.19,1.522A5.507,5.507,0,0,0,0,61.576a5.444,5.444,0,0,0,1.808,4.037,5.377,5.377,0,0,0-.87,2.922A5.485,5.485,0,0,0,6.416,74h54.97l.122-.014.2.014a6.882,6.882,0,0,0,5.125-11.486M27.974,8.278a1.2,1.2,0,0,1-.435-.924V3.031a.363.363,0,0,1,.353-.367H48.418a.365.365,0,0,1,.367.367V7.354a1.2,1.2,0,0,1-.435.924l-4.431,3.629H32.406ZM33.9,31.155l-.6-16.583h9.719l-.584,16.583Zm6.5,2.664v3.4a2.243,2.243,0,1,1-4.486,0v-3.4ZM26.479,36.783a2.97,2.97,0,0,1,2.963-2.963h3.806v3.4a4.914,4.914,0,0,0,9.828,0v-3.4h3.806a2.97,2.97,0,0,1,2.963,2.963v9.094a6.776,6.776,0,0,0-1.7.965,6.988,6.988,0,0,0-5.492-2.732,6.9,6.9,0,0,0-6.307,4.159,6.378,6.378,0,0,0-4.513-.136,7.135,7.135,0,0,0-5.356-4.418ZM61.712,71.336l-.245-.014h-.082l-.2.014H6.416a2.778,2.778,0,0,1-1.753-4.961,1.342,1.342,0,0,0,.462-1.21,1.292,1.292,0,0,0-.788-1.033,2.8,2.8,0,0,1,1.142-5.369,2.923,2.923,0,0,1,.625.082A1.316,1.316,0,0,0,7.49,58.3a1.331,1.331,0,0,0,0-1.509,3.714,3.714,0,1,1,6.443-3.629,1.324,1.324,0,0,0,2.188.34,3.233,3.233,0,0,1,2.936-.952,1.354,1.354,0,0,0,1.155-.3,1.383,1.383,0,0,0,.449-1.115,1.924,1.924,0,0,1-.027-.394,4.508,4.508,0,0,1,8.985-.53,1.364,1.364,0,0,0,2.121.938,3.754,3.754,0,0,1,4.554.163,1.321,1.321,0,0,0,1.332.231,1.343,1.343,0,0,0,.843-1.087,4.225,4.225,0,0,1,8.142-.952,1.291,1.291,0,0,0,1.047.843,1.344,1.344,0,0,0,1.251-.517,4.792,4.792,0,0,1,8.6,2.909c0,.163-.014.326-.027.5a1.332,1.332,0,0,0,.571,1.237,1.413,1.413,0,0,0,1.373.068,4.085,4.085,0,0,1,1.957-.476,4.229,4.229,0,0,1,2.691,7.49,1.315,1.315,0,0,0-.489,1.06,1.285,1.285,0,0,0,.571,1.033,4.271,4.271,0,0,1,1.781,3.453,4.223,4.223,0,0,1-4.227,4.227" transform="translate(0 0.004)"/>
        <path id="Trazado_895741" data-name="Trazado 895741" d="M7.128,2.488v3.4a2.243,2.243,0,1,1-4.486,0v-3.4Z" transform="translate(33.271 31.336)" fill="#7bb0ad"/>
        <path id="Trazado_895742" data-name="Trazado 895742" d="M12.169,1.072l-.584,16.583H3.048L2.45,1.072Z" transform="translate(30.848 13.505)" fill="#7bb0ad"/>
        <path id="Trazado_895743" data-name="Trazado 895743" d="M22.917.2H2.392a.374.374,0,0,0-.367.367V4.886a1.237,1.237,0,0,0,.449.924L6.9,9.439H18.418L22.836,5.81a1.192,1.192,0,0,0,.449-.924V.563A.365.365,0,0,0,22.917.2M18.078,4.587H7.231a1.332,1.332,0,1,1,0-2.664H18.078a1.332,1.332,0,0,1,0,2.664" transform="translate(25.501 2.472)" fill="#bcdcda"/>
        <path id="Trazado_895744" data-name="Trazado 895744" d="M25.314,5.451v9.094a6.858,6.858,0,0,0-1.713.965,6.886,6.886,0,0,0-11.8,1.427A6.378,6.378,0,0,0,7.29,16.8a7.115,7.115,0,0,0-5.342-4.418V5.451A2.97,2.97,0,0,1,4.911,2.488H8.717v3.4a4.914,4.914,0,0,0,9.828,0v-3.4h3.806a2.97,2.97,0,0,1,2.963,2.963" transform="translate(24.531 31.336)" fill="#bcdcda"/>
        <path id="Trazado_895745" data-name="Trazado 895745" d="M61.691,20.827a1.328,1.328,0,0,1-.557-1.033,1.349,1.349,0,0,1,.476-1.074,4.229,4.229,0,0,0-2.691-7.49,4.1,4.1,0,0,0-1.957.489A1.339,1.339,0,0,1,55.017,10.4c.014-.177.027-.326.027-.5a4.785,4.785,0,0,0-8.6-2.9,1.331,1.331,0,0,1-1.251.517,1.382,1.382,0,0,1-1.047-.843,4.216,4.216,0,0,0-8.129.952,1.384,1.384,0,0,1-.856,1.087,1.357,1.357,0,0,1-1.332-.245,3.754,3.754,0,0,0-4.554-.15,1.317,1.317,0,0,1-1.319.122,1.376,1.376,0,0,1-.8-1.06A4.466,4.466,0,0,0,22.692,3.4,4.51,4.51,0,0,0,18.18,7.914a3.82,3.82,0,0,0,.014.394,1.3,1.3,0,0,1-1.6,1.4,3.206,3.206,0,0,0-2.922.965,1.329,1.329,0,0,1-2.2-.353,3.711,3.711,0,0,0-7.1,1.522,3.756,3.756,0,0,0,.652,2.121,1.285,1.285,0,0,1,0,1.509,1.307,1.307,0,0,1-1.386.544,2.138,2.138,0,0,0-.625-.082,2.792,2.792,0,0,0-1.128,5.356,1.338,1.338,0,0,1,.313,2.243,2.795,2.795,0,0,0,1.753,4.975H58.714l.2-.014H59l.245.014a4.225,4.225,0,0,0,2.447-7.68M20.151,23.7a4.927,4.927,0,1,1,4.921-4.934A4.934,4.934,0,0,1,20.151,23.7m21.124-1.93a5.811,5.811,0,1,1,5.831-5.818,5.816,5.816,0,0,1-5.831,5.818" transform="translate(2.468 42.833)" fill="#ead9b0"/>
        <path id="Trazado_895746" data-name="Trazado 895746" d="M15.821,1.655a1.334,1.334,0,0,1-1.332,1.332H3.642a1.332,1.332,0,1,1,0-2.664H14.489a1.334,1.334,0,0,1,1.332,1.332" transform="translate(29.09 4.072)"/>
        <path id="Trazado_895747" data-name="Trazado 895747" d="M8.608,3.9a5.811,5.811,0,1,0,5.831,5.8A5.813,5.813,0,0,0,8.608,3.9m0,8.958A3.147,3.147,0,1,1,11.775,9.7a3.156,3.156,0,0,1-3.167,3.154" transform="translate(35.134 49.079)"/>
        <path id="Trazado_895748" data-name="Trazado 895748" d="M9.307,7.246A3.179,3.179,0,0,1,6.126,10.4a3.154,3.154,0,0,1,0-6.307A3.179,3.179,0,0,1,9.307,7.246" transform="translate(37.603 51.535)" fill="#daad4e"/>
        <path id="Trazado_895749" data-name="Trazado 895749" d="M6.235,4.169A4.927,4.927,0,1,0,11.156,9.09,4.922,4.922,0,0,0,6.235,4.169m0,7.191A2.263,2.263,0,1,1,8.492,9.09a2.274,2.274,0,0,1-2.256,2.27" transform="translate(16.383 52.504)"/>
        <path id="Trazado_895750" data-name="Trazado 895750" d="M6.023,6.621A2.263,2.263,0,1,1,3.767,4.365,2.271,2.271,0,0,1,6.023,6.621" transform="translate(18.852 54.973)" fill="#daad4e"/>
      </g>
    </g>
  </g>
</svg>
