<svg xmlns="http://www.w3.org/2000/svg" xmlns:xlink="http://www.w3.org/1999/xlink" width="108" height="108" viewBox="0 0 108 108">
  <defs>
    <clipPath id="clip-path">
      <rect id="Rectángulo_402993" data-name="Rectángulo 402993" width="76.323" height="64.313" fill="none"/>
    </clipPath>
  </defs>
  <g id="Grupo_1106650" data-name="Grupo 1106650" transform="translate(-746.051 -1403)">
    <circle id="Elipse_11685" data-name="Elipse 11685" cx="54" cy="54" r="54" transform="translate(746.051 1403)" fill="#f7f0d8"/>
    <g id="Grupo_1106647" data-name="Grupo 1106647" transform="translate(762.677 1421.687)">
      <g id="Grupo_1106646" data-name="Grupo 1106646" transform="translate(0 0)" clip-path="url(#clip-path)">
        <path id="Trazado_895720" data-name="Trazado 895720" d="M25.146,23.691a7.058,7.058,0,0,0,3.93-6.318V11.652a1.413,1.413,0,0,0-2.053-1.266l-4.076,2.038V7.911a5.866,5.866,0,0,0-2.62-4.906L16.179.24a1.454,1.454,0,0,0-1.6,0L10.443,3.006a5.866,5.866,0,0,0-2.62,4.906v4.513L3.747,10.386a1.417,1.417,0,0,0-1.383.058,1.392,1.392,0,0,0-.684,1.208v5.721a7.046,7.046,0,0,0,3.945,6.318l8.341,4.061v3.406L3.747,26.049a1.381,1.381,0,0,0-1.383.058A1.4,1.4,0,0,0,1.68,27.33v5.721a7.04,7.04,0,0,0,3.945,6.3l8.341,4.061v3.421L3.747,41.713a1.382,1.382,0,0,0-1.383.073,1.374,1.374,0,0,0-.684,1.208v5.735a7.057,7.057,0,0,0,3.945,6.3l8.341,4.047v3.829a1.427,1.427,0,0,0,2.853,0V59.079l8.327-4.061a7.031,7.031,0,0,0,3.93-6.289V42.994a1.427,1.427,0,0,0-2.053-1.281l-10.2,5.124V43.416l8.327-4.061a7.053,7.053,0,0,0,3.93-6.3V27.33a1.416,1.416,0,0,0-.67-1.223,1.381,1.381,0,0,0-1.383-.058l-10.2,5.11V27.753ZM13.966,55.906l-3.29-1.587V52.514a1.427,1.427,0,0,0-2.853,0v.408l-.946-.451a4.214,4.214,0,0,1-2.344-3.741V45.308L13.3,49.676a1.26,1.26,0,0,1,.67,1.077Zm0-15.649-3.29-1.616V36.865a1.427,1.427,0,0,0-2.853,0v.393l-.946-.466a4.181,4.181,0,0,1-2.344-3.741V29.63l8.763,4.4a1.242,1.242,0,0,1,.67,1.077Zm12.257-26.29v3.406a4.238,4.238,0,0,1-2.329,3.77l-.946.451v-.408a1.427,1.427,0,1,0-2.853,0v1.791l-3.275,1.6V19.426a1.2,1.2,0,0,1,.655-1.077ZM13.966,24.579l-3.29-1.6V21.187a1.427,1.427,0,1,0-2.853,0v.408l-.946-.451a4.224,4.224,0,0,1-2.344-3.77V13.967L13.3,18.349a1.242,1.242,0,0,1,.67,1.077Zm3.508,25.1,8.749-4.367v3.421a4.227,4.227,0,0,1-2.329,3.741l-.946.451v-.408a1.427,1.427,0,1,0-2.853,0v1.805l-3.275,1.587V50.753a1.217,1.217,0,0,1,.655-1.077m0-15.649,8.749-4.4v3.421a4.194,4.194,0,0,1-2.329,3.741l-.946.451v-.378a1.427,1.427,0,0,0-2.853,0v1.776l-3.275,1.616V35.1a1.2,1.2,0,0,1,.655-1.077M16.193,15.8a3.183,3.183,0,0,0-.8.568,3.992,3.992,0,0,0-.83-.568l-3.887-1.951V7.911A3.016,3.016,0,0,1,12.03,5.378l3.363-2.227,3.348,2.227a3.052,3.052,0,0,1,1.354,2.533v5.939Z" transform="translate(22.776 -0.006)"/>
        <path id="Trazado_895721" data-name="Trazado 895721" d="M11.715,4.976v5.939l-3.9,1.951a3.468,3.468,0,0,0-.8.568,3.554,3.554,0,0,0-.815-.568L2.3,10.915V4.976A3.03,3.03,0,0,1,3.665,2.443L7.013.216l3.363,2.227a3.074,3.074,0,0,1,1.339,2.533" transform="translate(31.141 2.929)" fill="#daad4e"/>
        <path id="Trazado_895722" data-name="Trazado 895722" d="M12.137,3.112V6.533a4.194,4.194,0,0,1-2.329,3.741l-.961.451v-.393a1.427,1.427,0,0,0-2.853,0v1.791l-3.275,1.6V8.571a1.245,1.245,0,0,1,.655-1.077Z" transform="translate(36.862 42.191)" fill="#ead9b0"/>
        <path id="Trazado_895723" data-name="Trazado 895723" d="M11.309,7.508v5.153l-3.29-1.616V9.27a1.427,1.427,0,0,0-2.853,0v.408L4.22,9.212A4.2,4.2,0,0,1,1.876,5.456V2.035l8.763,4.4a1.214,1.214,0,0,1,.67,1.077" transform="translate(25.433 27.59)" fill="#ead9b0"/>
        <path id="Trazado_895724" data-name="Trazado 895724" d="M12.137.959V4.365A4.216,4.216,0,0,1,9.808,8.121l-.961.451V8.179a1.427,1.427,0,1,0-2.853,0V9.97l-3.275,1.6V6.418a1.211,1.211,0,0,1,.655-1.077Z" transform="translate(36.862 13.002)" fill="#ead9b0"/>
        <path id="Trazado_895725" data-name="Trazado 895725" d="M11.309,6.418v5.153l-3.29-1.6V8.179a1.427,1.427,0,1,0-2.853,0v.408L4.22,8.136a4.224,4.224,0,0,1-2.344-3.77V.959l8.763,4.382a1.214,1.214,0,0,1,.67,1.077" transform="translate(25.433 13.002)" fill="#ead9b0"/>
        <path id="Trazado_895726" data-name="Trazado 895726" d="M12.137,2.035V5.456A4.177,4.177,0,0,1,9.808,9.2l-.961.451V9.27a1.427,1.427,0,0,0-2.853,0v1.776L2.719,12.662V7.508a1.228,1.228,0,0,1,.655-1.077Z" transform="translate(36.862 27.59)" fill="#ead9b0"/>
        <path id="Trazado_895727" data-name="Trazado 895727" d="M11.309,8.57v5.153l-3.29-1.6V10.331a1.427,1.427,0,0,0-2.853,0v.408l-.946-.451A4.214,4.214,0,0,1,1.876,6.546V3.111l8.763,4.382a1.231,1.231,0,0,1,.67,1.077" transform="translate(25.433 42.177)" fill="#ead9b0"/>
        <path id="Trazado_895728" data-name="Trazado 895728" d="M22.565,1.818h-4.8a3.218,3.218,0,0,0-3.217,3.217V6H5.155a1.427,1.427,0,0,0,0,2.853h9.389v.975a3.218,3.218,0,0,0,3.217,3.217h4.8a3.228,3.228,0,0,0,3.217-3.217V5.035a3.228,3.228,0,0,0-3.217-3.217m.364,8.006a.37.37,0,0,1-.364.364h-4.8a.36.36,0,0,1-.364-.364V5.035a.37.37,0,0,1,.364-.364h4.8a.38.38,0,0,1,.364.364Z" transform="translate(50.541 24.648)"/>
        <path id="Trazado_895729" data-name="Trazado 895729" d="M10.2,2.379V7.168a.38.38,0,0,1-.364.364h-4.8a.37.37,0,0,1-.364-.364V2.379a.36.36,0,0,1,.364-.364h4.8a.37.37,0,0,1,.364.364" transform="translate(63.271 27.319)" fill="#7bb0ad"/>
        <path id="Trazado_895730" data-name="Trazado 895730" d="M13.554,8.055h-.946V3.878a1.429,1.429,0,0,0-1.427-1.427H5.155a1.427,1.427,0,0,0,0,2.853h4.6V8.055H8.779a3.218,3.218,0,0,0-3.217,3.217v4.8a3.218,3.218,0,0,0,3.217,3.217h4.775a3.221,3.221,0,0,0,3.232-3.217v-4.8a3.221,3.221,0,0,0-3.232-3.217m.393,8.021a.377.377,0,0,1-.393.364H8.779a.36.36,0,0,1-.364-.364v-4.8a.36.36,0,0,1,.364-.364h4.775a.377.377,0,0,1,.393.364Z" transform="translate(50.541 33.23)"/>
        <path id="Trazado_895731" data-name="Trazado 895731" d="M9.582,3.4V8.2a.377.377,0,0,1-.393.364H4.414A.36.36,0,0,1,4.05,8.2V3.4a.36.36,0,0,1,.364-.364H9.189a.377.377,0,0,1,.393.364" transform="translate(54.906 41.12)" fill="#bcdcda"/>
        <path id="Trazado_895732" data-name="Trazado 895732" d="M13.554.8H8.779A3.218,3.218,0,0,0,5.562,4.016V8.805a3.231,3.231,0,0,0,3.217,3.232h.975v2.737h-4.6a1.427,1.427,0,0,0,0,2.853h6.027A1.42,1.42,0,0,0,12.608,16.2V12.037h.946a3.234,3.234,0,0,0,3.232-3.232V4.016A3.221,3.221,0,0,0,13.554.8m.393,8.006a.391.391,0,0,1-.393.393H8.779a.377.377,0,0,1-.364-.393V4.016a.37.37,0,0,1,.364-.364h4.775a.386.386,0,0,1,.393.364Z" transform="translate(50.541 10.833)"/>
        <path id="Trazado_895733" data-name="Trazado 895733" d="M9.582,1.36V6.149a.379.379,0,0,1-.393.378H4.414a.364.364,0,0,1-.364-.378V1.36A.36.36,0,0,1,4.414,1H9.189a.377.377,0,0,1,.393.364" transform="translate(54.906 13.504)" fill="#bcdcda"/>
        <path id="Trazado_895734" data-name="Trazado 895734" d="M20.627,6h-9.4V5.035A3.218,3.218,0,0,0,8.006,1.818H3.217A3.218,3.218,0,0,0,0,5.035V9.824a3.218,3.218,0,0,0,3.217,3.217H8.006a3.218,3.218,0,0,0,3.217-3.217V8.849h9.4a1.427,1.427,0,0,0,0-2.853M8.37,9.824a.37.37,0,0,1-.364.364H3.217a.352.352,0,0,1-.364-.364V5.035a.36.36,0,0,1,.364-.364H8.006a.38.38,0,0,1,.364.364Z" transform="translate(0 24.648)"/>
        <path id="Trazado_895735" data-name="Trazado 895735" d="M5.713,2.379V7.168a.38.38,0,0,1-.364.364H.56A.36.36,0,0,1,.2,7.168V2.379A.352.352,0,0,1,.56,2.015H5.349a.37.37,0,0,1,.364.364" transform="translate(2.657 27.319)" fill="#7bb0ad"/>
        <path id="Trazado_895736" data-name="Trazado 895736" d="M12.263,14.775h-4.6V12.038h.961a3.234,3.234,0,0,0,3.217-3.246V4.017A3.218,3.218,0,0,0,8.623.8H3.834A3.218,3.218,0,0,0,.617,4.017V8.792a3.234,3.234,0,0,0,3.217,3.246h.975V16.2a1.429,1.429,0,0,0,1.427,1.427h6.027a1.427,1.427,0,0,0,0-2.853M3.834,9.185a.377.377,0,0,1-.364-.393V4.017a.373.373,0,0,1,.364-.378H8.623a.383.383,0,0,1,.364.378V8.792a.386.386,0,0,1-.364.393Z" transform="translate(8.365 10.847)"/>
        <path id="Trazado_895737" data-name="Trazado 895737" d="M6.33,1.36V6.149a.364.364,0,0,1-.364.378H1.177a.364.364,0,0,1-.364-.378V1.36A.36.36,0,0,1,1.177,1H5.966a.36.36,0,0,1,.364.364" transform="translate(11.022 13.504)" fill="#bcdcda"/>
        <path id="Trazado_895738" data-name="Trazado 895738" d="M12.263,2.451H6.236A1.429,1.429,0,0,0,4.809,3.878V8.055H3.834A3.218,3.218,0,0,0,.617,11.273v4.8a3.218,3.218,0,0,0,3.217,3.217H8.623a3.218,3.218,0,0,0,3.217-3.217v-4.8A3.218,3.218,0,0,0,8.623,8.055H7.663V5.3h4.6a1.427,1.427,0,0,0,0-2.853M8.623,10.909a.36.36,0,0,1,.364.364v4.8a.36.36,0,0,1-.364.364H3.834a.37.37,0,0,1-.364-.364v-4.8a.37.37,0,0,1,.364-.364Z" transform="translate(8.365 33.23)"/>
        <path id="Trazado_895739" data-name="Trazado 895739" d="M6.33,3.4V8.2a.36.36,0,0,1-.364.364H1.177A.36.36,0,0,1,.813,8.2V3.4a.36.36,0,0,1,.364-.364H5.966A.36.36,0,0,1,6.33,3.4" transform="translate(11.022 41.12)" fill="#bcdcda"/>
      </g>
    </g>
  </g>
</svg>
