<svg xmlns="http://www.w3.org/2000/svg" xmlns:xlink="http://www.w3.org/1999/xlink" width="108" height="108" viewBox="0 0 108 108">
  <defs>
    <clipPath id="clip-path">
      <rect id="Rectángulo_402992" data-name="Rectángulo 402992" width="63.125" height="64.713" fill="none"/>
    </clipPath>
  </defs>
  <g id="Grupo_1106652" data-name="Grupo 1106652" transform="translate(-1161.051 -1403)">
    <circle id="Elipse_11686" data-name="Elipse 11686" cx="54" cy="54" r="54" transform="translate(1161.051 1403)" fill="#f7f0d8"/>
    <g id="Grupo_1106645" data-name="Grupo 1106645" transform="translate(1183.051 1420.287)">
      <g id="Grupo_1106644" data-name="Grupo 1106644" transform="translate(0 0)" clip-path="url(#clip-path)">
        <path id="Trazado_895696" data-name="Trazado 895696" d="M29.334,1.463a1.12,1.12,0,0,0-2.24,0V6.571A1.081,1.081,0,0,1,26.3,7.626l-1.138.3-3.52.936-3.271.877a3.955,3.955,0,0,0-7.419,0l-2.24-.6L5.44,8.266l-2.406-.64a1.092,1.092,0,0,1-.806-1.055V1.463A1.114,1.114,0,0,0,0,1.463V6.571A3.34,3.34,0,0,0,.924,8.859,3.3,3.3,0,0,0,0,11.135v6.009a3.29,3.29,0,0,0,.924,2.276A3.352,3.352,0,0,0,0,21.707v6.009A3.34,3.34,0,0,0,.924,30,3.3,3.3,0,0,0,0,32.267v6.021a3.385,3.385,0,0,0,.924,2.287A3.273,3.273,0,0,0,0,42.839v6.009A3.315,3.315,0,0,0,2.465,52.06l8.225,2.193v5.559a1.12,1.12,0,0,0,2.24,0V11.123a1.736,1.736,0,1,1,3.473,0V59.812a1.114,1.114,0,0,0,2.228,0V54.253l8.237-2.193a3.3,3.3,0,0,0,2.465-3.212V42.839a3.273,3.273,0,0,0-.924-2.264,3.385,3.385,0,0,0,.924-2.287V32.267A3.3,3.3,0,0,0,28.41,30a3.34,3.34,0,0,0,.924-2.287V21.707a3.352,3.352,0,0,0-.924-2.287,3.29,3.29,0,0,0,.924-2.276V11.135a3.3,3.3,0,0,0-.924-2.276,3.34,3.34,0,0,0,.924-2.287ZM10.691,51.954,3.034,49.9a1.082,1.082,0,0,1-.806-1.055V42.839a1.1,1.1,0,0,1,.427-.853,1.071,1.071,0,0,1,.936-.19l.652.166,6.448,1.719Zm0-10.572-1.979-.533L6.8,40.338,3.034,39.331a1.078,1.078,0,0,1-.806-1.043V32.267a1.114,1.114,0,0,1,.427-.853,1.071,1.071,0,0,1,.936-.19l4.551,1.221,2.548.664Zm0-10.584L3.034,28.771a1.1,1.1,0,0,1-.806-1.055V21.707a1.1,1.1,0,0,1,.427-.865,1.071,1.071,0,0,1,.936-.19l1.185.308,5.914,1.588Zm0-10.572L8.711,19.7,6.056,19,3.034,18.2a1.092,1.092,0,0,1-.806-1.055V11.135A1.1,1.1,0,0,1,3.591,10.08l4.053,1.079,3.046.818Zm16.4,28.623A1.071,1.071,0,0,1,26.3,49.9l-7.668,2.05V43.681l2.56-.676.735-.19,3.8-1.019a1.081,1.081,0,0,1,.948.19,1.066,1.066,0,0,1,.415.853Zm0-10.56a1.067,1.067,0,0,1-.794,1.043l-1.138.308L21.9,40.5l-3.271.877V33.109l2.56-.664,3.733-1.007.806-.213a1.081,1.081,0,0,1,.948.19,1.066,1.066,0,0,1,.415.853Zm0-10.572a1.092,1.092,0,0,1-.794,1.055l-1.138.3-1.6.427-4.931,1.3V22.548l7.1-1.9a1.081,1.081,0,0,1,.948.19,1.056,1.056,0,0,1,.415.865Zm0-10.572A1.081,1.081,0,0,1,26.3,18.2l-1.138.3L20.611,19.7l-1.979.521V11.976l2.56-.687,2.287-.6,2.252-.6a1.085,1.085,0,0,1,.948.2,1.034,1.034,0,0,1,.415.853Z" transform="translate(0 3.79)"/>
        <path id="Trazado_895697" data-name="Trazado 895697" d="M10.034,2.256V8.265A1.071,1.071,0,0,1,9.24,9.32l-1.138.3L3.551,10.837l-1.979.521V3.1l2.56-.676L6.42,1.805l2.252-.6a1.085,1.085,0,0,1,.948.2,1.05,1.05,0,0,1,.415.853" transform="translate(17.06 12.669)" fill="#d4c832"/>
        <path id="Trazado_895698" data-name="Trazado 895698" d="M8.65,3.1v8.261l-1.979-.521-2.643-.711L.994,9.32A1.082,1.082,0,0,1,.188,8.265V2.256A1.084,1.084,0,0,1,.6,1.4a1.1,1.1,0,0,1,.948-.2L5.6,2.279Z" transform="translate(2.04 12.669)" fill="#d4c832"/>
        <path id="Trazado_895699" data-name="Trazado 895699" d="M10.034,4.03v6.021a1.067,1.067,0,0,1-.794,1.043L8.1,11.4l-3.259.865-3.271.877V4.871l2.56-.664L7.866,3.2l.806-.213a1.081,1.081,0,0,1,.948.19,1.066,1.066,0,0,1,.415.853" transform="translate(17.06 32.027)" fill="#d4c832"/>
        <path id="Trazado_895700" data-name="Trazado 895700" d="M8.65,4.871v8.261l-1.979-.522L4.763,12.1.994,11.094a1.088,1.088,0,0,1-.806-1.043V4.03A1.084,1.084,0,0,1,.6,3.177a1.1,1.1,0,0,1,.948-.19L6.114,4.2Z" transform="translate(2.04 32.027)" fill="#d4c832"/>
        <path id="Trazado_895701" data-name="Trazado 895701" d="M10.034,3.15V9.159a1.081,1.081,0,0,1-.794,1.055l-1.138.3-1.6.427L1.572,12.252V3.991l7.1-1.9A1.078,1.078,0,0,1,10.034,3.15" transform="translate(17.06 22.347)" fill="#faf199"/>
        <path id="Trazado_895702" data-name="Trazado 895702" d="M8.65,3.991v8.261L.994,10.214A1.092,1.092,0,0,1,.188,9.159V3.15A1.107,1.107,0,0,1,.6,2.285a1.1,1.1,0,0,1,.948-.19L2.724,2.4Z" transform="translate(2.04 22.347)" fill="#faf199"/>
        <path id="Trazado_895703" data-name="Trazado 895703" d="M10.034,4.922v6.009a1.071,1.071,0,0,1-.794,1.055l-7.668,2.05V5.763l2.56-.676.735-.19,3.8-1.019a1.081,1.081,0,0,1,.948.19,1.066,1.066,0,0,1,.415.853" transform="translate(17.06 41.707)" fill="#faf199"/>
        <path id="Trazado_895704" data-name="Trazado 895704" d="M8.65,5.763v8.261L.994,11.986a1.092,1.092,0,0,1-.806-1.055V4.922A1.067,1.067,0,0,1,.6,4.069a1.1,1.1,0,0,1,.948-.19l.64.166Z" transform="translate(2.04 41.707)" fill="#faf199"/>
        <path id="Trazado_895705" data-name="Trazado 895705" d="M1.668,6.487A1.113,1.113,0,0,0,2.782,5.373V1.236a1.114,1.114,0,1,0-2.228,0V5.373A1.113,1.113,0,0,0,1.668,6.487" transform="translate(6.012 1.326)"/>
        <path id="Trazado_895706" data-name="Trazado 895706" d="M2.847,6.487A1.113,1.113,0,0,0,3.961,5.373V1.236a1.114,1.114,0,1,0-2.228,0V5.373A1.113,1.113,0,0,0,2.847,6.487" transform="translate(18.807 1.326)"/>
        <path id="Trazado_895707" data-name="Trazado 895707" d="M2.257,6.365A1.113,1.113,0,0,0,3.371,5.251V1.114a1.114,1.114,0,0,0-2.228,0V5.251A1.113,1.113,0,0,0,2.257,6.365" transform="translate(12.404 0.002)"/>
        <path id="Trazado_895708" data-name="Trazado 895708" d="M32.185,1.463a1.114,1.114,0,0,0-2.228,0V6.571a1.092,1.092,0,0,1-.806,1.055l-1.138.3L23.474,9.132l-2.252.6a3.947,3.947,0,0,0-7.408,0l-2.24-.6L8.291,8.266,5.9,7.626a1.078,1.078,0,0,1-.806-1.055V1.463a1.12,1.12,0,0,0-2.24,0V6.571a3.34,3.34,0,0,0,.924,2.287,3.3,3.3,0,0,0-.924,2.276v6.009a3.29,3.29,0,0,0,.924,2.276,3.352,3.352,0,0,0-.924,2.287v6.009A3.34,3.34,0,0,0,3.775,30a3.3,3.3,0,0,0-.924,2.264v6.021a3.385,3.385,0,0,0,.924,2.287,3.273,3.273,0,0,0-.924,2.264v6.009A3.3,3.3,0,0,0,5.316,52.06l8.237,2.193v5.559a1.12,1.12,0,0,0,2.24,0V11.123a1.73,1.73,0,1,1,3.461,0V59.812a1.12,1.12,0,0,0,2.24,0V54.253L29.72,52.06a3.315,3.315,0,0,0,2.465-3.212V42.839a3.273,3.273,0,0,0-.924-2.264,3.385,3.385,0,0,0,.924-2.287V32.267A3.3,3.3,0,0,0,31.261,30a3.34,3.34,0,0,0,.924-2.287V21.707a3.352,3.352,0,0,0-.924-2.287,3.29,3.29,0,0,0,.924-2.276V11.135a3.3,3.3,0,0,0-.924-2.276,3.34,3.34,0,0,0,.924-2.287ZM13.554,51.954,5.9,49.9a1.069,1.069,0,0,1-.806-1.055V42.839A1.089,1.089,0,0,1,6.454,41.8l.628.166,6.471,1.719Zm0-10.572-1.979-.533-1.92-.51L5.9,39.331a1.065,1.065,0,0,1-.806-1.043V32.267a1.078,1.078,0,0,1,.427-.853,1.056,1.056,0,0,1,.936-.19l4.539,1.221,2.56.664Zm0-10.584L5.9,28.771a1.089,1.089,0,0,1-.806-1.055V21.707a1.089,1.089,0,0,1,1.363-1.055l1.162.308,5.938,1.588Zm0-10.572L11.574,19.7,7.023,18.495,5.9,18.2a1.078,1.078,0,0,1-.806-1.055V11.135a1.045,1.045,0,0,1,.427-.853,1.061,1.061,0,0,1,.936-.2L10.5,11.158l3.058.818Zm16.4,28.623a1.082,1.082,0,0,1-.806,1.055l-7.657,2.05V43.681l7.1-1.885a1,1,0,0,1,.924.19,1.072,1.072,0,0,1,.439.853Zm0-10.56a1.078,1.078,0,0,1-.806,1.043l-2.762.747-2.916.77-1.979.533V33.109l2.548-.664,4.551-1.221a1.032,1.032,0,0,1,.924.19,1.09,1.09,0,0,1,.439.853Zm0-10.572a1.1,1.1,0,0,1-.806,1.055L21.495,30.8V22.548l6.128-1.636.972-.261a1.1,1.1,0,0,1,1.363,1.055Zm0-10.572a1.092,1.092,0,0,1-.806,1.055l-2.548.676-3.129.83h-.012l-1.967.521V11.976L25.548,10.9l3.046-.818a1.037,1.037,0,0,1,.924.2,1.056,1.056,0,0,1,.439.853Z" transform="translate(30.94 3.79)"/>
        <path id="Trazado_895709" data-name="Trazado 895709" d="M12.887,3.148V9.157a1.092,1.092,0,0,1-.806,1.055L4.424,12.25V3.989l6.128-1.636.972-.261a1.076,1.076,0,0,1,.924.19,1.1,1.1,0,0,1,.439.865" transform="translate(48.01 22.349)" fill="#faf199"/>
        <path id="Trazado_895710" data-name="Trazado 895710" d="M12.887,4.03v6.021a1.078,1.078,0,0,1-.806,1.043l-2.762.747-2.916.77-1.979.533V4.871l2.548-.664,4.551-1.221a1.032,1.032,0,0,1,.924.19,1.09,1.09,0,0,1,.439.853" transform="translate(48.01 32.027)" fill="#d4c832"/>
        <path id="Trazado_895711" data-name="Trazado 895711" d="M11.5,4.871v8.261l-1.979-.522L7.6,12.1,3.858,11.094a1.073,1.073,0,0,1-.818-1.043V4.03a1.029,1.029,0,0,1,.427-.853,1.041,1.041,0,0,1,.936-.19L8.931,4.2Z" transform="translate(32.991 32.027)" fill="#d4c832"/>
        <path id="Trazado_895712" data-name="Trazado 895712" d="M11.5,5.763v8.261L3.858,11.986a1.076,1.076,0,0,1-.818-1.055V4.922a1.014,1.014,0,0,1,.427-.853,1.041,1.041,0,0,1,.936-.19l.628.166Z" transform="translate(32.991 41.707)" fill="#faf199"/>
        <path id="Trazado_895713" data-name="Trazado 895713" d="M12.887,2.256V8.265a1.082,1.082,0,0,1-.806,1.055l-2.548.687-3.129.83H6.391l-1.967.521V3.1L8.477,2.019,11.523,1.2a1.037,1.037,0,0,1,.924.2,1.072,1.072,0,0,1,.439.853" transform="translate(48.01 12.669)" fill="#d4c832"/>
        <path id="Trazado_895714" data-name="Trazado 895714" d="M11.5,3.1v8.261l-1.979-.521L4.972,9.616l-1.114-.3A1.066,1.066,0,0,1,3.04,8.265V2.256A1.029,1.029,0,0,1,3.467,1.4,1.045,1.045,0,0,1,4.4,1.2L8.456,2.279Z" transform="translate(32.991 12.669)" fill="#d4c832"/>
        <path id="Trazado_895715" data-name="Trazado 895715" d="M12.887,4.927v6.009a1.082,1.082,0,0,1-.806,1.055l-7.657,2.05V5.768l7.1-1.885a1,1,0,0,1,.924.19,1.072,1.072,0,0,1,.439.853" transform="translate(48.01 41.702)" fill="#faf199"/>
        <path id="Trazado_895716" data-name="Trazado 895716" d="M11.5,3.991v8.261L3.858,10.214A1.076,1.076,0,0,1,3.04,9.159V3.15A1.089,1.089,0,0,1,4.4,2.095L5.565,2.4Z" transform="translate(32.991 22.347)" fill="#faf199"/>
        <path id="Trazado_895717" data-name="Trazado 895717" d="M4.519,6.487A1.113,1.113,0,0,0,5.633,5.373V1.236a1.114,1.114,0,1,0-2.228,0V5.373A1.113,1.113,0,0,0,4.519,6.487" transform="translate(36.952 1.326)"/>
        <path id="Trazado_895718" data-name="Trazado 895718" d="M5.7,6.487A1.113,1.113,0,0,0,6.812,5.373V1.236a1.114,1.114,0,1,0-2.228,0V5.373A1.113,1.113,0,0,0,5.7,6.487" transform="translate(49.747 1.326)"/>
        <path id="Trazado_895719" data-name="Trazado 895719" d="M5.109,6.365A1.113,1.113,0,0,0,6.223,5.251V1.114a1.114,1.114,0,0,0-2.228,0V5.251A1.113,1.113,0,0,0,5.109,6.365" transform="translate(43.355 0.002)"/>
      </g>
    </g>
  </g>
</svg>
