<svg xmlns="http://www.w3.org/2000/svg" xmlns:xlink="http://www.w3.org/1999/xlink" width="70.761" height="50.057" viewBox="0 0 70.761 50.057">
  <defs>
    <clipPath id="clip-path">
      <rect id="Rectángulo_403721" data-name="Rectángulo 403721" width="38.699" height="50.056" fill="none"/>
    </clipPath>
  </defs>
  <g id="_37" data-name="37" transform="translate(-194.239 -525.971)">
    <g id="Grupo_1107994" data-name="Grupo 1107994" transform="translate(226.301 525.972)">
      <g id="Grupo_1107993" data-name="Grupo 1107993" transform="translate(0 0)" clip-path="url(#clip-path)">
        <path id="Trazado_899669" data-name="Trazado 899669" d="M38.7,27.192a.857.857,0,0,0-.854-.854H34.006a23.308,23.308,0,0,0-3.051-8.354l5.566-2.525a2.679,2.679,0,0,0,1.558-2.422V11.179a.854.854,0,0,0-1.708,0v1.858a.964.964,0,0,1-.554.873L30,16.548a19.7,19.7,0,0,0-4.571-4.571,5.686,5.686,0,0,0,.77-2.844l-.019-.2a3.258,3.258,0,0,0,.544-1.8,3.311,3.311,0,0,0-3.3-3.313,4.457,4.457,0,0,0-.5.047c-.263-.141-.535-.272-.807-.385l.094-.225A2.54,2.54,0,0,1,24.545,1.7a.849.849,0,0,0,0-1.7,4.25,4.25,0,0,0-3.914,2.591l-.178.432a7.243,7.243,0,0,0-1.108-.084,7.121,7.121,0,0,0-1.1.084l-.188-.432A4.24,4.24,0,0,0,14.145,0a.849.849,0,0,0,0,1.7,2.543,2.543,0,0,1,2.347,1.558l.094.225c-.272.113-.544.244-.807.385a4.457,4.457,0,0,0-.5-.047,3.3,3.3,0,0,0-2.769,5.115l-.009.2a5.767,5.767,0,0,0,.76,2.835,19.355,19.355,0,0,0-4.627,4.562L2.882,13.91a.948.948,0,0,1-.554-.873V11.179a.854.854,0,0,0-1.708,0v1.858a2.663,2.663,0,0,0,1.558,2.422l5.51,2.506c-.244.394-.469.8-.695,1.239a23.311,23.311,0,0,0-2.337,7.133H.845a.849.849,0,0,0,0,1.7H4.44a34.767,34.767,0,0,0,.526,9.7l-2.459.742A2.65,2.65,0,0,0,.619,41.027v2.628a.854.854,0,1,0,1.708,0V41.027a.961.961,0,0,1,.666-.929L5.3,39.4a53.354,53.354,0,0,0,2.131,7.04.852.852,0,0,0,.526.507.868.868,0,0,0,.272.038.817.817,0,0,0,.46-.131,20.927,20.927,0,0,0,3.651-3.229l1.727,3.248a5.971,5.971,0,0,0,10.559,0l1.727-3.257a20.582,20.582,0,0,0,3.651,3.238.817.817,0,0,0,.46.131.949.949,0,0,0,.272-.038.876.876,0,0,0,.526-.507,54.526,54.526,0,0,0,2.131-7.03l2.3.685a.969.969,0,0,1,.676.929v2.628a.854.854,0,1,0,1.708,0V41.027a2.65,2.65,0,0,0-1.887-2.553l-2.45-.742a34.061,34.061,0,0,0,.488-9.7h3.614a.849.849,0,0,0,.854-.845M21.842,6.833l.028-.1.056-.178.047-.113.084-.15.066-.094.113-.141.066-.075a1.308,1.308,0,0,1,.178-.141l.131-.084a.776.776,0,0,1,.15-.084l.16-.056a1.421,1.421,0,0,1,.5-.094,1.612,1.612,0,0,1,1.605,1.614,1.592,1.592,0,0,1-.413,1.061l-.141.141-.113.084-.169.1-.113.066-.216.075-.094.028a1.511,1.511,0,0,1-.347.038,1.594,1.594,0,0,1-1.6-1.6c0-.1.009-.206.019-.3m-3.257.3a3.8,3.8,0,0,0-.066-.657l-.075-.253c-.038-.113-.066-.235-.113-.338s-.094-.188-.131-.272c-.056-.094-.1-.2-.16-.282s-.122-.16-.188-.244a1.53,1.53,0,0,0-.16-.206,5.821,5.821,0,0,1,3.3,0l-.16.206c-.066.084-.131.16-.188.244s-.094.188-.15.282a2.432,2.432,0,0,0-.131.272,2.039,2.039,0,0,0-.113.338l-.075.253a3.06,3.06,0,0,0-.066.657,3.3,3.3,0,0,0,3.3,3.295,3.01,3.01,0,0,0,.591-.056l.15-.028.16-.038a5.1,5.1,0,0,1-4.975,3.323,5.089,5.089,0,0,1-4.965-3.323l.16.038.141.028a3.179,3.179,0,0,0,.6.056,3.3,3.3,0,0,0,3.3-3.295m-3.3-1.614a1.463,1.463,0,0,1,.5.094l.15.056.16.075.131.1a1.032,1.032,0,0,1,.169.131l.075.075.113.141.066.1.075.141.047.113.056.178.028.1a1.553,1.553,0,0,1,.028.3,1.594,1.594,0,0,1-1.6,1.6,1.458,1.458,0,0,1-.347-.038l-.094-.028-.216-.075-.113-.066a.736.736,0,0,1-.169-.1l-.113-.084-.141-.141a1.6,1.6,0,0,1-.422-1.061,1.62,1.62,0,0,1,1.614-1.614M8.635,44.763C6.11,37.648,5.613,31.96,6.176,27.492a1.064,1.064,0,0,0,.056-.3l-.009-.084a20.981,20.981,0,0,1,3.238-8.851,1.02,1.02,0,0,0,.253-.31l.038-.122A17.174,17.174,0,0,1,14.3,13.31a7.169,7.169,0,0,0,5.04,2.018,7.715,7.715,0,0,0,1.483-.15c-.507,18.5-9.367,27.257-12.193,29.585m14.492,1.314a4.269,4.269,0,0,1-7.556,0l-2.027-3.83A36.673,36.673,0,0,0,19.364,32.12a36.9,36.9,0,0,0,5.8,10.118Zm6.936-1.3c-1.98-1.624-6.861-6.336-9.809-15.224a52.607,52.607,0,0,0,2.281-14.933,6.914,6.914,0,0,0,1.849-1.3,17.168,17.168,0,0,1,4.562,4.515l.038.122a.852.852,0,0,0,.253.319,21.013,21.013,0,0,1,3.238,8.842l-.009.084a.778.778,0,0,0,.056.3c.554,4.477.066,10.156-2.459,17.28" transform="translate(0 0.002)"/>
        <path id="Trazado_899670" data-name="Trazado 899670" d="M11.464,6.159A5.089,5.089,0,0,1,6.5,9.482,5.08,5.08,0,0,1,1.533,6.159l.15.038.141.028a3.253,3.253,0,0,0,.6.056,3.3,3.3,0,0,0,3.3-3.3,3.789,3.789,0,0,0-.066-.648l-.075-.253c-.038-.113-.066-.235-.1-.338a2.477,2.477,0,0,0-.141-.272c-.056-.094-.094-.2-.16-.291-.047-.075-.122-.15-.178-.235C4.95.875,4.9.79,4.846.734a5.821,5.821,0,0,1,3.3,0A1.8,1.8,0,0,0,7.981.94c-.056.084-.122.16-.178.235-.056.094-.1.2-.15.291a1.5,1.5,0,0,0-.141.272,2.015,2.015,0,0,0-.1.338c-.028.084-.066.169-.084.253a3.773,3.773,0,0,0-.056.648,3.3,3.3,0,0,0,3.3,3.3,3.154,3.154,0,0,0,.591-.056L11.3,6.2l.16-.038" transform="translate(12.856 4.149)" fill="#ce9b3d"/>
        <path id="Trazado_899671" data-name="Trazado 899671" d="M5.526,2.193a1.616,1.616,0,0,1-.413,1.07l-.141.131-.1.094-.178.094-.113.066a.732.732,0,0,1-.216.075l-.094.038a2.071,2.071,0,0,1-.347.038,1.6,1.6,0,0,1-1.6-1.605A2.843,2.843,0,0,1,2.344,1.9l.028-.1.056-.188.056-.1.075-.15.066-.094a.532.532,0,0,1,.113-.141L2.8,1.039,2.982.9,3.113.823l.16-.094.15-.056a1.726,1.726,0,0,1,.5-.084A1.6,1.6,0,0,1,5.526,2.193" transform="translate(19.498 4.933)" fill="#edc16c"/>
        <path id="Trazado_899672" data-name="Trazado 899672" d="M4.666,2.193A1.61,1.61,0,0,1,3.061,3.8a2.069,2.069,0,0,1-.338-.038l-.094-.038a.732.732,0,0,1-.216-.075l-.122-.066-.169-.094-.1-.094-.15-.131a1.665,1.665,0,0,1-.413-1.07A1.6,1.6,0,0,1,3.061.588a1.791,1.791,0,0,1,.507.084l.15.056.15.084.141.094.169.131.075.084.113.141.066.094.075.15.047.1A.715.715,0,0,1,4.61,1.8l.028.1a1.457,1.457,0,0,1,.028.291" transform="translate(12.21 4.933)" fill="#edc16c"/>
        <path id="Trazado_899673" data-name="Trazado 899673" d="M14.023,3.428a7.209,7.209,0,0,1-5.05-2.009A17.16,17.16,0,0,0,4.421,5.934l-.038.113a.836.836,0,0,1-.253.31A21.2,21.2,0,0,0,.892,15.217L.9,15.3a.8.8,0,0,1-.056.291C.281,20.069.779,25.748,3.3,32.872,6.138,30.535,14.99,21.778,15.5,3.287a7.617,7.617,0,0,1-1.474.141m-6.861,6.1A25.257,25.257,0,0,0,5.678,25.053a.854.854,0,0,1-.666,1l-.178.019a.85.85,0,0,1-.826-.685A26.9,26.9,0,0,1,5.613,8.834a.849.849,0,1,1,1.549.695" transform="translate(5.332 11.902)" fill="#f8e995"/>
        <path id="Trazado_899674" data-name="Trazado 899674" d="M14.426,15.6a.778.778,0,0,1-.056-.3l.009-.084a21.013,21.013,0,0,0-3.238-8.842.955.955,0,0,1-.253-.319l-.038-.122A17.168,17.168,0,0,0,6.288,1.418a6.914,6.914,0,0,1-1.849,1.3A52.275,52.275,0,0,1,2.158,17.656c2.947,8.889,7.828,13.61,9.809,15.224,2.534-7.124,3.013-12.8,2.459-17.28m-3.163,9.8a.844.844,0,0,1-.835.676.52.52,0,0,1-.169-.019.838.838,0,0,1-.657-.995A25.315,25.315,0,0,0,8.109,9.537.856.856,0,0,1,8.541,8.4a.839.839,0,0,1,1.117.441A26.962,26.962,0,0,1,11.263,25.4" transform="translate(18.097 11.894)" fill="#edc16c"/>
        <path id="Trazado_899675" data-name="Trazado 899675" d="M13.063,13.54l-2.037,3.839a4.27,4.27,0,0,1-7.546,0L1.443,13.55A36.344,36.344,0,0,0,7.262,3.422a37.14,37.14,0,0,0,5.8,10.118" transform="translate(12.101 28.699)" fill="#ce9b3d"/>
        <path id="Trazado_899676" data-name="Trazado 899676" d="M4.7,3.353A25.257,25.257,0,0,0,3.213,18.878a.854.854,0,0,1-.666,1l-.178.019a.85.85,0,0,1-.826-.685A26.9,26.9,0,0,1,3.148,2.658.849.849,0,1,1,4.7,3.353" transform="translate(7.797 18.078)"/>
        <path id="Trazado_899677" data-name="Trazado 899677" d="M6.014,19.225a.844.844,0,0,1-.835.676.52.52,0,0,1-.169-.019.838.838,0,0,1-.657-.995A25.315,25.315,0,0,0,2.86,3.362a.856.856,0,0,1,.432-1.136.839.839,0,0,1,1.117.441A26.962,26.962,0,0,1,6.014,19.225" transform="translate(23.346 18.068)"/>
      </g>
    </g>
    <g id="Grupo_1107995" data-name="Grupo 1107995" transform="translate(4.15 -2.161)">
      <path id="Trazado_899678" data-name="Trazado 899678" d="M29.205,26.107a.535.535,0,0,1-.1.489.524.524,0,0,1-.437.222H.563A.569.569,0,0,1,.118,26.6a.557.557,0,0,1-.1-.489c1.03-3.623,4.616-6.5,9.246-7.787C-1.238,14.416.866,2.755.889,2.636a.562.562,0,0,1,.548-.459A13.378,13.378,0,0,1,11.565,5.9a14.706,14.706,0,0,1,3.371,5.653C16,9.037,18.8,4.822,25.834,4.822a.639.639,0,0,1,.548.274,9.635,9.635,0,0,1,.771,7.72c-.926,2.46-3.1,4.371-6.423,5.727,4.26,1.371,7.513,4.142,8.476,7.564M1.348,25.7H27.886c-1.63-4.082-7.053-6.987-13.269-6.987S2.978,21.617,1.348,25.7M26.108,12.43a8.486,8.486,0,0,0-.541-6.475c-8.29.133-9.891,6.535-10.083,7.5a21.673,21.673,0,0,1,.4,2.178,19.016,19.016,0,0,0,6.942-5.964.565.565,0,0,1,.889.7C20.24,14.875,17.04,16.394,16,16.8c.022.341.03.622.044.845a18.724,18.724,0,0,1,2.778.4c3.882-1.259,6.335-3.141,7.283-5.616M14.617,17.594l.3.007c-.067-1.741-.57-7.29-4.164-10.913A12.1,12.1,0,0,0,1.918,3.3c-.3,2.26-.956,11.987,9.617,14.543.363-.059.733-.1,1.1-.141A29.017,29.017,0,0,0,5.83,8.645a.555.555,0,0,1-.081-.785.562.562,0,0,1,.785-.081,29.243,29.243,0,0,1,7.312,9.846c.252-.007.5-.03.771-.03" transform="translate(190.089 539.728)"/>
      <path id="Trazado_899679" data-name="Trazado 899679" d="M26.72,11.393H.182C1.812,7.31,7.228,4.406,13.451,4.406S25.09,7.31,26.72,11.393" transform="translate(191.255 554.034)" fill="#f8e995"/>
      <path id="Trazado_899680" data-name="Trazado 899680" d="M12.173,2.683a8.486,8.486,0,0,1,.541,6.475c-.948,2.475-3.4,4.364-7.283,5.616a20.9,20.9,0,0,0-2.778-.4c-.015-.222-.022-.5-.044-.845,1.037-.407,4.238-1.926,7.713-6.438A.562.562,0,1,0,9.432,6.4,18.826,18.826,0,0,1,2.49,12.359a21.673,21.673,0,0,0-.4-2.178c.193-.963,1.793-7.364,10.083-7.5" transform="translate(203.483 542.992)" fill="#6a8f64"/>
      <path id="Trazado_899681" data-name="Trazado 899681" d="M13.374,16.631l-.3-.007c-.267,0-.519.015-.778.03A29.305,29.305,0,0,0,4.979,6.8a.57.57,0,0,0-.785.081.555.555,0,0,0,.081.785,29.085,29.085,0,0,1,6.816,9.054c-.378.044-.741.081-1.111.148C-.592,14.312.075,4.585.371,2.325A12.108,12.108,0,0,1,9.21,5.711c3.593,3.63,4.09,9.18,4.164,10.921" transform="translate(191.636 540.698)" fill="#acdaa3"/>
    </g>
  </g>
</svg>
