<svg xmlns="http://www.w3.org/2000/svg" xmlns:xlink="http://www.w3.org/1999/xlink" width="108" height="108" viewBox="0 0 108 108">
  <defs>
    <clipPath id="clip-path">
      <rect id="Rectángulo_403284" data-name="Rectángulo 403284" width="58.234" height="64.807" fill="none"/>
    </clipPath>
  </defs>
  <g id="_53" data-name="53" transform="translate(-326.051 -1403)">
    <circle id="Elipse_11684" data-name="Elipse 11684" cx="54" cy="54" r="54" transform="translate(326.051 1403)" fill="#f7f0d8"/>
    <g id="Grupo_1107238" data-name="Grupo 1107238" transform="translate(349.051 1424.597)">
      <g id="Grupo_1107237" data-name="Grupo 1107237" transform="translate(0 0)" clip-path="url(#clip-path)">
        <path id="Trazado_898471" data-name="Trazado 898471" d="M20.518,17.563l16.745-5.217s-6.477-9.983-23.27-7.891S2.786,9.113,2.786,9.113s15.545,5.11,17.732,8.45" transform="translate(20.662 45.344)" fill="#f2cd86"/>
        <path id="Trazado_898472" data-name="Trazado 898472" d="M.112,9.136V22.494s8.4-8.058,20.513-8.806c0,0,9.852-5.253,11.243-5.194S27.9,5,27.9,5,12.722.413.112,9.136" transform="translate(1.219 41.304)" fill="#eecf93"/>
        <path id="Trazado_898473" data-name="Trazado 898473" d="M11.847,7.886a5.167,5.167,0,0,1,.8,4.183c-.582,2.329-2.674,4.3-4.219,5.479V11.594a1.177,1.177,0,1,0-2.353,0v6.239A8.585,8.585,0,0,1,2.22,12.782c-.832-3.47.8-7.666,4.849-12.514.939,1.557,2.638,4.3,4.778,7.618" transform="translate(21.87 2.918)" fill="#79c651"/>
        <path id="Trazado_898474" data-name="Trazado 898474" d="M14.993,4.509a10.323,10.323,0,0,1,3.72,6.216,21.862,21.862,0,0,1-8.9-4.968A1.168,1.168,0,1,0,8.2,7.444a23.806,23.806,0,0,0,9.139,5.336,7.257,7.257,0,0,1-5.182.844c-5.36-1.117-9.7-7.9-11.326-10.815,6.263-1.3,11.029-.725,14.166,1.7" transform="translate(9.002 23.231)" fill="#79c651"/>
        <path id="Trazado_898475" data-name="Trazado 898475" d="M20.453,2.811c-1.628,2.9-5.942,9.7-11.314,10.815a7.225,7.225,0,0,1-5.194-.856A23.783,23.783,0,0,0,13.1,7.446a1.177,1.177,0,1,0-1.628-1.7,21.5,21.5,0,0,1-8.9,4.968A10.318,10.318,0,0,1,6.275,4.523C9.413,2.075,14.19,1.516,20.453,2.811" transform="translate(27.941 23.229)" fill="#79c651"/>
        <path id="Trazado_898476" data-name="Trazado 898476" d="M57.846,56.018a1.171,1.171,0,0,1-.8,2.044,1.135,1.135,0,0,1-.784-.3,26.985,26.985,0,0,0-30.71-3.72A28.774,28.774,0,0,1,41.1,61.235a1.17,1.17,0,0,1,.083,1.664,1.207,1.207,0,0,1-1.676.083A26.6,26.6,0,0,0,21.5,56.089,26.7,26.7,0,0,0,2.048,64.42a1.19,1.19,0,0,1-.868.38,1.182,1.182,0,0,1-.868-1.985A29.173,29.173,0,0,1,21.5,53.724h.059a28.455,28.455,0,0,1,10.363-4.516,26.98,26.98,0,0,0-28.951,1.5,1.175,1.175,0,0,1-1.64-.261A1.189,1.189,0,0,1,1.6,48.792a29.39,29.39,0,0,1,26.336-3.934V37.787a10.077,10.077,0,0,1-5.3,1.593,10.324,10.324,0,0,1-1.973-.214C12.708,37.49,7.241,26.223,7.015,25.748A1.185,1.185,0,0,1,7.788,24.1c7.737-1.89,13.691-1.3,17.684,1.795a11.29,11.29,0,0,1,2.46,2.626V23.454a11.433,11.433,0,0,1-6.144-7.19c-1.093-4.54,1.07-9.888,6.43-15.878a1.249,1.249,0,0,1,1-.38,1.2,1.2,0,0,1,.891.582c.024.024,2.258,3.767,5.586,8.949a7.471,7.471,0,0,1,1.093,6.014c-.986,3.934-4.956,6.81-6.489,7.784v5.182a11.353,11.353,0,0,1,2.472-2.626c3.981-3.09,9.924-3.7,17.672-1.795a1.136,1.136,0,0,1,.772.642,1.159,1.159,0,0,1,0,1.01c-.226.475-5.693,11.742-13.643,13.418a10.344,10.344,0,0,1-1.985.214A10.1,10.1,0,0,1,30.3,37.787v7.963a28,28,0,0,1,5.158,2.912,27.535,27.535,0,0,1,2.8-.154,28.961,28.961,0,0,1,19.586,7.511M37.083,36.848c5.372-1.105,9.686-7.9,11.314-10.8-6.263-1.3-11.041-.737-14.19,1.711a10.318,10.318,0,0,0-3.7,6.192,21.716,21.716,0,0,0,8.9-4.968,1.177,1.177,0,1,1,1.628,1.7A23.783,23.783,0,0,1,31.89,36a7.159,7.159,0,0,0,5.194.844M34.516,14.98a5.129,5.129,0,0,0-.808-4.183c-2.139-3.316-3.827-6.061-4.778-7.618-4.053,4.849-5.681,9.044-4.849,12.514a8.63,8.63,0,0,0,3.851,5.051V14.5a1.183,1.183,0,1,1,2.365,0v5.954c1.533-1.177,3.637-3.149,4.219-5.479m-6.8,18.968A10.354,10.354,0,0,0,24,27.732c-3.138-2.424-7.9-2.983-14.166-1.688,1.628,2.9,5.966,9.7,11.326,10.8A7.138,7.138,0,0,0,26.34,36,23.752,23.752,0,0,1,17.2,30.68a1.173,1.173,0,1,1,1.616-1.7,21.647,21.647,0,0,0,8.9,4.968" transform="translate(-0.004 0.008)" fill="#252d32"/>
      </g>
    </g>
  </g>
</svg>
