<svg xmlns="http://www.w3.org/2000/svg" xmlns:xlink="http://www.w3.org/1999/xlink" width="108" height="108" viewBox="0 0 108 108">
  <defs>
    <clipPath id="clip-path">
      <rect id="Rectángulo_403283" data-name="Rectángulo 403283" width="69.197" height="69.335" fill="none"/>
    </clipPath>
  </defs>
  <g id="_54" data-name="54" transform="translate(-746.051 -5094)">
    <g id="Grupo_1106650" data-name="Grupo 1106650" transform="translate(0 3691)">
      <circle id="Elipse_11685" data-name="Elipse 11685" cx="54" cy="54" r="54" transform="translate(746.051 1403)" fill="#f7f0d8"/>
    </g>
    <g id="Grupo_1107234" data-name="Grupo 1107234" transform="translate(765.051 5113)">
      <g id="Grupo_1107233" data-name="Grupo 1107233" transform="translate(0 0)" clip-path="url(#clip-path)">
        <path id="Trazado_898451" data-name="Trazado 898451" d="M32.924,60.695l1.137,6.137L17.633,69.771l-.079-.11a2.421,2.421,0,0,1,.368-3.232Z" transform="translate(-4.644 -16.484)" fill="#ffc960"/>
        <path id="Trazado_898452" data-name="Trazado 898452" d="M24.873,85.509a1.092,1.092,0,0,1-1.06-.83L22.35,78.766,16.64,70.059a3.515,3.515,0,0,1,.212-5.168,1.087,1.087,0,0,1,.347-.2l14.58-5.083a1.092,1.092,0,0,1,.72,2.063l-14.36,5.006a1.33,1.33,0,0,0,.085,1.873,1.028,1.028,0,0,1,.175.206l5.881,8.967a1.09,1.09,0,0,1,.147.336l1.507,6.093a1.093,1.093,0,0,1-1.061,1.355" transform="translate(-4.239 -16.173)" fill="#252d32"/>
        <path id="Trazado_898453" data-name="Trazado 898453" d="M22.777,72.536a1.093,1.093,0,0,1-.2-2.166L34.81,68.039a1.093,1.093,0,0,1,.409,2.147L22.982,72.517a1.144,1.144,0,0,1-.2.019" transform="translate(-5.89 -18.474)" fill="#252d32"/>
        <path id="Trazado_898454" data-name="Trazado 898454" d="M52.7,45.4s0,19.813-5.1,19.813c-4.172,0-5.1-19.813-5.1-19.813V33.163c.194-2.691.972-4.475,2.781-4.662h4.636c1.786.537,2.772,2.021,2.781,4.662Z" transform="translate(-11.543 -7.741)" fill="#79c651"/>
        <path id="Trazado_898455" data-name="Trazado 898455" d="M55.836,60.695,54.7,66.832l16.428,2.939.079-.11a2.421,2.421,0,0,0-.368-3.232Z" transform="translate(-14.856 -16.484)" fill="#ffc960"/>
        <path id="Trazado_898456" data-name="Trazado 898456" d="M49.239,42.97H39.785A3.289,3.289,0,0,1,36.5,39.684v-2.9A3.289,3.289,0,0,1,39.785,33.5h9.454a3.289,3.289,0,0,1,3.285,3.286v2.9a3.289,3.289,0,0,1-3.285,3.286m-9.454-7.284a1.1,1.1,0,0,0-1.1,1.1v2.9a1.1,1.1,0,0,0,1.1,1.1h9.454a1.1,1.1,0,0,0,1.1-1.1v-2.9a1.1,1.1,0,0,0-1.1-1.1Z" transform="translate(-9.913 -9.099)" fill="#252d32"/>
        <path id="Trazado_898457" data-name="Trazado 898457" d="M51.177,33.785a1.093,1.093,0,0,1-1.093-1.093,4.011,4.011,0,0,0-4.006-4.006H43.245a4.011,4.011,0,0,0-4.006,4.006,1.093,1.093,0,1,1-2.185,0A6.2,6.2,0,0,1,43.245,26.5h2.833a6.2,6.2,0,0,1,6.191,6.191,1.093,1.093,0,0,1-1.093,1.093" transform="translate(-10.064 -7.197)" fill="#252d32"/>
        <path id="Trazado_898458" data-name="Trazado 898458" d="M52.291,21.43a1.092,1.092,0,0,1-.977-1.581c.607-1.214,6.4-9.458,11.394-13.205C72.243-.509,81.681-.01,82.079.017A1.092,1.092,0,0,1,83.1,1.175,1.079,1.079,0,0,1,81.942,2.2,29.941,29.941,0,0,0,64.019,8.392C59.471,11.8,53.8,19.768,53.269,20.826a1.094,1.094,0,0,1-.978.6" transform="translate(-13.905 0)" fill="#252d32"/>
        <path id="Trazado_898459" data-name="Trazado 898459" d="M30.811,21.43a1.094,1.094,0,0,1-.978-.6c-.528-1.058-6.2-9.024-10.75-12.434A29.936,29.936,0,0,0,1.158,2.2,1.092,1.092,0,0,1,1.023.017,31.553,31.553,0,0,1,20.395,6.643c5,3.748,10.787,11.992,11.394,13.205a1.092,1.092,0,0,1-.977,1.581" transform="translate(0 0)" fill="#252d32"/>
        <path id="Trazado_898460" data-name="Trazado 898460" d="M35.091,85.566a1.092,1.092,0,0,1-.974-1.587l4.953-9.76a1.093,1.093,0,0,1,1.949.988l-4.953,9.761a1.093,1.093,0,0,1-.975.6" transform="translate(-9.234 -19.995)" fill="#252d32"/>
        <path id="Trazado_898461" data-name="Trazado 898461" d="M44.292,83.852a1.11,1.11,0,0,1-.243-.027,1.092,1.092,0,0,1-.824-1.307l.947-4.166a1.093,1.093,0,0,1,2.131.484L45.357,83a1.093,1.093,0,0,1-1.065.851" transform="translate(-11.733 -21.049)" fill="#252d32"/>
        <path id="Trazado_898462" data-name="Trazado 898462" d="M44.835,70.4c-7.516,0-8.013-21.058-8.036-25.28a1.093,1.093,0,0,1,2.185-.012c.054,9.6,1.906,23.107,5.851,23.107a1.987,1.987,0,0,0,1.43-.688c3.445-3.5,4.01-17.353,3.936-22.4a1.093,1.093,0,0,1,1.077-1.109A1.118,1.118,0,0,1,52.387,45.1c.028,1.949.141,19.186-4.565,23.962a4.113,4.113,0,0,1-2.986,1.34" transform="translate(-9.995 -11.956)" fill="#252d32"/>
        <path id="Trazado_898463" data-name="Trazado 898463" d="M58.045,85.566a1.093,1.093,0,0,1-.975-.6l-4.953-9.761a1.093,1.093,0,0,1,1.949-.988l4.953,9.76a1.092,1.092,0,0,1-.974,1.587" transform="translate(-14.123 -19.995)" fill="#252d32"/>
        <path id="Trazado_898464" data-name="Trazado 898464" d="M50.391,83.852a1.092,1.092,0,0,1-1.071-.886l-.8-4.166a1.092,1.092,0,0,1,2.145-.412l.8,4.166a1.092,1.092,0,0,1-.867,1.279,1.124,1.124,0,0,1-.208.02" transform="translate(-13.172 -21.049)" fill="#252d32"/>
        <path id="Trazado_898465" data-name="Trazado 898465" d="M63.641,85.509a1.093,1.093,0,0,1-1.061-1.355l1.507-6.093a1.074,1.074,0,0,1,.148-.336l5.88-8.967a1.028,1.028,0,0,1,.175-.206,1.329,1.329,0,0,0,.086-1.873l-14.36-5.006a1.093,1.093,0,1,1,.72-2.063l14.58,5.083a1.087,1.087,0,0,1,.347.2,3.514,3.514,0,0,1,.211,5.168l-5.711,8.707L64.7,84.678a1.093,1.093,0,0,1-1.06.83" transform="translate(-15.015 -16.173)" fill="#252d32"/>
        <path id="Trazado_898466" data-name="Trazado 898466" d="M66.93,72.536a1.159,1.159,0,0,1-.205-.019L54.487,70.186a1.093,1.093,0,0,1,.409-2.147L67.132,70.37a1.093,1.093,0,0,1-.2,2.166" transform="translate(-14.557 -18.474)" fill="#252d32"/>
        <path id="Trazado_898467" data-name="Trazado 898467" d="M69.206,54.946a1.1,1.1,0,0,1-.488-.115l-2.331-1.165a1.091,1.091,0,0,1-.6-.893l-.475-6.17-8.317,2.841a1.093,1.093,0,1,1-.707-2.069l9.651-3.3a1.092,1.092,0,0,1,1.442.951l.536,6.958,1.777.889a1.093,1.093,0,0,1-.489,2.07" transform="translate(-15.087 -11.955)" fill="#252d32"/>
        <path id="Trazado_898468" data-name="Trazado 898468" d="M57.092,36.546a1.092,1.092,0,0,1-.383-2.115l4.21-1.579,2.151-5.379A1.093,1.093,0,0,1,63.6,26.9l2.331-1.165A1.093,1.093,0,0,1,66.9,27.69l-1.96.98-2.176,5.44a1.093,1.093,0,0,1-.631.618l-4.663,1.748a1.072,1.072,0,0,1-.383.07" transform="translate(-15.209 -6.958)" fill="#252d32"/>
        <path id="Trazado_898469" data-name="Trazado 898469" d="M20.292,54.946a1.093,1.093,0,0,1-.489-2.07l1.777-.889.536-6.958a1.092,1.092,0,0,1,1.442-.951l9.651,3.3a1.093,1.093,0,1,1-.707,2.069L24.186,46.6l-.475,6.17a1.091,1.091,0,0,1-.6.893L20.78,54.831a1.1,1.1,0,0,1-.488.115" transform="translate(-5.214 -11.956)" fill="#252d32"/>
        <path id="Trazado_898470" data-name="Trazado 898470" d="M33.615,36.546a1.069,1.069,0,0,1-.383-.07l-4.663-1.748a1.093,1.093,0,0,1-.631-.618l-2.176-5.44-1.96-.98a1.093,1.093,0,0,1,.978-1.955L27.111,26.9a1.094,1.094,0,0,1,.526.572l2.151,5.379L34,34.431a1.092,1.092,0,0,1-.383,2.115" transform="translate(-6.301 -6.958)" fill="#252d32"/>
      </g>
    </g>
  </g>
</svg>
