<svg id="_60" data-name="60" xmlns="http://www.w3.org/2000/svg" xmlns:xlink="http://www.w3.org/1999/xlink" width="610" height="407.146" viewBox="0 0 610 407.146">
  <defs>
    <clipPath id="clip-path">
      <rect id="Rectángulo_403715" data-name="Rectángulo 403715" width="610" height="407.146" fill="none"/>
    </clipPath>
  </defs>
  <rect id="Rectángulo_403710" data-name="Rectángulo 403710" width="178.946" height="136.501" transform="translate(431.054 116.926)" fill="#faecab"/>
  <path id="Trazado_899464" data-name="Trazado 899464" d="M1957,832.314h0Z" transform="translate(-1521.598 -647.137)" fill="#fff"/>
  <rect id="Rectángulo_403711" data-name="Rectángulo 403711" width="170.251" height="1.47" transform="translate(435.401 184.442)" fill="#fff"/>
  <g id="Grupo_1107942" data-name="Grupo 1107942">
    <g id="Grupo_1107941" data-name="Grupo 1107941" clip-path="url(#clip-path)">
      <path id="Trazado_899465" data-name="Trazado 899465" d="M2071.462,536.116c-.089.89,0,128.747,0,128.747Z" transform="translate(-1610.563 -416.839)" fill="#fff"/>
      <path id="Trazado_899466" data-name="Trazado 899466" d="M2068.157,664.607c-.009-13.091-.086-127.92,0-128.821l1.463.146-.731-.073.733.05c-.085,1.726,0,127.427,0,128.7Z" transform="translate(-1607.995 -416.582)" fill="#fff"/>
      <path id="Trazado_899467" data-name="Trazado 899467" d="M2205.512,832.741c-.089.434,0,62.753,0,62.753Z" transform="translate(-1714.79 -647.469)" fill="#fff"/>
      <path id="Trazado_899468" data-name="Trazado 899468" d="M2202.207,894.979c-.041-28.464-.071-62.482.015-62.9l1.439.3-.72-.148.732.067c-.067,1.072-.027,41.472,0,62.685Z" transform="translate(-1712.219 -646.954)" fill="#fff"/>
      <path id="Trazado_899469" data-name="Trazado 899469" d="M2339.563,832.741c-.089.434,0,62.753,0,62.753Z" transform="translate(-1819.017 -647.469)" fill="#fff"/>
      <path id="Trazado_899470" data-name="Trazado 899470" d="M2336.257,894.979c-.041-28.464-.071-62.482.015-62.9l1.439.3-.72-.148.732.067c-.067,1.072-.028,41.472,0,62.685Z" transform="translate(-1816.446 -646.954)" fill="#fff"/>
      <path id="Trazado_899471" data-name="Trazado 899471" d="M2473.615,832.741c-.089.434,0,62.753,0,62.753Z" transform="translate(-1923.244 -647.469)" fill="#fff"/>
      <path id="Trazado_899472" data-name="Trazado 899472" d="M2470.31,894.979c-.041-28.464-.071-62.482.015-62.9l1.44.3-.72-.148.732.067c-.066,1.072-.027,41.472,0,62.685Z" transform="translate(-1920.673 -646.954)" fill="#fff"/>
      <path id="Trazado_899473" data-name="Trazado 899473" d="M2607.666,832.741c-.089.434,0,62.753,0,62.753Z" transform="translate(-2027.47 -647.469)" fill="#fff"/>
      <path id="Trazado_899474" data-name="Trazado 899474" d="M2604.359,894.979c-.041-28.464-.071-62.482.015-62.9l1.439.3-.72-.148.732.067c-.067,1.072-.027,41.472,0,62.685Z" transform="translate(-2024.899 -646.954)" fill="#fff"/>
      <path id="Trazado_899475" data-name="Trazado 899475" d="M2680.029,301.189c-2.471,3.141-3.111,6.76-1.429,8.084s5.049-.15,7.521-3.29,3.111-6.76,1.429-8.084-5.049.15-7.521,3.29" transform="translate(-2081.924 -231.243)" fill="#fff"/>
      <path id="Trazado_899476" data-name="Trazado 899476" d="M2678.414,308.533a2.9,2.9,0,0,1-1.832-.593c-.962-.758-1.325-2.118-1.022-3.831a12.586,12.586,0,0,1,6.615-8.406c1.594-.7,3-.664,3.964.093s1.325,2.118,1.022,3.831a12.586,12.586,0,0,1-6.615,8.406,5.38,5.38,0,0,1-2.131.5m5.887-12.35a4.414,4.414,0,0,0-1.734.418,11.618,11.618,0,0,0-6.043,7.68c-.237,1.34,0,2.366.663,2.889a2.905,2.905,0,0,0,2.966-.034,11.622,11.622,0,0,0,6.042-7.68,2.9,2.9,0,0,0-.663-2.889,1.944,1.944,0,0,0-1.231-.384m-5.987,3.289h0Z" transform="translate(-2080.209 -229.525)"/>
      <path id="Trazado_899477" data-name="Trazado 899477" d="M2631.444,301.189c2.471,3.141,3.112,6.76,1.429,8.084s-5.049-.15-7.521-3.29-3.111-6.76-1.43-8.084,5.049.15,7.521,3.29" transform="translate(-2039.412 -231.243)" fill="#fff"/>
      <path id="Trazado_899478" data-name="Trazado 899478" d="M2629.628,308.532a5.383,5.383,0,0,1-2.131-.5,12.585,12.585,0,0,1-6.615-8.406c-.3-1.713.061-3.073,1.023-3.831s2.369-.79,3.963-.093a12.584,12.584,0,0,1,6.615,8.406c.3,1.713-.06,3.073-1.022,3.831a2.9,2.9,0,0,1-1.833.593m-5.886-12.351a1.942,1.942,0,0,0-1.231.384c-.665.523-.9,1.549-.664,2.889a11.618,11.618,0,0,0,6.043,7.68,2.362,2.362,0,0,0,3.628-2.855,10.569,10.569,0,0,0-2.175-4.506h0a10.569,10.569,0,0,0-3.867-3.174,4.412,4.412,0,0,0-1.734-.418" transform="translate(-2037.696 -229.524)"/>
      <path id="Trazado_899479" data-name="Trazado 899479" d="M2680.029,248.591c-2.471,3.141-3.111,6.76-1.429,8.084s5.049-.15,7.521-3.291,3.111-6.76,1.429-8.083-5.049.149-7.521,3.29" transform="translate(-2081.924 -190.347)" fill="#fff"/>
      <path id="Trazado_899480" data-name="Trazado 899480" d="M2678.418,255.935a2.9,2.9,0,0,1-1.837-.592c-.962-.757-1.325-2.118-1.022-3.831a11.551,11.551,0,0,1,2.37-4.941h0c2.679-3.4,6.285-4.886,8.209-3.373s1.332,5.367-1.347,8.772c-1.969,2.5-4.437,3.965-6.372,3.965m.28-8.759a10.563,10.563,0,0,0-2.175,4.506c-.237,1.341,0,2.367.663,2.89,1.443,1.135,4.572-.335,6.833-3.208s2.953-6.261,1.511-7.4-4.571.334-6.833,3.208" transform="translate(-2080.208 -188.63)"/>
      <path id="Trazado_899481" data-name="Trazado 899481" d="M2631.444,248.591c2.471,3.141,3.112,6.76,1.429,8.084s-5.049-.15-7.521-3.291-3.111-6.76-1.43-8.083,5.049.149,7.521,3.29" transform="translate(-2039.412 -190.347)" fill="#fff"/>
      <path id="Trazado_899482" data-name="Trazado 899482" d="M2629.616,255.935c-1.934,0-4.4-1.463-6.371-3.965-2.68-3.4-3.271-7.258-1.348-8.772s5.53-.032,8.209,3.373h0a11.555,11.555,0,0,1,2.37,4.941c.3,1.713-.06,3.073-1.023,3.831a2.9,2.9,0,0,1-1.837.592m-5.88-12.351a1.946,1.946,0,0,0-1.232.384c-1.442,1.135-.75,4.522,1.511,7.4s5.391,4.344,6.833,3.208c.665-.523.9-1.549.663-2.89a10.57,10.57,0,0,0-2.175-4.506c-1.741-2.213-4-3.592-5.6-3.592" transform="translate(-2037.689 -188.63)"/>
      <path id="Trazado_899483" data-name="Trazado 899483" d="M2680.029,195.993c-2.471,3.141-3.111,6.76-1.429,8.084s5.049-.149,7.521-3.291,3.111-6.76,1.429-8.084-5.049.15-7.521,3.29" transform="translate(-2081.924 -149.451)" fill="#fff"/>
      <path id="Trazado_899484" data-name="Trazado 899484" d="M2678.411,203.337a2.906,2.906,0,0,1-1.838-.593c-1.924-1.514-1.332-5.367,1.348-8.772s6.285-4.886,8.208-3.373,1.332,5.367-1.347,8.772c-1.969,2.5-4.437,3.965-6.372,3.965m.28-8.759c-2.261,2.874-2.953,6.261-1.511,7.4s4.571-.335,6.833-3.208,2.954-6.261,1.511-7.4-4.571.335-6.833,3.208" transform="translate(-2080.201 -147.734)"/>
      <path id="Trazado_899485" data-name="Trazado 899485" d="M2631.444,195.993c2.471,3.141,3.112,6.76,1.429,8.084s-5.049-.149-7.521-3.291-3.111-6.76-1.43-8.084,5.049.15,7.521,3.29" transform="translate(-2039.412 -149.451)" fill="#fff"/>
      <path id="Trazado_899486" data-name="Trazado 899486" d="M2629.624,203.337c-1.934,0-4.4-1.463-6.372-3.965a11.553,11.553,0,0,1-2.37-4.941c-.3-1.713.06-3.073,1.022-3.831,1.924-1.514,5.529-.032,8.209,3.373s3.271,7.258,1.347,8.772a2.9,2.9,0,0,1-1.837.592m-5.881-12.351a1.948,1.948,0,0,0-1.233.384c-.665.523-.9,1.549-.663,2.89a10.569,10.569,0,0,0,2.175,4.506c2.262,2.874,5.39,4.344,6.833,3.208s.75-4.522-1.511-7.4c-1.742-2.213-4-3.592-5.6-3.592" transform="translate(-2037.697 -147.734)"/>
      <path id="Trazado_899487" data-name="Trazado 899487" d="M2657.279,143.493c0,4.012,1.731,7.265,3.866,7.265s3.866-3.253,3.866-7.265-1.73-7.265-3.866-7.265-3.866,3.253-3.866,7.265" transform="translate(-2066.076 -105.919)" fill="#fff"/>
      <path id="Trazado_899488" data-name="Trazado 899488" d="M2659.432,149.536c-2.443,0-4.356-3.406-4.356-7.755s1.913-7.756,4.356-7.756,4.356,3.407,4.356,7.756-1.914,7.755-4.356,7.755m0-14.531c-1.83,0-3.376,3.1-3.376,6.776s1.546,6.775,3.376,6.775,3.376-3.1,3.376-6.775-1.546-6.776-3.376-6.776" transform="translate(-2064.363 -104.207)"/>
      <path id="Trazado_899489" data-name="Trazado 899489" d="M2672.944,455.433a.49.49,0,0,1-.49-.49V376.886a.49.49,0,1,1,.979,0v78.057a.49.49,0,0,1-.49.49" transform="translate(-2077.875 -292.654)"/>
      <path id="Trazado_899490" data-name="Trazado 899490" d="M2618.907,488.942l-8.827-68.818s-8.682,51.528,8.827,68.818" transform="translate(-2027.705 -326.653)" fill="#fff"/>
      <path id="Trazado_899491" data-name="Trazado 899491" d="M2617.2,487.72a.491.491,0,0,1-.345-.141c-7.357-7.266-11.1-21.141-11.125-41.241a189.344,189.344,0,0,1,2.159-28.007.49.49,0,0,1,.483-.408h.01a.489.489,0,0,1,.476.428l8.827,68.818a.489.489,0,0,1-.485.552m-8.855-65.668c-1.515,11.642-5.095,48.679,8.177,63.746Z" transform="translate(-2025.993 -324.941)"/>
      <path id="Trazado_899492" data-name="Trazado 899492" d="M2467.409,301.189c-2.471,3.141-3.112,6.76-1.429,8.084s5.05-.15,7.521-3.29,3.112-6.76,1.429-8.084-5.049.15-7.521,3.29" transform="translate(-1916.608 -231.243)" fill="#fff"/>
      <path id="Trazado_899493" data-name="Trazado 899493" d="M2465.794,308.533a2.9,2.9,0,0,1-1.833-.593c-.962-.758-1.325-2.118-1.022-3.831a12.588,12.588,0,0,1,6.615-8.406c1.594-.7,3-.664,3.964.093s1.325,2.118,1.022,3.831a12.587,12.587,0,0,1-6.615,8.406,5.379,5.379,0,0,1-2.131.5m5.886-12.35a4.416,4.416,0,0,0-1.734.418,10.572,10.572,0,0,0-3.867,3.174h0a10.576,10.576,0,0,0-2.175,4.506,2.362,2.362,0,0,0,3.629,2.855,11.622,11.622,0,0,0,6.043-7.68,2.905,2.905,0,0,0-.663-2.889,1.944,1.944,0,0,0-1.232-.384m-5.986,3.289h0Z" transform="translate(-1914.893 -229.525)"/>
      <path id="Trazado_899494" data-name="Trazado 899494" d="M2418.823,301.189c2.472,3.141,3.112,6.76,1.43,8.084s-5.05-.15-7.521-3.29-3.112-6.76-1.43-8.084,5.049.15,7.521,3.29" transform="translate(-1874.095 -231.243)" fill="#fff"/>
      <path id="Trazado_899495" data-name="Trazado 899495" d="M2417.008,308.532a5.382,5.382,0,0,1-2.131-.5,12.584,12.584,0,0,1-6.615-8.406c-.3-1.713.06-3.073,1.022-3.831s2.37-.79,3.964-.093a12.584,12.584,0,0,1,6.615,8.406c.3,1.713-.061,3.073-1.023,3.831a2.9,2.9,0,0,1-1.832.593m-5.887-12.351a1.942,1.942,0,0,0-1.231.384c-.665.523-.9,1.549-.664,2.889a11.619,11.619,0,0,0,6.043,7.68c1.247.546,2.3.558,2.964.034s.9-1.549.664-2.889a10.572,10.572,0,0,0-2.175-4.506h0a10.568,10.568,0,0,0-3.868-3.174,4.412,4.412,0,0,0-1.734-.418" transform="translate(-1872.38 -229.524)"/>
      <path id="Trazado_899496" data-name="Trazado 899496" d="M2467.409,248.591c-2.471,3.141-3.112,6.76-1.429,8.084s5.05-.15,7.521-3.291,3.112-6.76,1.429-8.083-5.049.149-7.521,3.29" transform="translate(-1916.608 -190.347)" fill="#fff"/>
      <path id="Trazado_899497" data-name="Trazado 899497" d="M2465.791,255.935a2.9,2.9,0,0,1-1.837-.592c-1.924-1.514-1.332-5.367,1.348-8.772h0c2.679-3.4,6.284-4.886,8.208-3.373s1.332,5.367-1.348,8.772c-1.968,2.5-4.437,3.965-6.371,3.965m.28-8.759c-2.262,2.874-2.954,6.261-1.512,7.4s4.571-.334,6.833-3.208,2.954-6.261,1.511-7.4-4.571.334-6.833,3.208" transform="translate(-1914.885 -188.63)"/>
      <path id="Trazado_899498" data-name="Trazado 899498" d="M2418.823,248.591c2.472,3.141,3.112,6.76,1.43,8.084s-5.05-.15-7.521-3.291-3.112-6.76-1.43-8.083,5.049.149,7.521,3.29" transform="translate(-1874.095 -190.347)" fill="#fff"/>
      <path id="Trazado_899499" data-name="Trazado 899499" d="M2417,255.936c-1.934,0-4.4-1.463-6.371-3.965-2.679-3.4-3.271-7.258-1.348-8.772s5.53-.033,8.208,3.373h0a11.552,11.552,0,0,1,2.37,4.941c.3,1.713-.06,3.073-1.022,3.831a2.9,2.9,0,0,1-1.837.593m-5.881-12.351a1.948,1.948,0,0,0-1.232.384c-1.442,1.135-.75,4.522,1.512,7.4s5.392,4.344,6.833,3.208c.665-.523.9-1.549.663-2.89a10.57,10.57,0,0,0-2.175-4.506c-1.741-2.213-4-3.592-5.6-3.592" transform="translate(-1872.373 -188.631)"/>
      <path id="Trazado_899500" data-name="Trazado 899500" d="M2467.409,195.993c-2.471,3.141-3.112,6.76-1.429,8.084s5.05-.149,7.521-3.291,3.112-6.76,1.429-8.084-5.049.15-7.521,3.29" transform="translate(-1916.608 -149.451)" fill="#fff"/>
      <path id="Trazado_899501" data-name="Trazado 899501" d="M2465.791,203.337a2.9,2.9,0,0,1-1.837-.592c-1.924-1.514-1.332-5.367,1.348-8.772s6.285-4.886,8.208-3.373c.962.757,1.325,2.118,1.023,3.83a11.561,11.561,0,0,1-2.37,4.941c-1.969,2.5-4.437,3.965-6.372,3.965m5.881-12.351c-1.6,0-3.859,1.38-5.6,3.592-2.261,2.874-2.953,6.261-1.512,7.4s4.571-.335,6.833-3.208a10.574,10.574,0,0,0,2.175-4.506c.237-1.341,0-2.367-.663-2.89a1.948,1.948,0,0,0-1.232-.384" transform="translate(-1914.885 -147.734)"/>
      <path id="Trazado_899502" data-name="Trazado 899502" d="M2418.823,195.993c2.472,3.141,3.112,6.76,1.43,8.084s-5.05-.149-7.521-3.291-3.112-6.76-1.43-8.084,5.049.15,7.521,3.29" transform="translate(-1874.095 -149.451)" fill="#fff"/>
      <path id="Trazado_899503" data-name="Trazado 899503" d="M2417,203.338c-1.934,0-4.4-1.463-6.371-3.965a11.548,11.548,0,0,1-2.37-4.941c-.3-1.713.06-3.073,1.022-3.831,1.924-1.513,5.53-.032,8.209,3.373s3.271,7.258,1.348,8.772a2.907,2.907,0,0,1-1.838.592m-5.881-12.351a1.947,1.947,0,0,0-1.232.384,2.907,2.907,0,0,0-.664,2.89,10.574,10.574,0,0,0,2.176,4.506c2.262,2.874,5.391,4.344,6.832,3.208s.75-4.522-1.511-7.4c-1.741-2.213-4-3.592-5.6-3.592" transform="translate(-1872.38 -147.735)"/>
      <path id="Trazado_899504" data-name="Trazado 899504" d="M2444.658,143.493c0,4.012,1.731,7.265,3.866,7.265s3.866-3.253,3.866-7.265-1.731-7.265-3.866-7.265-3.866,3.253-3.866,7.265" transform="translate(-1900.76 -105.919)" fill="#fff"/>
      <path id="Trazado_899505" data-name="Trazado 899505" d="M2446.812,149.536c-2.443,0-4.356-3.406-4.356-7.755s1.913-7.756,4.356-7.756,4.356,3.407,4.356,7.756-1.913,7.755-4.356,7.755m0-14.531c-1.83,0-3.376,3.1-3.376,6.776s1.546,6.775,3.376,6.775,3.376-3.1,3.376-6.775-1.546-6.776-3.376-6.776" transform="translate(-1899.048 -104.207)"/>
      <path id="Trazado_899506" data-name="Trazado 899506" d="M2460.323,455.433a.49.49,0,0,1-.49-.49V376.886a.49.49,0,0,1,.98,0v78.057a.49.49,0,0,1-.49.49" transform="translate(-1912.559 -292.654)"/>
      <path id="Trazado_899507" data-name="Trazado 899507" d="M2406.287,488.942l-8.827-68.818s-8.682,51.528,8.827,68.818" transform="translate(-1862.389 -326.653)" fill="#fff"/>
      <path id="Trazado_899508" data-name="Trazado 899508" d="M2404.574,487.72a.49.49,0,0,1-.344-.141c-7.358-7.266-11.1-21.142-11.125-41.241a189.373,189.373,0,0,1,2.159-28.007.509.509,0,0,1,.493-.409.49.49,0,0,1,.476.428l8.828,68.818a.489.489,0,0,1-.486.552m-8.855-65.668c-1.515,11.642-5.095,48.679,8.177,63.747Z" transform="translate(-1860.676 -324.941)"/>
      <path id="Trazado_899509" data-name="Trazado 899509" d="M2254.789,301.189c-2.472,3.141-3.112,6.76-1.43,8.084s5.049-.15,7.521-3.29,3.112-6.76,1.43-8.084-5.049.15-7.521,3.29" transform="translate(-1751.292 -231.243)" fill="#fff"/>
      <path id="Trazado_899510" data-name="Trazado 899510" d="M2253.174,308.533a2.9,2.9,0,0,1-1.833-.593c-.962-.758-1.325-2.118-1.022-3.831a12.586,12.586,0,0,1,6.615-8.406c1.594-.7,3-.664,3.964.093s1.326,2.118,1.022,3.831a12.584,12.584,0,0,1-6.615,8.406,5.38,5.38,0,0,1-2.131.5m5.886-12.35a4.415,4.415,0,0,0-1.734.418,10.575,10.575,0,0,0-3.868,3.174h0a10.564,10.564,0,0,0-2.175,4.506c-.237,1.34,0,2.366.663,2.889a2.9,2.9,0,0,0,2.965-.034,11.624,11.624,0,0,0,6.043-7.68,2.906,2.906,0,0,0-.663-2.889,1.944,1.944,0,0,0-1.232-.384m-5.987,3.289h0Z" transform="translate(-1749.577 -229.525)"/>
      <path id="Trazado_899511" data-name="Trazado 899511" d="M2206.2,301.189c2.472,3.141,3.112,6.76,1.429,8.084s-5.049-.15-7.521-3.29-3.112-6.76-1.43-8.084,5.05.15,7.521,3.29" transform="translate(-1708.78 -231.243)" fill="#fff"/>
      <path id="Trazado_899512" data-name="Trazado 899512" d="M2204.387,308.532a5.382,5.382,0,0,1-2.131-.5,12.584,12.584,0,0,1-6.615-8.406c-.3-1.713.06-3.073,1.022-3.831s2.37-.79,3.964-.093a12.585,12.585,0,0,1,6.615,8.406c.3,1.713-.06,3.073-1.022,3.831a2.9,2.9,0,0,1-1.833.593m-5.887-12.351a1.941,1.941,0,0,0-1.231.384c-.665.523-.9,1.549-.664,2.889a11.618,11.618,0,0,0,6.043,7.68,2.9,2.9,0,0,0,2.965.034c.665-.523.9-1.549.664-2.889a10.57,10.57,0,0,0-2.176-4.506h0a10.565,10.565,0,0,0-3.867-3.174,4.415,4.415,0,0,0-1.734-.418" transform="translate(-1707.065 -229.524)"/>
      <path id="Trazado_899513" data-name="Trazado 899513" d="M2254.789,248.591c-2.472,3.141-3.112,6.76-1.43,8.084s5.049-.15,7.521-3.291,3.112-6.76,1.43-8.083-5.049.149-7.521,3.29" transform="translate(-1751.292 -190.347)" fill="#fff"/>
      <path id="Trazado_899514" data-name="Trazado 899514" d="M2253.178,255.936a2.9,2.9,0,0,1-1.837-.592c-.962-.757-1.326-2.118-1.022-3.831a11.554,11.554,0,0,1,2.37-4.941h0c2.68-3.4,6.286-4.885,8.209-3.373s1.332,5.367-1.348,8.772c-1.969,2.5-4.437,3.965-6.372,3.965m.28-8.759a10.572,10.572,0,0,0-2.175,4.506c-.237,1.341,0,2.367.663,2.89,1.442,1.135,4.571-.334,6.833-3.208s2.954-6.261,1.512-7.4-4.572.334-6.833,3.208" transform="translate(-1749.577 -188.631)"/>
      <path id="Trazado_899515" data-name="Trazado 899515" d="M2206.2,248.591c2.472,3.141,3.112,6.76,1.429,8.084s-5.049-.15-7.521-3.291-3.112-6.76-1.43-8.083,5.05.149,7.521,3.29" transform="translate(-1708.78 -190.347)" fill="#fff"/>
      <path id="Trazado_899516" data-name="Trazado 899516" d="M2204.375,255.935c-1.934,0-4.4-1.463-6.372-3.965-2.679-3.4-3.271-7.258-1.348-8.772s5.53-.032,8.209,3.373h0a11.554,11.554,0,0,1,2.369,4.941c.3,1.713-.06,3.073-1.022,3.831a2.905,2.905,0,0,1-1.837.592m-5.881-12.351a1.946,1.946,0,0,0-1.232.384c-1.442,1.135-.75,4.522,1.512,7.4s5.39,4.344,6.833,3.208c.665-.523.9-1.549.663-2.89a10.565,10.565,0,0,0-2.175-4.506c-1.741-2.213-4-3.592-5.6-3.592" transform="translate(-1707.058 -188.63)"/>
      <path id="Trazado_899517" data-name="Trazado 899517" d="M2254.789,195.993c-2.472,3.141-3.112,6.76-1.43,8.084s5.049-.149,7.521-3.291,3.112-6.76,1.43-8.084-5.049.15-7.521,3.29" transform="translate(-1751.292 -149.451)" fill="#fff"/>
      <path id="Trazado_899518" data-name="Trazado 899518" d="M2253.171,203.34a2.9,2.9,0,0,1-1.837-.592c-1.924-1.514-1.332-5.367,1.347-8.772s6.286-4.885,8.209-3.373c.962.757,1.325,2.118,1.022,3.831a11.555,11.555,0,0,1-2.369,4.941c-1.969,2.5-4.437,3.965-6.372,3.965m5.881-12.351c-1.6,0-3.859,1.38-5.6,3.592-2.261,2.874-2.953,6.261-1.511,7.4s4.571-.335,6.833-3.208a10.572,10.572,0,0,0,2.175-4.506c.237-1.341,0-2.367-.663-2.89a1.947,1.947,0,0,0-1.232-.384" transform="translate(-1749.57 -147.736)"/>
      <path id="Trazado_899519" data-name="Trazado 899519" d="M2206.2,195.993c2.472,3.141,3.112,6.76,1.429,8.084s-5.049-.149-7.521-3.291-3.112-6.76-1.43-8.084,5.05.15,7.521,3.29" transform="translate(-1708.78 -149.451)" fill="#fff"/>
      <path id="Trazado_899520" data-name="Trazado 899520" d="M2204.383,203.337c-1.935,0-4.4-1.463-6.372-3.965a11.553,11.553,0,0,1-2.37-4.941c-.3-1.713.06-3.073,1.022-3.831,1.924-1.514,5.53-.032,8.209,3.373s3.271,7.258,1.348,8.772a2.905,2.905,0,0,1-1.837.592m-5.881-12.351a1.946,1.946,0,0,0-1.232.384c-.665.523-.9,1.549-.664,2.89a10.572,10.572,0,0,0,2.175,4.506c2.262,2.874,5.39,4.344,6.833,3.208s.75-4.522-1.512-7.4c-1.741-2.213-4-3.592-5.6-3.592" transform="translate(-1707.065 -147.734)"/>
      <path id="Trazado_899521" data-name="Trazado 899521" d="M2232.038,143.493c0,4.012,1.731,7.265,3.866,7.265s3.866-3.253,3.866-7.265-1.731-7.265-3.866-7.265-3.866,3.253-3.866,7.265" transform="translate(-1735.444 -105.919)" fill="#fff"/>
      <path id="Trazado_899522" data-name="Trazado 899522" d="M2234.192,149.536c-2.443,0-4.356-3.406-4.356-7.755s1.913-7.756,4.356-7.756,4.356,3.407,4.356,7.756-1.913,7.755-4.356,7.755m0-14.531c-1.831,0-3.377,3.1-3.377,6.776s1.546,6.775,3.377,6.775,3.376-3.1,3.376-6.775-1.546-6.776-3.376-6.776" transform="translate(-1733.733 -104.207)"/>
      <path id="Trazado_899523" data-name="Trazado 899523" d="M2247.7,455.433a.49.49,0,0,1-.49-.49V376.886a.49.49,0,1,1,.98,0v78.057a.49.49,0,0,1-.49.49" transform="translate(-1747.244 -292.654)"/>
      <path id="Trazado_899524" data-name="Trazado 899524" d="M2193.667,488.942l-8.828-68.818s-8.682,51.528,8.828,68.818" transform="translate(-1697.073 -326.653)" fill="#fff"/>
      <path id="Trazado_899525" data-name="Trazado 899525" d="M2191.955,487.72a.492.492,0,0,1-.345-.141c-7.358-7.266-11.1-21.142-11.125-41.241a189.372,189.372,0,0,1,2.159-28.007.511.511,0,0,1,.493-.409.489.489,0,0,1,.476.428l8.828,68.818a.49.49,0,0,1-.486.552m-8.855-65.668c-1.515,11.642-5.095,48.679,8.177,63.747Z" transform="translate(-1695.361 -324.941)"/>
      <rect id="Rectángulo_403712" data-name="Rectángulo 403712" width="178.945" height="136.501" transform="translate(0 116.927)" fill="#faecab"/>
      <path id="Trazado_899526" data-name="Trazado 899526" d="M19.539,832.314h0Z" transform="translate(-15.192 -647.137)" fill="#fff"/>
      <rect id="Rectángulo_403713" data-name="Rectángulo 403713" width="170.251" height="1.47" transform="translate(4.347 184.442)" fill="#fff"/>
      <path id="Trazado_899527" data-name="Trazado 899527" d="M670.166,536.116c.089.89,0,128.747,0,128.747Z" transform="translate(-521.065 -416.839)" fill="#fff"/>
      <path id="Trazado_899528" data-name="Trazado 899528" d="M668.333,664.607h-1.47c0-1.27.087-126.97,0-128.7l1.464-.123c.09.9.013,115.73,0,128.821" transform="translate(-518.496 -416.582)" fill="#fff"/>
      <path id="Trazado_899529" data-name="Trazado 899529" d="M536.115,832.741c.089.434,0,62.753,0,62.753Z" transform="translate(-416.838 -647.469)" fill="#fff"/>
      <path id="Trazado_899530" data-name="Trazado 899530" d="M534.282,894.979l-1.47,0c.03-21.213.07-61.613,0-62.685l.582-.036.869-.178c.086.419.056,34.437.015,62.9" transform="translate(-414.27 -646.954)" fill="#fff"/>
      <path id="Trazado_899531" data-name="Trazado 899531" d="M402.064,832.741c.089.434,0,62.753,0,62.753Z" transform="translate(-312.611 -647.469)" fill="#fff"/>
      <path id="Trazado_899532" data-name="Trazado 899532" d="M400.231,894.979l-1.47,0c.031-21.213.07-61.613,0-62.685l.582-.036.869-.178c.086.419.056,34.437.015,62.9" transform="translate(-310.043 -646.954)" fill="#fff"/>
      <path id="Trazado_899533" data-name="Trazado 899533" d="M268.013,832.741c.089.434,0,62.753,0,62.753Z" transform="translate(-208.384 -647.469)" fill="#fff"/>
      <path id="Trazado_899534" data-name="Trazado 899534" d="M266.179,894.979l-1.47,0c.03-21.213.07-61.613,0-62.685l.582-.036.869-.178c.086.419.056,34.437.015,62.9" transform="translate(-205.815 -646.954)" fill="#fff"/>
      <path id="Trazado_899535" data-name="Trazado 899535" d="M133.962,832.741c.089.434,0,62.753,0,62.753Z" transform="translate(-104.158 -647.469)" fill="#fff"/>
      <path id="Trazado_899536" data-name="Trazado 899536" d="M132.129,894.979l-1.47,0c.03-21.213.07-61.613,0-62.685l.582-.036.869-.178c.086.419.056,34.437.015,62.9" transform="translate(-101.589 -646.954)" fill="#fff"/>
      <path id="Trazado_899537" data-name="Trazado 899537" d="M124.554,339.85s-.592-33.113,44.594-43.209c0,0,5.839,40.092-44.594,43.209" transform="translate(-96.842 -230.643)" fill="#fff"/>
      <path id="Trazado_899538" data-name="Trazado 899538" d="M122.839,338.626a.491.491,0,0,1-.49-.481c-.006-.343-.087-8.524,5.418-18.072,5.068-8.79,16.044-20.37,39.559-25.624a.49.49,0,0,1,.592.407c.022.155,2.129,15.566-7.972,28-7.649,9.415-20.123,14.72-37.077,15.768h-.03m44.168-43.1c-22.771,5.223-33.428,16.453-38.363,24.988a38.817,38.817,0,0,0-5.3,17.1c16.391-1.106,28.447-6.274,35.837-15.363,8.789-10.81,8.092-23.949,7.83-26.723" transform="translate(-95.128 -228.929)"/>
      <path id="Trazado_899539" data-name="Trazado 899539" d="M117.442,390.5a.49.49,0,0,1-.413-.753,88.208,88.208,0,0,1,35.8-31.989.49.49,0,1,1,.43.88,87.237,87.237,0,0,0-35.4,31.633.489.489,0,0,1-.414.227" transform="translate(-90.933 -278.123)"/>
      <path id="Trazado_899540" data-name="Trazado 899540" d="M31.311,257.195s19.161-26.867,7.25-65.369c0,0-46.79,23.485-7.25,65.369" transform="translate(-12.003 -149.148)" fill="#fff"/>
      <path id="Trazado_899541" data-name="Trazado 899541" d="M29.592,255.973a.489.489,0,0,1-.356-.154c-12.426-13.163-17.66-25.892-15.555-37.834,3.211-18.214,22.744-28.21,22.941-28.309a.49.49,0,0,1,.688.293,82.666,82.666,0,0,1,.845,47.4,65.9,65.9,0,0,1-8.164,18.4.49.49,0,0,1-.365.2h-.033m6.956-65.145c-3.085,1.705-19.071,11.251-21.9,27.334-2.022,11.484,2.984,23.774,14.883,36.537a67.6,67.6,0,0,0,7.7-17.638,81.622,81.622,0,0,0-.677-46.233" transform="translate(-10.285 -147.436)"/>
      <path id="Trazado_899542" data-name="Trazado 899542" d="M96.275,373.419a.49.49,0,0,1-.438-.268c-14.71-29.018-18.628-55.163-19.325-71.985-.755-18.244,2.013-29.79,2.041-29.9a.49.49,0,1,1,.952.234c-.028.113-2.767,11.556-2.012,29.673.7,16.716,4.6,42.7,19.218,71.541a.49.49,0,0,1-.215.658.483.483,0,0,1-.221.053" transform="translate(-59.389 -210.619)"/>
      <path id="Trazado_899543" data-name="Trazado 899543" d="M174.051,187.029s-4.971-24.621,27.356-38.346c0,0,9.84,29.108-27.356,38.346" transform="translate(-135.113 -115.603)" fill="#fff"/>
      <path id="Trazado_899544" data-name="Trazado 899544" d="M172.314,185.808a.491.491,0,0,1-.48-.393,28.966,28.966,0,0,1,1.574-14.287c2.586-7.274,9.207-17.448,26.071-24.608a.49.49,0,0,1,.656.294c.038.112,3.734,11.368-2.124,22.074-4.434,8.1-13.04,13.79-25.578,16.905a.5.5,0,0,1-.118.014m27.042-38.169c-16.162,7.007-22.532,16.8-25.026,23.817a29.387,29.387,0,0,0-1.616,13.255c11.98-3.071,20.2-8.551,24.436-16.294,4.955-9.056,2.831-18.508,2.206-20.779" transform="translate(-133.376 -113.892)"/>
      <path id="Trazado_899545" data-name="Trazado 899545" d="M170.918,229.548a.49.49,0,0,1-.454-.674,67.056,67.056,0,0,1,22.37-28.822.49.49,0,1,1,.581.788,66.082,66.082,0,0,0-22.043,28.4.489.489,0,0,1-.454.306" transform="translate(-132.511 -155.469)"/>
      <path id="Trazado_899546" data-name="Trazado 899546" d="M490.167,339.85s-.592-33.113,44.595-43.209c0,0,5.838,40.092-44.595,43.209" transform="translate(-381.112 -230.643)" fill="#fff"/>
      <path id="Trazado_899547" data-name="Trazado 899547" d="M488.453,338.626a.491.491,0,0,1-.49-.481c-.006-.343-.087-8.524,5.418-18.072,5.067-8.79,16.044-20.37,39.559-25.624a.49.49,0,0,1,.592.407c.022.155,2.129,15.566-7.972,28-7.649,9.415-20.123,14.72-37.077,15.768h-.03m44.168-43.1c-22.771,5.223-33.428,16.453-38.363,24.988a38.817,38.817,0,0,0-5.3,17.1c16.391-1.106,28.447-6.274,35.837-15.363,8.789-10.81,8.092-23.949,7.83-26.723" transform="translate(-379.399 -228.929)"/>
      <path id="Trazado_899548" data-name="Trazado 899548" d="M483.056,390.5a.49.49,0,0,1-.413-.753,88.209,88.209,0,0,1,35.8-31.989.49.49,0,1,1,.43.88,87.236,87.236,0,0,0-35.4,31.633.489.489,0,0,1-.414.227" transform="translate(-375.203 -278.122)"/>
      <path id="Trazado_899549" data-name="Trazado 899549" d="M396.925,257.195s19.161-26.867,7.25-65.369c0,0-46.79,23.485-7.25,65.369" transform="translate(-296.274 -149.148)" fill="#fff"/>
      <path id="Trazado_899550" data-name="Trazado 899550" d="M395.206,255.973a.489.489,0,0,1-.356-.154c-12.426-13.163-17.66-25.892-15.555-37.834,3.211-18.214,22.744-28.21,22.941-28.309a.49.49,0,0,1,.688.293,82.667,82.667,0,0,1,.845,47.4,65.9,65.9,0,0,1-8.164,18.4.49.49,0,0,1-.365.2h-.033m6.956-65.145c-3.085,1.705-19.071,11.251-21.9,27.334-2.022,11.484,2.984,23.774,14.883,36.537a67.6,67.6,0,0,0,7.7-17.638,81.622,81.622,0,0,0-.677-46.233" transform="translate(-294.555 -147.436)"/>
      <path id="Trazado_899551" data-name="Trazado 899551" d="M461.889,373.419a.49.49,0,0,1-.438-.268c-14.71-29.018-18.628-55.163-19.325-71.985-.755-18.244,2.013-29.79,2.041-29.9a.49.49,0,1,1,.952.234c-.028.113-2.767,11.556-2.012,29.673.7,16.716,4.6,42.7,19.218,71.541a.49.49,0,0,1-.216.658.482.482,0,0,1-.221.053" transform="translate(-343.659 -210.619)"/>
      <path id="Trazado_899552" data-name="Trazado 899552" d="M539.665,187.029s-4.972-24.621,27.356-38.346c0,0,9.841,29.108-27.356,38.346" transform="translate(-419.384 -115.603)" fill="#fff"/>
      <path id="Trazado_899553" data-name="Trazado 899553" d="M537.928,185.808a.491.491,0,0,1-.48-.393,28.966,28.966,0,0,1,1.574-14.287c2.586-7.274,9.208-17.448,26.071-24.608a.49.49,0,0,1,.656.294c.038.112,3.734,11.368-2.124,22.074-4.434,8.1-13.04,13.79-25.578,16.905a.5.5,0,0,1-.118.014m27.042-38.169c-16.162,7.007-22.532,16.8-25.026,23.817a29.387,29.387,0,0,0-1.616,13.255c11.98-3.071,20.2-8.551,24.436-16.294,4.955-9.056,2.831-18.508,2.206-20.779" transform="translate(-417.647 -113.892)"/>
      <path id="Trazado_899554" data-name="Trazado 899554" d="M536.532,229.548a.49.49,0,0,1-.454-.674,67.057,67.057,0,0,1,22.37-28.822.49.49,0,1,1,.581.788,66.081,66.081,0,0,0-22.043,28.4.489.489,0,0,1-.454.306" transform="translate(-416.781 -155.469)"/>
      <path id="Trazado_899555" data-name="Trazado 899555" d="M896.326,810.962c-8.553-42.488-23.229-95.363-48.223-144.8a69.966,69.966,0,0,0-62.463-38.32H582.795A69.84,69.84,0,0,0,520.43,665.97c-34.8,68.751-39.421,144.194-38.31,189.112A41.245,41.245,0,0,0,523.356,895.3l10.335-12.276,42.774-34.049V895.3H798.132V837.6l9.8,16.491c21.865,36.789,77.785,28.9,87.85-12.694a70.13,70.13,0,0,0,.543-30.433" transform="translate(-374.744 -488.159)" fill="#87ab3a"/>
      <rect id="Rectángulo_403714" data-name="Rectángulo 403714" width="55.543" height="37.019" transform="translate(281.702 102.666)" fill="#fff"/>
      <path id="Trazado_899556" data-name="Trazado 899556" d="M1320,497.249h-55.543a.49.49,0,0,1-.49-.49V459.74a.49.49,0,0,1,.49-.49H1320a.49.49,0,0,1,.49.49v37.019a.49.49,0,0,1-.49.49m-55.053-.98h54.563V460.23h-54.563Z" transform="translate(-982.751 -357.074)"/>
      <path id="Trazado_899557" data-name="Trazado 899557" d="M1292.468,567.681l-9-21.227-30.5,10.761-30.5-10.761-9,21.227,24.905,24.375,14.588-19.863,14.588,19.863Z" transform="translate(-943.501 -424.876)" fill="#fff"/>
      <path id="Trazado_899558" data-name="Trazado 899558" d="M1217.492,563.458a.49.49,0,0,1-.451-.681l7.723-18.222a.493.493,0,0,1,.614-.271l30.334,10.7,30.334-10.7a.493.493,0,0,1,.614.271l7.674,18.107a.49.49,0,0,1-.9.383l-7.494-17.684-30.062,10.607a.491.491,0,0,1-.326,0l-30.063-10.607-7.543,17.8a.49.49,0,0,1-.452.3" transform="translate(-946.238 -423.168)"/>
      <path id="Trazado_899559" data-name="Trazado 899559" d="M1040.543,722.974h0a.49.49,0,0,1-.486-.493c.159-21.885.475-78.864.047-81.487a.49.49,0,0,1,.443-.7.51.51,0,0,1,.354.148c.249.251.508.511.357,41.416-.073,20.12-.22,40.428-.222,40.63a.49.49,0,0,1-.49.487m0-81.7h0Zm0,0h0Zm-.1-.012a.519.519,0,0,0,.1.012.534.534,0,0,1-.1-.012" transform="translate(-808.658 -497.838)"/>
      <path id="Trazado_899560" data-name="Trazado 899560" d="M1746.959,722.974h0a.49.49,0,0,1-.486-.493c.159-21.885.475-78.864.047-81.487a.49.49,0,0,1,.443-.7.509.509,0,0,1,.354.148c.249.251.508.511.358,41.416-.074,20.12-.22,40.428-.222,40.63a.49.49,0,0,1-.49.487m0-81.7h0Zm0,0h0Zm-.1-.012a.518.518,0,0,0,.1.012.534.534,0,0,1-.1-.012" transform="translate(-1357.907 -497.838)"/>
      <path id="Trazado_899561" data-name="Trazado 899561" d="M839.827,1212.673a.483.483,0,0,1-.1-.011.49.49,0,0,1-.377-.582l18.974-88.592a.49.49,0,0,1,.958.2l-18.974,88.592a.49.49,0,0,1-.479.387" transform="translate(-652.598 -873.228)"/>
      <path id="Trazado_899562" data-name="Trazado 899562" d="M1204.039,1034.854a84.1,84.1,0,1,1-84.1-84.1,84.1,84.1,0,0,1,84.1,84.1" transform="translate(-805.387 -739.229)" fill="#f3d02c"/>
      <path id="Trazado_899563" data-name="Trazado 899563" d="M1192.675,1358.255a63.658,63.658,0,0,1-62.8-73.382.49.49,0,0,1,.969.149,62.67,62.67,0,0,0,69.935,71.735.49.49,0,1,1,.124.972,64.822,64.822,0,0,1-8.229.526" transform="translate(-877.923 -998.685)" fill="#5479f7"/>
      <path id="Trazado_899564" data-name="Trazado 899564" d="M1423.816,1606.432l-.438-.877,5.741-2.87-6.243-1.492.228-.953,8.861,2.117Z" transform="translate(-1106.309 -1244.212)" fill="#5479f7"/>
      <path id="Trazado_899565" data-name="Trazado 899565" d="M1446.838,1117.493a.571.571,0,0,1-.073-.005.49.49,0,0,1-.412-.557,62.67,62.67,0,0,0-70.23-71.448.49.49,0,1,1-.128-.971,63.65,63.65,0,0,1,71.327,72.564.49.49,0,0,1-.484.417" transform="translate(-1069.526 -811.688)" fill="#5479f7"/>
      <path id="Trazado_899566" data-name="Trazado 899566" d="M1373.609,1032.1l.442.875-5.73,2.893,6.249,1.467-.224.953-8.87-2.082Z" transform="translate(-1061.679 -802.475)" fill="#5479f7"/>
      <path id="Trazado_899567" data-name="Trazado 899567" d="M841.915,1474.519a47.1,47.1,0,0,1,50.843,5.9l11.558,9.541a27.04,27.04,0,0,0,14.463,6.047l2.5.255a5.106,5.106,0,0,1,4.571,4.685,6.517,6.517,0,0,1-5.834,6.986l-5.243.537a49.135,49.135,0,0,0,18.333,6.095,9.9,9.9,0,0,1,7.665,5.443l.638,1.293,1.753-.212a9.855,9.855,0,0,1,10.016,5.419l.04.082c2.69.078,4.43,3.6,4.43,3.6a7.494,7.494,0,0,1-3.951,10.294c-11.479,4.523-36.648,8.537-74.5-16.939a37.132,37.132,0,0,0-37.177-2.486l-18.5-37.454Z" transform="translate(-640.295 -1142.673)" fill="#fff"/>
      <path id="Trazado_899568" data-name="Trazado 899568" d="M1139.69,1665.089a.49.49,0,0,1-.373-.808,5.4,5.4,0,0,0,.359-5.919,9.786,9.786,0,0,0-4.933-4.111,32.081,32.081,0,0,0-5.458-1.558c-.363-.081-.727-.162-1.089-.245a84.789,84.789,0,0,1-41.075-23.263.49.49,0,0,1,.7-.685,83.8,83.8,0,0,0,40.593,22.993c.36.083.721.163,1.083.243a32.765,32.765,0,0,1,5.624,1.611,10.742,10.742,0,0,1,5.419,4.554,6.4,6.4,0,0,1-.478,7.015.488.488,0,0,1-.373.172" transform="translate(-845.146 -1266.071)"/>
      <path id="Trazado_899569" data-name="Trazado 899569" d="M1160.7,1644.256c-20.436,0-40.739-8.546-55.817-23.842a.49.49,0,1,1,.7-.688c17.3,17.55,41.556,26.1,64.886,22.881a.49.49,0,0,1,.134.97,72.329,72.329,0,0,1-9.9.678" transform="translate(-858.952 -1259.249)"/>
      <path id="Trazado_899570" data-name="Trazado 899570" d="M1175.161,1629.835c-7.042,0-28.414-1.689-47.843-20.492a.49.49,0,1,1,.681-.7c23.218,22.468,49.2,20.165,49.456,20.141a.49.49,0,0,1,.1.975c-.046,0-.9.081-2.392.081" transform="translate(-876.391 -1250.634)"/>
      <path id="Trazado_899571" data-name="Trazado 899571" d="M1147.07,1577.4a.486.486,0,0,1-.12-.015c-.408-.1-10.165-2.708-24.542-18.906a.49.49,0,0,1,.733-.65c14.178,15.974,23.952,18.582,24.049,18.606a.49.49,0,0,1-.12.965" transform="translate(-872.593 -1211.109)"/>
      <path id="Trazado_899572" data-name="Trazado 899572" d="M960.118,1557.442a39.365,39.365,0,0,1-20.845-5.852.49.49,0,1,1,.521-.83,38.816,38.816,0,0,0,36.06,2.338.49.49,0,1,1,.41.89,38.672,38.672,0,0,1-16.147,3.454" transform="translate(-730.122 -1205.682)"/>
      <path id="Trazado_899573" data-name="Trazado 899573" d="M1898.672,1054.444l-81.21-69.6-20.662,37.437,9.159,10.12,41.62,97.4a32.677,32.677,0,0,0,33.167,19.376,37.993,37.993,0,0,0,17.995-7.076c25.28-17.745,23.54-66.931-.069-87.658" transform="translate(-1397.04 -765.735)" fill="#87ab3a"/>
      <path id="Trazado_899574" data-name="Trazado 899574" d="M1877.873,1294.773a.49.49,0,0,1-.451-.3l-41.62-97.4a.49.49,0,1,1,.9-.385l41.62,97.4a.49.49,0,0,1-.45.682" transform="translate(-1427.335 -930.216)"/>
      <path id="Trazado_899575" data-name="Trazado 899575" d="M1908.152,1067.979a.491.491,0,0,1-.437-.268,48.411,48.411,0,0,0-11.079-14.611l-80.749-69.2-20.371,36.91a.49.49,0,1,1-.858-.474L1815.32,982.9a.49.49,0,0,1,.748-.135l81.21,69.6a49.393,49.393,0,0,1,11.31,14.908.49.49,0,0,1-.436.712" transform="translate(-1395.328 -764.023)"/>
      <path id="Trazado_899576" data-name="Trazado 899576" d="M1822.494,1083.4a.49.49,0,0,1-.436-.266l-3.938-7.686a.49.49,0,0,1,.872-.447l3.76,7.339c23.079-5.944,28.151-31.87,28.2-32.133a.49.49,0,0,1,.964.179c-.05.271-5.3,27.093-29.3,33a.488.488,0,0,1-.117.014" transform="translate(-1413.575 -816.24)"/>
      <path id="Trazado_899577" data-name="Trazado 899577" d="M1420.41,911.208c-18.008-2.1-22.67-10.621-39.1-19.524l-13.271-7.194a27.744,27.744,0,0,0-15.5-3.246l-2.53.21a5.158,5.158,0,0,1-5.419-3.736,6.463,6.463,0,0,1,4.49-7.9l5.11-1.488a50.464,50.464,0,0,0-19.4-2.579,10.039,10.039,0,0,1-8.6-3.909l-.876-1.145-1.7.529a10.066,10.066,0,0,1-10.967-3.451l-.055-.072c-2.688.418-5.076-2.7-5.076-2.7a7.372,7.372,0,0,1,2-10.781c10.561-6.529,32.591-8.724,77.206,2.844,12.608,3.269,33.685,9.856,49.125,24.271.765,13.257-4.293,31.636-15.441,39.87" transform="translate(-1015.429 -652.225)" fill="#fff"/>
      <path id="Trazado_899578" data-name="Trazado 899578" d="M1460.133,868.358a.487.487,0,0,1-.277-.086,85.719,85.719,0,0,0-44.647-14.994c-.372-.014-.745-.026-1.119-.038a33.694,33.694,0,0,1-5.891-.539,10.906,10.906,0,0,1-6.232-3.449,6.283,6.283,0,0,1-.838-6.95.49.49,0,0,1,.847.493,5.29,5.29,0,0,0,.751,5.838,9.943,9.943,0,0,0,5.676,3.11,32.987,32.987,0,0,0,5.72.519c.375.012.75.024,1.125.039a86.716,86.716,0,0,1,45.165,15.165.49.49,0,0,1-.279.894" transform="translate(-1088.856 -654.713)"/>
      <path id="Trazado_899579" data-name="Trazado 899579" d="M1409.226,919.02a.489.489,0,0,1-.276-.085c-20.477-13.962-46.187-17.857-68.772-10.417a.49.49,0,0,1-.307-.931c22.873-7.533,48.9-3.594,69.63,10.538a.49.49,0,0,1-.277.895" transform="translate(-1041.51 -702.743)"/>
      <path id="Trazado_899580" data-name="Trazado 899580" d="M1444.482,941.369a.485.485,0,0,1-.266-.079c-27.3-17.691-52.672-10.65-52.925-10.577a.49.49,0,0,1-.272-.942c.258-.074,26.058-7.235,53.73,10.7a.49.49,0,0,1-.267.9" transform="translate(-1081.264 -721.766)"/>
      <path id="Trazado_899581" data-name="Trazado 899581" d="M1548.573,983.975a.487.487,0,0,1-.3-.1c-17.08-13-27.284-13.747-27.385-13.753a.49.49,0,1,1,.059-.978c.425.025,10.6.775,27.92,13.951a.49.49,0,0,1-.3.88" transform="translate(-1182.159 -753.524)"/>
      <path id="Trazado_899582" data-name="Trazado 899582" d="M1711.239,1006.194a31.662,31.662,0,0,1-25.68-13,.49.49,0,1,1,.8-.563c2.015,2.864,13.15,16.87,34.6,11.279a.49.49,0,0,1,.247.948,39.471,39.471,0,0,1-9.968,1.339" transform="translate(-1310.479 -771.621)"/>
      <path id="Trazado_899583" data-name="Trazado 899583" d="M511.317,927.312,536.6,973.431l-35.9,19.675a55.42,55.42,0,0,1-26.636,6.82,53.222,53.222,0,0,1-52.029-64.47c12.884-59.515,34-143.075,56.333-173.054L503.8,930.495Z" transform="translate(-327.19 -592.78)" fill="#87ab3a"/>
      <path id="Trazado_899584" data-name="Trazado 899584" d="M600.416,1506.822a.489.489,0,0,1-.4-.209l-2.875-4.1-7.155,3.028a.5.5,0,0,1-.191.039H531.909a.49.49,0,0,1,0-.98h57.786l7.428-3.144a.49.49,0,0,1,.592.17l3.1,4.423a.49.49,0,0,1-.12.682.484.484,0,0,1-.281.089" transform="translate(-413.187 -1167.377)"/>
      <path id="Trazado_899585" data-name="Trazado 899585" d="M904.966,1698.582a.49.49,0,0,1-.236-.919l7.261-3.98-2.168-3.954a.49.49,0,1,1,.859-.471l2.4,4.383a.489.489,0,0,1-.194.665l-7.691,4.215a.483.483,0,0,1-.235.06" transform="translate(-703.244 -1313.227)"/>
      <path id="Trazado_899586" data-name="Trazado 899586" d="M828.464,1507.106a.49.49,0,0,1-.43-.255l-2.582-4.708a.49.49,0,1,1,.859-.471l2.581,4.708a.49.49,0,0,1-.429.725" transform="translate(-641.755 -1167.376)"/>
      <path id="Trazado_899587" data-name="Trazado 899587" d="M996.17,976.87a52.671,52.671,0,1,1-74.483.838,52.67,52.67,0,0,1,74.483-.838" transform="translate(-704.956 -747.861)" fill="#fff"/>
      <path id="Trazado_899588" data-name="Trazado 899588" d="M1123.327,1100.251s-5.734-23.3,28.619-42.056c0,0,16.293,46.059-28.619,42.056" transform="translate(-873.125 -822.764)" fill="#f3d02c"/>
      <path id="Trazado_899589" data-name="Trazado 899589" d="M1122.871,1176.047a.49.49,0,0,1-.49-.49v-23.8a.491.491,0,0,1,.048-.213c5.709-11.835,21.439-26.82,21.6-26.969a.49.49,0,0,1,.674.711c-.156.148-15.669,14.926-21.34,26.583v23.686a.49.49,0,0,1-.49.49" transform="translate(-872.669 -874.271)"/>
      <path id="Trazado_899590" data-name="Trazado 899590" d="M991.9,1104.953s28.111,3.64,26.062,27.5c0,0-21.466,12.714-26.062-27.5" transform="translate(-771.221 -859.118)" fill="#f3d02c"/>
      <path id="Trazado_899591" data-name="Trazado 899591" d="M1049.98,1168.792a.49.49,0,0,1-.46-.323c-2.691-7.421-16.087-16.419-16.222-16.509a.49.49,0,1,1,.544-.815c.563.375,13.8,9.269,16.6,16.991a.49.49,0,0,1-.461.657" transform="translate(-803.236 -894.969)"/>
      <path id="Trazado_899592" data-name="Trazado 899592" d="M1546.277,1226.1a52.671,52.671,0,1,1-74.483.839,52.671,52.671,0,0,1,74.483-.839" transform="translate(-1132.672 -941.64)" fill="#fff"/>
      <path id="Trazado_899593" data-name="Trazado 899593" d="M1625.913,1494.378c3.874,4.923,4.878,10.6,2.241,12.671s-7.915-.234-11.789-5.157-4.878-10.6-2.241-12.672,7.915.235,11.789,5.158" transform="translate(-1253.863 -1157.3)" fill="#f3d02c"/>
      <path id="Trazado_899594" data-name="Trazado 899594" d="M1702.072,1494.378c-3.874,4.923-4.877,10.6-2.241,12.671s7.915-.234,11.789-5.157,4.877-10.6,2.241-12.672-7.915.235-11.789,5.158" transform="translate(-1320.502 -1157.3)" fill="#f3d02c"/>
      <path id="Trazado_899595" data-name="Trazado 899595" d="M1625.913,1411.929c3.874,4.923,4.878,10.6,2.241,12.671s-7.915-.234-11.789-5.158-4.878-10.6-2.241-12.671,7.915.234,11.789,5.158" transform="translate(-1253.863 -1093.195)" fill="#f3d02c"/>
      <path id="Trazado_899596" data-name="Trazado 899596" d="M1702.072,1411.929c-3.874,4.923-4.877,10.6-2.241,12.671s7.915-.234,11.789-5.158,4.877-10.6,2.241-12.671-7.915.234-11.789,5.158" transform="translate(-1320.502 -1093.195)" fill="#f3d02c"/>
      <path id="Trazado_899597" data-name="Trazado 899597" d="M1678.531,1327.2c0,6.29-2.713,11.389-6.061,11.389s-6.06-5.1-6.06-11.389,2.713-11.389,6.06-11.389,6.061,5.1,6.061,11.389" transform="translate(-1295.66 -1023.067)" fill="#f3d02c"/>
      <path id="Trazado_899598" data-name="Trazado 899598" d="M1691.937,1600.391a.49.49,0,0,1-.49-.49v-7.163a.49.49,0,1,1,.98,0v7.163a.49.49,0,0,1-.49.49" transform="translate(-1315.127 -1237.998)"/>
      <path id="Trazado_899599" data-name="Trazado 899599" d="M1731.232,1312.681a.49.49,0,0,1-.356-.826c5.221-5.538,7.427-13.689,6.213-22.953a4.722,4.722,0,0,1-.055-.51.49.49,0,0,1,.98,0c0,.06.021.191.047.386,1.254,9.561-1.045,18-6.472,23.751a.488.488,0,0,1-.356.154m6.781-24.288h0Z" transform="translate(-1345.679 -1001.365)"/>
      <path id="Trazado_899600" data-name="Trazado 899600" d="M1779.543,1396.895a.49.49,0,0,1-.356-.826c5.221-5.538,7.427-13.689,6.213-22.953a4.719,4.719,0,0,1-.055-.51.49.49,0,0,1,.98,0c0,.06.021.191.047.386,1.253,9.561-1.045,18-6.472,23.751a.489.489,0,0,1-.357.154m6.781-24.288h0Z" transform="translate(-1383.242 -1066.843)"/>
      <path id="Trazado_899601" data-name="Trazado 899601" d="M1629.071,1312.7a.487.487,0,0,1-.356-.154c-5.427-5.755-7.725-14.19-6.472-23.751.026-.2.044-.328.046-.388a.5.5,0,0,1,.49-.478h.009a.483.483,0,0,1,.48.483,4.731,4.731,0,0,1-.055.51c-1.215,9.264.992,17.415,6.213,22.953a.49.49,0,0,1-.356.826" transform="translate(-1261.06 -1001.388)"/>
      <path id="Trazado_899602" data-name="Trazado 899602" d="M1580.761,1396.914a.488.488,0,0,1-.357-.154c-5.427-5.755-7.725-14.19-6.471-23.751.026-.2.045-.328.047-.388a.49.49,0,0,1,.98.005,4.77,4.77,0,0,1-.055.51c-1.215,9.264.992,17.415,6.213,22.953a.49.49,0,0,1-.356.826" transform="translate(-1223.498 -1066.862)"/>
      <path id="Trazado_899603" data-name="Trazado 899603" d="M1206.61,255.417l65.905-22.925s26.277,54.227,1.61,68.933-45.439-.14-56.041-13.941c0,0-11.474,3.558-20.816-1.416-6.571-3.5-16.155-14.618-8.659-24.075,8.114-10.237,18-6.576,18-6.576" transform="translate(-922.035 -180.766)" fill="#fff"/>
      <path id="Trazado_899604" data-name="Trazado 899604" d="M1251.877,306.3a36.671,36.671,0,0,1-12.944-2.413c-11.125-4.17-18.962-12.674-22.757-17.556-1.989.556-12.222,3.054-20.863-1.547-4.689-2.5-10.1-8.207-11.369-14.292a12.248,12.248,0,0,1,2.557-10.52c7.646-9.646,16.99-7.219,18.38-6.789l65.749-22.87a.489.489,0,0,1,.6.249,154.2,154.2,0,0,1,10.092,29.058c4.613,20.37,1.614,34.379-8.672,40.511a40.317,40.317,0,0,1-20.774,6.17M1216.36,285.28a.489.489,0,0,1,.388.191c5.791,7.538,26.9,30.812,55.4,13.819,12.49-7.446,11.363-25.564,8.219-39.452a153.364,153.364,0,0,0-9.832-28.453l-65.489,22.78a.487.487,0,0,1-.331,0c-.391-.144-9.661-3.4-17.447,6.421a11.307,11.307,0,0,0-2.365,9.711c1.208,5.789,6.383,11.237,10.87,13.627,9.057,4.822,20.328,1.415,20.441,1.38a.489.489,0,0,1,.145-.022" transform="translate(-920.31 -179.052)"/>
      <path id="Trazado_899605" data-name="Trazado 899605" d="M1261.08,417a.49.49,0,0,1-.377-.177,13.018,13.018,0,0,0-12.03-4.353.49.49,0,1,1-.178-.964,13.835,13.835,0,0,1,12.962,4.69.49.49,0,0,1-.376.8" transform="translate(-970.413 -319.787)"/>
      <path id="Trazado_899606" data-name="Trazado 899606" d="M1278.949,311.557c15.318,15.954,11.5,31.585,11.5,31.585s14.851,21.619,37.628,20.7c29.6-1.193,30.831-20.5,28.933-31.993-.556-3.367-1.508-10.3-2.622-17.048-6.253,1.539-23.08,7.811-33.336,11.734-12.309,4.709-22.133-11.392-22.515-22.46Z" transform="translate(-994.403 -236.424)" fill="#12263f"/>
      <path id="Trazado_899607" data-name="Trazado 899607" d="M1286.183,348.831a.49.49,0,0,1-.468-.346c-1.595-5.158-5.635-8.608-8.743-10.594a.49.49,0,0,1,.528-.826c3.246,2.074,7.469,5.689,9.152,11.131a.49.49,0,0,1-.469.635" transform="translate(-992.69 -262.014)"/>
      <path id="Trazado_899608" data-name="Trazado 899608" d="M1189.909,80.807S1159.929,22.093,1207.2,5.166c40.708-14.577,54.66,27.636,60.214,44.206Z" transform="translate(-917.885 -1.676)" fill="#fff"/>
      <path id="Trazado_899609" data-name="Trazado 899609" d="M1188.294,79.621a.49.49,0,0,1-.436-.267c-.158-.31-15.718-31.262-6.461-54.613,4.019-10.138,12.1-17.443,24.023-21.712,11.564-4.14,21.97-4.036,30.929.312,18.034,8.75,26.01,32.548,29.843,43.985l.072.215a.49.49,0,0,1-.28.61l-77.506,31.435a.49.49,0,0,1-.184.036M1221.478.982a46.739,46.739,0,0,0-15.727,2.97c-11.643,4.169-19.53,11.284-23.441,21.148-8.527,21.5,4.44,49.713,6.223,53.407l76.656-31.091c-3.819-11.393-11.718-34.678-29.267-43.193A32.686,32.686,0,0,0,1221.478.982" transform="translate(-916.271 0)"/>
      <path id="Trazado_899610" data-name="Trazado 899610" d="M1318.085,114.731a.489.489,0,0,1-.407-.216,32.371,32.371,0,0,1,.19-35.748,33.242,33.242,0,0,1,33.583-13.239.49.49,0,1,1-.205.958,32.244,32.244,0,0,0-32.571,12.837,31.373,31.373,0,0,0-.185,34.645.49.49,0,0,1-.406.764" transform="translate(-1020.405 -50.419)"/>
      <path id="Trazado_899611" data-name="Trazado 899611" d="M1222.666,205.754l25.656-15.309s68.507-29.276,91.435-27.513a1.189,1.189,0,0,1,.295,2.313Z" transform="translate(-950.642 -126.622)" fill="#fff"/>
      <path id="Trazado_899612" data-name="Trazado 899612" d="M1220.952,204.53a.49.49,0,0,1-.251-.91l25.656-15.309a.444.444,0,0,1,.058-.03c2.8-1.2,68.885-29.3,91.665-27.551a1.679,1.679,0,0,1,.417,3.265L1221.112,204.5a.5.5,0,0,1-.16.027m25.879-15.361-21.551,12.86,112.9-38.961a.7.7,0,0,0-.172-1.361c-22.365-1.714-89.42,26.715-91.174,27.462" transform="translate(-948.929 -124.908)"/>
      <path id="Trazado_899613" data-name="Trazado 899613" d="M2347.75,1362.966h-73.321a.49.49,0,0,1,0-.98h72.832v-125.1a.49.49,0,1,1,.979,0v125.593a.49.49,0,0,1-.49.49" transform="translate(-1768.023 -961.315)"/>
      <path id="Trazado_899614" data-name="Trazado 899614" d="M2272.257,1789.089l.335.922-6.032,2.2,6.032,2.2-.335.921-8.562-3.116Z" transform="translate(-1760.059 -1391.045)"/>
      <path id="Trazado_899615" data-name="Trazado 899615" d="M206.639,1372.643h-76.09a.49.49,0,0,1-.49-.49V1249.329a.49.49,0,0,1,.98,0v122.334h75.6a.49.49,0,1,1,0,.98" transform="translate(-101.123 -970.992)"/>
      <path id="Trazado_899616" data-name="Trazado 899616" d="M118.252,1247.156l.922.335,2.2-6.031,2.2,6.031.921-.335-3.116-8.562Z" transform="translate(-91.943 -963.027)"/>
      <path id="Trazado_899617" data-name="Trazado 899617" d="M802.595,141.963a.49.49,0,0,1-.49-.49V65.362a.49.49,0,0,1,.49-.49h60.612a.49.49,0,0,1,0,.98H803.085v75.621a.49.49,0,0,1-.49.49" transform="translate(-623.649 -50.439)"/>
      <path id="Trazado_899618" data-name="Trazado 899618" d="M1049.534,59.3l-.335-.922,6.031-2.2-6.031-2.2.335-.921,8.561,3.116Z" transform="translate(-815.768 -41.263)"/>
      <path id="Trazado_899619" data-name="Trazado 899619" d="M1711.051,139.194a.49.49,0,0,1-.49-.49V65.852H1647.67a.49.49,0,0,1,0-.98h63.381a.49.49,0,0,1,.49.49V138.7a.49.49,0,0,1-.49.49" transform="translate(-1280.708 -50.439)"/>
      <path id="Trazado_899620" data-name="Trazado 899620" d="M1926.488,369.519l-.922-.335-2.2,6.032-2.2-6.032-.921.335,3.116,8.561Z" transform="translate(-1493.029 -287.047)"/>
    </g>
  </g>
</svg>
