<svg xmlns="http://www.w3.org/2000/svg" xmlns:xlink="http://www.w3.org/1999/xlink" width="105" height="105" viewBox="0 0 105 105">
  <defs>
    <clipPath id="clip-path">
      <rect id="Rectángulo_403338" data-name="Rectángulo 403338" width="72.396" height="59.795" fill="none"/>
    </clipPath>
  </defs>
  <g id="_72" data-name="72" transform="translate(-380 -794)">
    <circle id="Elipse_11711" data-name="Elipse 11711" cx="52.5" cy="52.5" r="52.5" transform="translate(380 794)" fill="#ecdb9f"/>
    <g id="Grupo_1107278" data-name="Grupo 1107278" transform="translate(396 817)">
      <g id="Grupo_1107277" data-name="Grupo 1107277" transform="translate(0 0)" clip-path="url(#clip-path)">
        <path id="Trazado_898589" data-name="Trazado 898589" d="M48.977,11.708C45.924,4.735,33.627-.734,26.263,1.06c-2.995.723-4.413,2.72-4.34,5.8a11.991,11.991,0,0,0,1.852,5.252,36.974,36.974,0,0,0,2.431,3.328c2.344,2.156,1.765,4.427-1.664,6.829-4.9.8-9.462,1.056-14.236-1.128C8.482,20.3,7.252,19.2,5.155,19.275A5.033,5.033,0,0,0,.279,25.858c1.36,4.4,6.221,4.89,10,4.673a26.12,26.12,0,0,1,11.2,1.519c2.894.984,4.282,1.476,5.035,2.879a3.174,3.174,0,0,0-.68,1.953c-.145,7.682,11.4,9.288,17.173,9.332a3.114,3.114,0,0,0,2.966-3.892,8.325,8.325,0,0,0-1.157-3.111l.8-.434c2.431-1.461,1.635-4.7-.738-5.628a11.29,11.29,0,0,0-1.751-.521,2.667,2.667,0,0,0,.405-.9,2.785,2.785,0,0,0,3.212-2.17,28.494,28.494,0,0,0,.781-8.145,3.043,3.043,0,0,0-1.534-2.575c-.13-.81-.289-1.635-.448-2.459a3.39,3.39,0,0,0,3.443-4.673" transform="translate(0.401 9.64)" fill="#87ab3a"/>
        <path id="Trazado_898590" data-name="Trazado 898590" d="M4.055,3.28A1.693,1.693,0,1,1,2.362,4.973,1.695,1.695,0,0,1,4.055,3.28" transform="translate(31.81 44.168)" fill="#f0c75b"/>
        <path id="Trazado_898591" data-name="Trazado 898591" d="M3.765,2.423A1.215,1.215,0,1,1,2.55,3.638,1.216,1.216,0,0,1,3.765,2.423" transform="translate(34.342 32.626)" fill="#f0c75b"/>
        <path id="Trazado_898592" data-name="Trazado 898592" d="M6.051,1.416a3.711,3.711,0,1,1-3.7,3.7,3.72,3.72,0,0,1,3.7-3.7" transform="translate(31.608 19.064)" fill="#f0c75b"/>
        <path id="Trazado_898593" data-name="Trazado 898593" d="M28.494,2.9a7.029,7.029,0,0,1,.68,7.277A7.186,7.186,0,0,1,23.5,14.137a3.125,3.125,0,0,0-2.358,1.432,57.657,57.657,0,0,0-5.888,12.225.989.989,0,0,1-.955.694,1.1,1.1,0,0,1-.3-.043,1.029,1.029,0,0,1-.651-1.273,58.793,58.793,0,0,1,6.12-12.7,5.241,5.241,0,0,1,3.848-2.344,4.985,4.985,0,0,0,4.051-2.85A5.033,5.033,0,0,0,26.888,4.1,5.154,5.154,0,0,0,22.91,2,5.083,5.083,0,0,0,17.7,7.4a5.278,5.278,0,0,1-1.62,4.239A59.022,59.022,0,0,1,4.623,19.852a.989.989,0,0,1-1.186-.188.933.933,0,0,1-.159-.231.984.984,0,0,1,.405-1.345,57.531,57.531,0,0,0,11.024-7.914,3.334,3.334,0,0,0,1-2.648A7.075,7.075,0,0,1,22.968,0,7.157,7.157,0,0,1,28.494,2.9" transform="translate(42.513 -0.008)"/>
        <path id="Trazado_898594" data-name="Trazado 898594" d="M35.518,2.238A5.122,5.122,0,0,1,36,7.432a5.041,5.041,0,0,1-4.065,2.836,5.284,5.284,0,0,0-3.848,2.344,58.318,58.318,0,0,0-6.105,12.717,1,1,0,0,0,.637,1.259,1.183,1.183,0,0,0,.3.043l4.109.839.043.217c.738,3.328-.868,4.832-3.516,7.335a43.148,43.148,0,0,0-3.111,3.154.989.989,0,0,0,.1,1.4l-2.329.926a59.042,59.042,0,0,1-5.469-9.578,1.009,1.009,0,0,0-1.317-.521.983.983,0,0,0-.521,1.3A58.61,58.61,0,0,0,18.171,43.8a5.306,5.306,0,0,0,4.094,1.953,5.068,5.068,0,0,1,4.948,5.628,5.128,5.128,0,0,1-2.4,3.8,5.087,5.087,0,0,1-7.726-4.225,5.215,5.215,0,0,0-2.011-4.022A58.593,58.593,0,0,0,2.908,39.824a.955.955,0,0,0-.391-.087L3.255,37.5a3.536,3.536,0,0,0,.955.13,3.219,3.219,0,1,0,0-6.438l-.318.014-.13-3.154a5.736,5.736,0,0,0,5.715-5.715A5.675,5.675,0,0,0,7.8,18.311l4.268-.492a.982.982,0,0,0,1.172.174A59.022,59.022,0,0,0,24.7,9.775a5.289,5.289,0,0,0,1.635-4.239,4.924,4.924,0,0,1,1.157-3.573A5.062,5.062,0,0,1,31.525.14a5.2,5.2,0,0,1,3.993,2.1M34.433,4.885a2.836,2.836,0,1,0-2.85,2.836,2.856,2.856,0,0,0,2.85-2.836" transform="translate(33.898 1.851)" fill="#87ab3a"/>
        <path id="Trazado_898595" data-name="Trazado 898595" d="M7.167.269a2.843,2.843,0,1,1-2.836,2.85A2.853,2.853,0,0,1,7.167.269m.839,2.85a.862.862,0,0,0-.839-.854.846.846,0,1,0,.839.854" transform="translate(58.328 3.617)"/>
        <path id="Trazado_898596" data-name="Trazado 898596" d="M28.076,17.691a7.069,7.069,0,0,1,2.083,5.816,7.208,7.208,0,0,1-3.342,5.281,6.977,6.977,0,0,1-3.733,1.056,6.824,6.824,0,0,1-3.573-.984,7.057,7.057,0,0,1-3.5-5.946,3.189,3.189,0,0,0-1.23-2.488,58.793,58.793,0,0,0-11.7-6.858,1,1,0,0,1,.376-1.924,1.24,1.24,0,0,1,.391.072A59.788,59.788,0,0,1,16.01,18.848a5.209,5.209,0,0,1,2.011,4.008,5.086,5.086,0,0,0,7.726,4.239,5.128,5.128,0,0,0,2.4-3.8,5.016,5.016,0,0,0-1.476-4.167A5.073,5.073,0,0,0,23.2,17.662a5.306,5.306,0,0,1-4.094-1.953A58.61,58.61,0,0,1,11.844,3.614,1,1,0,0,1,12.364,2.3a1.023,1.023,0,0,1,1.317.535A60.362,60.362,0,0,0,19.15,12.41c.477.694,1,1.374,1.519,2.04a3.344,3.344,0,0,0,2.561,1.215,7.018,7.018,0,0,1,4.847,2.025" transform="translate(32.963 29.946)"/>
        <path id="Trazado_898597" data-name="Trazado 898597" d="M12.561,2.738c1,4.427-1.36,6.641-4.08,9.216A42.363,42.363,0,0,0,5.5,14.977a1.02,1.02,0,0,1-1.418.087A.993.993,0,0,1,4,13.646c1.056-1.23,2.156-2.242,3.1-3.154C9.74,8,11.346,6.5,10.608,3.172l-.029-.217a1,1,0,0,1,1.982-.217" transform="translate(50.359 26.365)"/>
        <path id="Trazado_898598" data-name="Trazado 898598" d="M24.9,4.878a1.006,1.006,0,0,1-.752,1.866c-1.9-.752-4.152-1.591-7.277-2.72C10.789,1.84,6.232,2.274,4.337,5.2c-1.591,2.445-.955,6.207,1.49,8.738.275.3.535.564.767.81a1,1,0,0,1-.043,1.418,1.081,1.081,0,0,1-.694.275,1.069,1.069,0,0,1-.738-.318c-.217-.246-.463-.521-.738-.8-3.067-3.183-3.819-8-1.736-11.212,1.157-1.78,4.919-5.556,14.9-1.968C20.7,3.272,22.956,4.125,24.9,4.878" transform="translate(19.781 8.745)"/>
        <path id="Trazado_898599" data-name="Trazado 898599" d="M21.03,9.628a1,1,0,0,1-.637,1.273,13.058,13.058,0,0,1-4.094.637A20.123,20.123,0,0,1,8.6,9.845a12.042,12.042,0,0,1-6.641-4.9,1.027,1.027,0,0,1,.26-1.4,1.018,1.018,0,0,1,1.4.289A10.274,10.274,0,0,0,9.138,7.92l.231.058c.043.029,5.613,2.619,10.373,1.013a1.05,1.05,0,0,1,1.288.637" transform="translate(24.138 45.416)"/>
        <path id="Trazado_898600" data-name="Trazado 898600" d="M11.959,2.955a5.649,5.649,0,0,1,1.678,4.036,5.73,5.73,0,1,1-1.678-4.036m-.333,4.036a3.7,3.7,0,1,0-3.689,3.7,3.7,3.7,0,0,0,3.689-3.7" transform="translate(29.736 17.192)"/>
        <path id="Trazado_898601" data-name="Trazado 898601" d="M5.625,2.284a3.219,3.219,0,1,1,0,6.438,3.385,3.385,0,0,1-.955-.13A3.258,3.258,0,0,1,2.413,5.51,3.209,3.209,0,0,1,5.292,2.3l.333-.014M6.855,5.51a1.226,1.226,0,0,0-1.23-1.215,1.215,1.215,0,0,0,0,2.431A1.235,1.235,0,0,0,6.855,5.51" transform="translate(32.497 30.754)"/>
        <path id="Trazado_898602" data-name="Trazado 898602" d="M5.927,3.142a3.689,3.689,0,1,1-3.7,3.689,3.7,3.7,0,0,1,3.7-3.689M7.619,6.831A1.693,1.693,0,1,0,5.927,8.524,1.695,1.695,0,0,0,7.619,6.831" transform="translate(29.938 42.309)"/>
        <path id="Trazado_898603" data-name="Trazado 898603" d="M29.768,4.729a1.017,1.017,0,0,1-.709,1.23,61.364,61.364,0,0,1-13.99,1.808A5.327,5.327,0,0,1,11,5.8,5.048,5.048,0,0,0,2.337,7.174a5.173,5.173,0,0,0,.405,4.5,5.082,5.082,0,0,0,7.364,1.418,5.212,5.212,0,0,1,4.427-.94A57.827,57.827,0,0,1,27.67,17.258a.987.987,0,0,1,.391,1.36,1,1,0,0,1-.883.521,1.033,1.033,0,0,1-.477-.13A58.32,58.32,0,0,0,14.056,14.09a3.318,3.318,0,0,0-2.749.593,6.965,6.965,0,0,1-5.078,1.374,7.094,7.094,0,0,1-5.194-3.342A7.227,7.227,0,0,1,.442,6.495,7,7,0,0,1,6.171,1.966,7.037,7.037,0,0,1,12.58,4.541a3.248,3.248,0,0,0,2.5,1.215h.2A58.362,58.362,0,0,0,28.538,4.021a1.01,1.01,0,0,1,1.23.709" transform="translate(0.007 25.734)"/>
      </g>
    </g>
  </g>
</svg>
