<svg xmlns="http://www.w3.org/2000/svg" xmlns:xlink="http://www.w3.org/1999/xlink" width="150" height="150" viewBox="0 0 150 150">
  <defs>
    <clipPath id="clip-path">
      <rect id="Rectángulo_402977" data-name="Rectángulo 402977" width="70.712" height="100.54" fill="none"/>
    </clipPath>
  </defs>
  <g id="Grupo_1106640" data-name="Grupo 1106640" transform="translate(-1257.051 -2627)">
    <circle id="Elipse_11683" data-name="Elipse 11683" cx="75" cy="75" r="75" transform="translate(1257.051 2627)" fill="#65802c"/>
    <g id="Grupo_1106642" data-name="Grupo 1106642" transform="translate(1301 2646.812)">
      <g id="Grupo_1106641" data-name="Grupo 1106641" transform="translate(0 0)" clip-path="url(#clip-path)">
        <path id="Trazado_895689" data-name="Trazado 895689" d="M67.758,51.273H2.618a2.6,2.6,0,0,1-2.6-2.6V32.105a2.6,2.6,0,0,1,2.6-2.6h65.14a2.6,2.6,0,0,1,2.6,2.6V48.671a2.6,2.6,0,0,1-2.6,2.6" transform="translate(0.027 49.085)" fill="#fff296"/>
        <path id="Trazado_895690" data-name="Trazado 895690" d="M70.569,31.1c1.145,7.818-4.755,17.926-10.969,22.449A18.7,18.7,0,0,1,48.434,57.1a23.318,23.318,0,0,1-9.078-1.974,35.556,35.556,0,0,0-5.9,12.74c10.854.373,20.39,4.067,24.943,9.765h1.289V71.645a7.327,7.327,0,0,1-3.436-6.156,7.448,7.448,0,0,1,4.179-6.7,1.393,1.393,0,0,1,1.175,0,7.352,7.352,0,0,1,.743,12.855V77.63h7.045a1.317,1.317,0,0,1,0,2.634H38.555a25.352,25.352,0,0,1,3.093,4.123H69.395a1.332,1.332,0,0,1,0,2.664H43.022a25.813,25.813,0,0,1,1.345,4.038H69.395a1.337,1.337,0,0,1,1.316,1.345,1.312,1.312,0,0,1-1.316,1.319H44.854a27.407,27.407,0,0,1,.229,4.123H69.395a1.331,1.331,0,0,1,0,2.661H43.709a1.363,1.363,0,0,1-.975-.4,1.323,1.323,0,0,1-.344-1,22.87,22.87,0,0,0-2.72-12.828c0-.029-.029-.059-.056-.088a19.88,19.88,0,0,0-4.984-5.956H28.217a24.7,24.7,0,0,1,6.5,19.043,1.314,1.314,0,0,1-1.316,1.231,1.367,1.367,0,0,1-1.345-1.4c.743-11.741-6.188-17.7-7.762-18.872H17.909a24.813,24.813,0,0,1,6.5,19.043,1.333,1.333,0,0,1-2.661-.17c.743-11.656-6.244-17.7-7.762-18.872H7.6a24.816,24.816,0,0,1,6.47,19.043,1.314,1.314,0,0,1-1.316,1.231,1.327,1.327,0,0,1-1.319-1.4c.746-11.741-6.212-17.7-7.759-18.872H1.33a1.317,1.317,0,1,1,0-2.634H5.166c4.64-5.812,14.461-9.563,25.571-9.765a39.432,39.432,0,0,1,1.833-5.956c-1-5.125-6.931-7.3-8.561-7.815a16.249,16.249,0,0,1-7.674,2.062,13.523,13.523,0,0,1-6.96-1.891C4.593,51.43-.274,44.558.011,38.831a1.347,1.347,0,0,1,.631-1.06c4.9-2.978,13.257-1.947,18.009.887,4.382,2.634,6.872,7.474,6.816,13.116a17.274,17.274,0,0,1,7.5,4.954,74.838,74.838,0,0,0-3.551-25A14.9,14.9,0,0,1,20.743,26c-4.094-5.527-5.04-13.918-2.834-24.913A1.353,1.353,0,0,1,18.537.2,1.326,1.326,0,0,1,19.627.059,22.254,22.254,0,0,1,31.8,10.625c2.749,5.554,2.749,12.256.056,19.959.344,1,.631,2.032.916,3a34.328,34.328,0,0,1,13.6-14,1.322,1.322,0,0,1,1.8.546,1.338,1.338,0,0,1-.543,1.8c-9.765,5.239-13.574,15.09-13.832,15.75a74.652,74.652,0,0,1,1.862,18.126c.573-.89,1.145-1.747,1.8-2.608-1-8.018,1.806-15.319,7.647-19.557,6.214-4.526,17.639-7.016,24.74-3.551a1.373,1.373,0,0,1,.717,1M58.026,51.4c5.3-3.838,10.508-12.514,9.994-19.213-6.214-2.549-16.065-.229-21.333,3.607-4.984,3.609-7.416,9.85-6.614,16.752,6.329,2.893,13,2.464,17.953-1.145m5.1,14.088A4.837,4.837,0,0,0,61,61.509a4.773,4.773,0,0,0,0,7.932,4.793,4.793,0,0,0,2.12-3.953M8.746,77.63H54.819c-4.781-4.352-13.574-7.157-23.051-7.157-9.448,0-18.241,2.8-23.022,7.157M29.562,29.037c2.235-6.7,2.176-12.514-.17-17.239A19.093,19.093,0,0,0,20.229,3.18c-1.691,9.448-.772,16.579,2.661,21.219a12.249,12.249,0,0,0,6.672,4.637M22.834,51.744c.056-4.667-2.006-8.676-5.527-10.8C13.5,38.687,6.684,37.771,2.675,39.689c.2,4.467,4.267,10.023,8.047,12.285,3.551,2.12,8.018,2.006,12.112-.229" transform="translate(-0.001 0.001)"/>
        <path id="Trazado_895691" data-name="Trazado 895691" d="M43.085,12.753c.517,6.7-4.7,15.377-9.994,19.213C28.137,35.575,21.467,36,15.138,33.114c-.8-6.9,1.63-13.145,6.614-16.752,5.269-3.838,15.119-6.158,21.333-3.609" transform="translate(24.934 19.436)" fill="#078c2b"/>
        <path id="Trazado_895692" data-name="Trazado 895692" d="M24.226,23.092a4.835,4.835,0,0,1,2.118,3.98,4.784,4.784,0,0,1-2.118,3.953,4.773,4.773,0,0,1,0-7.932" transform="translate(36.78 38.419)" fill="#078c2b"/>
        <path id="Trazado_895693" data-name="Trazado 895693" d="M49.356,33.616H3.283c4.781-4.352,13.571-7.16,23.022-7.16,9.477,0,18.27,2.808,23.051,7.16" transform="translate(5.462 44.015)" fill="#dbca0b"/>
        <path id="Trazado_895694" data-name="Trazado 895694" d="M17.272,9.814c2.349,4.725,2.405,10.537.17,17.239a12.244,12.244,0,0,1-6.67-4.64C7.336,17.773,6.42,10.645,8.109,1.194a19.09,19.09,0,0,1,9.163,8.62" transform="translate(12.119 1.988)" fill="#078c2b"/>
        <path id="Trazado_895695" data-name="Trazado 895695" d="M15.637,16.81c3.521,2.12,5.583,6.129,5.527,10.8-4.094,2.232-8.561,2.347-12.114.229C5.27,25.573,1.2,20.017,1.005,15.55c4.009-1.918,10.822-1,14.632,1.26" transform="translate(1.672 24.14)" fill="#078c2b"/>
      </g>
    </g>
  </g>
</svg>
