<svg xmlns="http://www.w3.org/2000/svg" xmlns:xlink="http://www.w3.org/1999/xlink" width="65" height="65" viewBox="0 0 65 65">
  <defs>
    <clipPath id="clip-path">
      <rect id="Rect치ngulo_403763" data-name="Rect치ngulo 403763" width="45" height="43.813" fill="#65802c"/>
    </clipPath>
  </defs>
  <g id="_93" data-name="93" transform="translate(-351 -1705)">
    <rect id="Rect치ngulo_403765" data-name="Rect치ngulo 403765" width="65" height="65" rx="32.5" transform="translate(351 1705)" fill="#fff"/>
    <g id="Grupo_1108097" data-name="Grupo 1108097" transform="translate(362.805 1715.35)">
      <g id="Grupo_1108096" data-name="Grupo 1108096" transform="translate(0 0)" clip-path="url(#clip-path)">
        <path id="Trazado_899865" data-name="Trazado 899865" d="M30.133,38.665H8.808a4.59,4.59,0,0,1-4.582-4.588V21.363l-.414-.217a3.131,3.131,0,0,1-1.55-1.9A1.765,1.765,0,0,1,3.96,17H34.982a1.764,1.764,0,0,1,1.7,2.252,3.131,3.131,0,0,1-1.548,1.9l-.414.218V34.078a4.59,4.59,0,0,1-4.582,4.588M3.96,18.132a.63.63,0,0,0-.607.8,1.993,1.993,0,0,0,.987,1.206l.715.374a.569.569,0,0,1,.3.5V34.078a3.454,3.454,0,0,0,3.447,3.453H30.133a3.454,3.454,0,0,0,3.448-3.453V21.019a.566.566,0,0,1,.3-.5l.718-.376a1.99,1.99,0,0,0,.985-1.2v0a.63.63,0,0,0-.606-.8Z" transform="translate(-0.534 -4.143)" fill="#65802c"/>
        <path id="Trazado_899866" data-name="Trazado 899866" d="M45.616,25.743H44.262a.567.567,0,0,1-.567-.567V22.132a.567.567,0,0,1,.567-.567h2.979a1.278,1.278,0,0,1,1.28,1.273,2.9,2.9,0,0,1-2.9,2.9m-.787-1.134h.787a1.765,1.765,0,0,0,1.771-1.771.144.144,0,0,0-.145-.138H44.829Z" transform="translate(-10.648 -5.256)" fill="#65802c"/>
        <path id="Trazado_899867" data-name="Trazado 899867" d="M4.41,14.6a.567.567,0,0,1-.545-.412C3.327,12.3,5.858,8.115,14.939,4.937c.1-.038.214-.079.334-.119.749-.259,1.535-.5,2.428-.759.968-.275,1.806-.489,2.563-.655.126-.029.259-.06.393-.084C29.947,1.3,34.265,3.521,34.8,5.4a.566.566,0,0,1-.391.7L4.565,14.582a.541.541,0,0,1-.155.022M27.329,3.653a30.56,30.56,0,0,0-6.451.779c-.136.025-.25.051-.365.078-.74.163-1.556.371-2.5.64-.874.248-1.638.487-2.341.73-.132.045-.234.08-.334.12C7.817,8.631,5.344,11.79,4.977,13.286l28.4-8.072c-.725-.712-2.612-1.56-6.045-1.56" transform="translate(-0.925 -0.614)" fill="#65802c"/>
        <path id="Trazado_899868" data-name="Trazado 899868" d="M4.258,25.743H2.9a2.9,2.9,0,0,1-2.9-2.9,1.277,1.277,0,0,1,1.279-1.273H4.258a.567.567,0,0,1,.567.567v3.043a.567.567,0,0,1-.567.567M1.279,22.7a.143.143,0,0,0-.144.138A1.762,1.762,0,0,0,2.9,24.608h.787V22.7Z" transform="translate(0 -5.256)" fill="#65802c"/>
        <path id="Trazado_899869" data-name="Trazado 899869" d="M18.4,5.427a.565.565,0,0,1-.545-.412l-.576-2.023A1.487,1.487,0,0,1,18.3,1.156l3.87-1.1A1.461,1.461,0,0,1,23.3.193a1.483,1.483,0,0,1,.7.888l.576,2.029a.567.567,0,0,1-.445.713c-.116.021-.23.048-.345.074-.74.162-1.556.371-2.5.64-.873.248-1.638.487-2.341.73-.132.045-.234.079-.334.119a.573.573,0,0,1-.209.04m4.17-4.291a.311.311,0,0,0-.088.012l-3.869,1.1a.356.356,0,0,0-.242.434l.41,1.442c.679-.23,1.393-.451,2.194-.678.877-.25,1.646-.448,2.345-.607l-.411-1.448a.348.348,0,0,0-.167-.209.354.354,0,0,0-.171-.046" transform="translate(-4.196 0)" fill="#65802c"/>
        <path id="Trazado_899870" data-name="Trazado 899870" d="M10.863,55.523a2.856,2.856,0,0,1-2.852-2.852c0-1.392,2.01-3.923,2.413-4.416a.568.568,0,0,1,.879,0c.4.493,2.412,3.024,2.412,4.416a2.855,2.855,0,0,1-2.851,2.852m0-5.988a8.544,8.544,0,0,0-1.718,3.136,1.717,1.717,0,1,0,3.434,0,8.551,8.551,0,0,0-1.717-3.136" transform="translate(-1.952 -11.709)" fill="#65802c"/>
        <path id="Trazado_899871" data-name="Trazado 899871" d="M24.131,55.523a2.856,2.856,0,0,1-2.852-2.852c0-1.392,2.01-3.923,2.413-4.416a.568.568,0,0,1,.879,0c.4.493,2.412,3.024,2.412,4.416a2.855,2.855,0,0,1-2.851,2.852m0-5.988a8.544,8.544,0,0,0-1.718,3.136,1.717,1.717,0,1,0,3.434,0,8.551,8.551,0,0,0-1.717-3.136" transform="translate(-5.186 -11.709)" fill="#65802c"/>
        <path id="Trazado_899872" data-name="Trazado 899872" d="M37.4,55.523a2.856,2.856,0,0,1-2.852-2.852c0-1.392,2.01-3.923,2.413-4.416a.568.568,0,0,1,.879,0c.4.493,2.412,3.024,2.412,4.416A2.855,2.855,0,0,1,37.4,55.523m0-5.988a8.544,8.544,0,0,0-1.718,3.136,1.717,1.717,0,1,0,3.434,0A8.551,8.551,0,0,0,37.4,49.535" transform="translate(-8.419 -11.709)" fill="#65802c"/>
        <path id="Trazado_899873" data-name="Trazado 899873" d="M53.015,14.535c-.048,0-.1,0-.147,0a3.592,3.592,0,0,1-2.245-.9.567.567,0,1,1,.752-.849,2.457,2.457,0,0,0,1.535.613,2.385,2.385,0,0,0,1.772-.654A2.464,2.464,0,0,0,53.1,8.475c-.036,0-.1,0-.154.005a.56.56,0,0,1-.526-.247.568.568,0,0,1-.032-.581,1.857,1.857,0,0,0,.21-.8,1.919,1.919,0,0,0-1.848-1.991,1.944,1.944,0,0,0-2,1.844.556.556,0,0,1-.591.542.568.568,0,0,1-.542-.592,3.083,3.083,0,0,1,3.174-2.928A3.05,3.05,0,0,1,53.732,6.9a3.076,3.076,0,0,1-.061.5,3.6,3.6,0,0,1-.656,7.134" transform="translate(-11.605 -0.909)" fill="#65802c"/>
        <path id="Trazado_899874" data-name="Trazado 899874" d="M44.754,14.657a.567.567,0,0,1-.126-1.12l3.319-.758a.567.567,0,0,1,.252,1.106l-3.319.758a.553.553,0,0,1-.126.014" transform="translate(-10.769 -3.111)" fill="#65802c"/>
        <path id="Trazado_899875" data-name="Trazado 899875" d="M38.407,12.934a.567.567,0,0,1-.187-1.1l5.836-2.037a.567.567,0,1,1,.374,1.071L38.594,12.9a.557.557,0,0,1-.187.032" transform="translate(-9.221 -2.379)" fill="#65802c"/>
      </g>
    </g>
  </g>
</svg>
