<svg xmlns="http://www.w3.org/2000/svg" xmlns:xlink="http://www.w3.org/1999/xlink" width="65" height="65" viewBox="0 0 65 65">
  <defs>
    <clipPath id="clip-path">
      <rect id="Rect치ngulo_403764" data-name="Rect치ngulo 403764" width="41.168" height="45.871" fill="#65802c"/>
    </clipPath>
  </defs>
  <g id="_94" data-name="94" transform="translate(-760 -1705)">
    <rect id="Rect치ngulo_403766" data-name="Rect치ngulo 403766" width="65" height="65" rx="32.5" transform="translate(760 1705)" fill="#fff"/>
    <g id="Grupo_1108099" data-name="Grupo 1108099" transform="translate(772 1715.35)">
      <g id="Grupo_1108098" data-name="Grupo 1108098" clip-path="url(#clip-path)">
        <path id="Trazado_899876" data-name="Trazado 899876" d="M22.327,44.37a14.708,14.708,0,0,1-3.634-28.963.579.579,0,0,1,.284,1.122,13.549,13.549,0,1,0,6.709,0,.579.579,0,0,1,.284-1.122A14.71,14.71,0,0,1,22.327,44.37" transform="translate(-1.743 -3.525)" fill="#65802c"/>
        <path id="Trazado_899877" data-name="Trazado 899877" d="M21.295,47.761a19.744,19.744,0,1,1,19.279-20.2,19.772,19.772,0,0,1-19.279,20.2M20.4,9.436A18.606,18.606,0,0,0,2.248,28.449,18.59,18.59,0,1,0,23.8,9.673a18.136,18.136,0,0,0-3.4-.237" transform="translate(-0.249 -1.896)" fill="#65802c"/>
        <path id="Trazado_899878" data-name="Trazado 899878" d="M29.818,4.844H18.9A2.422,2.422,0,1,1,18.9,0H29.818a2.422,2.422,0,1,1,0,4.844M18.9,1.156a1.265,1.265,0,1,0,0,2.531H29.818a1.265,1.265,0,1,0,0-2.531Z" transform="translate(-3.774 0)" fill="#65802c"/>
        <path id="Trazado_899879" data-name="Trazado 899879" d="M28.987,8.956a.576.576,0,0,1-.108-.011,18.49,18.49,0,0,0-6.78,0,.577.577,0,0,1-.685-.567V5.361a.578.578,0,0,1,.578-.578h6.995a.578.578,0,0,1,.578.578V8.378a.578.578,0,0,1-.578.578M22.57,5.939V7.693a19.707,19.707,0,0,1,5.838,0V5.939Z" transform="translate(-4.905 -1.096)" fill="#65802c"/>
        <path id="Trazado_899880" data-name="Trazado 899880" d="M44.113,15.527a.578.578,0,0,1-.409-.987l3.978-3.978a.578.578,0,1,1,.817.817l-3.978,3.978a.574.574,0,0,1-.409.17" transform="translate(-9.972 -2.38)" fill="#65802c"/>
        <path id="Trazado_899881" data-name="Trazado 899881" d="M51.012,13.281a.574.574,0,0,1-.409-.17L45.667,8.175a.578.578,0,0,1,.817-.817l4.936,4.936a.578.578,0,0,1-.409.987" transform="translate(-10.422 -1.647)" fill="#65802c"/>
        <path id="Trazado_899882" data-name="Trazado 899882" d="M7.761,15.527a.574.574,0,0,1-.409-.17L3.375,11.379a.578.578,0,1,1,.817-.817L8.17,14.54a.578.578,0,0,1-.409.987" transform="translate(-0.734 -2.38)" fill="#65802c"/>
        <path id="Trazado_899883" data-name="Trazado 899883" d="M.578,13.281a.578.578,0,0,1-.409-.987L5.106,7.358a.578.578,0,0,1,.817.817L.987,13.111a.574.574,0,0,1-.409.17" transform="translate(0 -1.647)" fill="#65802c"/>
        <path id="Trazado_899884" data-name="Trazado 899884" d="M25.906,35.769a2.681,2.681,0,1,1,2.681-2.681,2.683,2.683,0,0,1-2.681,2.681m0-4.205a1.525,1.525,0,1,0,1.525,1.525,1.526,1.526,0,0,0-1.525-1.525" transform="translate(-5.32 -6.965)" fill="#65802c"/>
        <path id="Trazado_899885" data-name="Trazado 899885" d="M26.532,38.9a.578.578,0,0,1-.578-.578v-1.88a.578.578,0,0,1,1.156,0v1.88a.578.578,0,0,1-.578.578" transform="translate(-5.945 -8.214)" fill="#65802c"/>
        <path id="Trazado_899886" data-name="Trazado 899886" d="M26.532,27.714a.578.578,0,0,1-.578-.578V14.168a.578.578,0,0,1,1.156,0V27.135a.578.578,0,0,1-.578.578" transform="translate(-5.945 -3.113)" fill="#65802c"/>
      </g>
    </g>
  </g>
</svg>
