<svg xmlns="http://www.w3.org/2000/svg" xmlns:xlink="http://www.w3.org/1999/xlink" width="94.574" height="94.574" viewBox="0 0 94.574 94.574">
  <defs>
    <clipPath id="clip-path">
      <rect id="Rectángulo_402994" data-name="Rectángulo 402994" width="54.056" height="58.308" fill="none"/>
    </clipPath>
  </defs>
  <g id="a1" transform="translate(7169.638 12625.25)">
    <g id="Grupo_1103758" data-name="Grupo 1103758" transform="translate(-8124.971 -12790.25)">
      <g id="Trazado_874102" data-name="Trazado 874102" transform="translate(955.333 165)" fill="#2a7e11">
        <path d="M 47.287109375 92.07422637939453 C 41.23979568481445 92.07422637939453 35.37467956542969 90.89041137695312 29.85470962524414 88.55564880371094 C 24.52179527282715 86.30002593994141 19.7318229675293 83.07035064697266 15.61783790588379 78.95638275146484 C 11.50386619567871 74.84239196777344 8.274194717407227 70.05242156982422 6.018566608428955 64.71951293945312 C 3.683809280395508 59.19953918457031 2.499994993209839 53.33442306518555 2.499994993209839 47.287109375 C 2.499994993209839 41.23979568481445 3.683809280395508 35.37467956542969 6.018566608428955 29.85470962524414 C 8.274194717407227 24.52179527282715 11.50386619567871 19.7318229675293 15.61783790588379 15.61783790588379 C 19.7318229675293 11.50386619567871 24.52179527282715 8.274194717407227 29.85470962524414 6.018566608428955 C 35.37467956542969 3.683809280395508 41.23979568481445 2.499994993209839 47.287109375 2.499994993209839 C 53.33442306518555 2.499994993209839 59.19953918457031 3.683809280395508 64.71951293945312 6.018566608428955 C 70.05242156982422 8.274194717407227 74.84239196777344 11.50386619567871 78.95638275146484 15.61783790588379 C 83.07035064697266 19.7318229675293 86.30002593994141 24.52179527282715 88.55564880371094 29.85470962524414 C 90.89041137695312 35.37467956542969 92.07422637939453 41.23979568481445 92.07422637939453 47.287109375 C 92.07422637939453 53.33442306518555 90.89041137695312 59.19953918457031 88.55564880371094 64.71951293945312 C 86.30002593994141 70.05242156982422 83.07035064697266 74.84239196777344 78.95638275146484 78.95638275146484 C 74.84239196777344 83.07035064697266 70.05242156982422 86.30002593994141 64.71951293945312 88.55564880371094 C 59.19953918457031 90.89041137695312 53.33442306518555 92.07422637939453 47.287109375 92.07422637939453 Z" stroke="none"/>
        <path d="M 47.287109375 4.999992370605469 C 41.57617568969727 4.999992370605469 36.03874206542969 6.117362976074219 30.82859420776367 8.321075439453125 C 25.79367828369141 10.45066070556641 21.27079010009766 13.50041198730469 17.38561248779297 17.38561248779297 C 13.50041198730469 21.27079010009766 10.45066070556641 25.79367828369141 8.321075439453125 30.82859420776367 C 6.117362976074219 36.03874206542969 4.999992370605469 41.57617568969727 4.999992370605469 47.287109375 C 4.999992370605469 52.99804306030273 6.117362976074219 58.53547668457031 8.321075439453125 63.74562835693359 C 10.45066070556641 68.78054046630859 13.50041198730469 73.30342864990234 17.38561248779297 77.18861389160156 C 21.27079010009766 81.07379150390625 25.79366302490234 84.12354278564453 30.82859420776367 86.25312805175781 C 36.03874206542969 88.45684051513672 41.57617568969727 89.57421112060547 47.287109375 89.57421112060547 C 52.99804306030273 89.57421112060547 58.53547668457031 88.45684051513672 63.74562835693359 86.25312805175781 C 68.78054046630859 84.12354278564453 73.30342864990234 81.07379150390625 77.18861389160156 77.18861389160156 C 81.07379150390625 73.30342864990234 84.12354278564453 68.78054046630859 86.25312805175781 63.74562835693359 C 88.45684051513672 58.53547668457031 89.57421112060547 52.99804306030273 89.57421112060547 47.287109375 C 89.57421112060547 41.57617568969727 88.45684051513672 36.03874206542969 86.25312805175781 30.82859420776367 C 84.12354278564453 25.79366302490234 81.07379150390625 21.27079010009766 77.18861389160156 17.38561248779297 C 73.30342864990234 13.50041198730469 68.78054046630859 10.45066070556641 63.74562835693359 8.321075439453125 C 58.53547668457031 6.117362976074219 52.99804306030273 4.999992370605469 47.287109375 4.999992370605469 M 47.287109375 -7.62939453125e-06 C 73.40306091308594 -7.62939453125e-06 94.57421112060547 21.17115783691406 94.57421112060547 47.287109375 C 94.57421112060547 73.40306091308594 73.40306091308594 94.57421112060547 47.287109375 94.57421112060547 C 21.17115783691406 94.57421112060547 -7.62939453125e-06 73.40306091308594 -7.62939453125e-06 47.287109375 C -7.62939453125e-06 21.17115783691406 21.17115783691406 -7.62939453125e-06 47.287109375 -7.62939453125e-06 Z" stroke="none" fill="#fff"/>
      </g>
    </g>
    <g id="Grupo_1106649" data-name="Grupo 1106649" transform="translate(-7151.652 -12609.271)">
      <g id="Grupo_1106648" data-name="Grupo 1106648" transform="translate(0 0)" clip-path="url(#clip-path)">
        <path id="Trazado_895740" data-name="Trazado 895740" d="M52.663,49.257a5.428,5.428,0,0,0-4.295-8.75,5.4,5.4,0,0,0-1.028.1,5.894,5.894,0,0,0-5.805-4.927l-.161.011v-6.7a4.436,4.436,0,0,0-4.434-4.434h-1.4l.482-13.6L39.425,8.14a3.024,3.024,0,0,0,1.114-2.346V2.388A2.377,2.377,0,0,0,38.151,0H21.978A2.381,2.381,0,0,0,19.6,2.388V5.794A3.048,3.048,0,0,0,20.7,8.14l3.427,2.806.471,13.6H23.2a4.443,4.443,0,0,0-4.434,4.434v5.441A5.688,5.688,0,0,0,14.2,39.265a4.68,4.68,0,0,0-2,.632,5.023,5.023,0,0,0-8.911,3.192,4.438,4.438,0,0,0,.15,1.2A4.339,4.339,0,0,0,0,48.518,4.29,4.29,0,0,0,1.424,51.7,4.237,4.237,0,0,0,.739,54a4.322,4.322,0,0,0,4.316,4.306H48.368l.1-.011.161.011a5.422,5.422,0,0,0,4.038-9.05M22.042,6.523a.947.947,0,0,1-.343-.728V2.388a.286.286,0,0,1,.278-.289H38.151a.288.288,0,0,1,.289.289V5.794a.947.947,0,0,1-.343.728l-3.492,2.86H25.534Zm4.67,18.026-.471-13.067H33.9l-.461,13.067Zm5.12,2.1v2.678a1.767,1.767,0,1,1-3.534,0V26.648ZM20.864,28.982A2.34,2.34,0,0,1,23.2,26.648h3v2.678a3.872,3.872,0,0,0,7.744,0V26.648h3a2.34,2.34,0,0,1,2.335,2.335v7.165a5.339,5.339,0,0,0-1.339.76,5.506,5.506,0,0,0-4.327-2.153,5.434,5.434,0,0,0-4.97,3.277,5.026,5.026,0,0,0-3.556-.107,5.622,5.622,0,0,0-4.22-3.481ZM48.625,56.208l-.193-.011h-.064l-.161.011H5.055A2.189,2.189,0,0,1,3.674,52.3a1.058,1.058,0,0,0,.364-.953,1.018,1.018,0,0,0-.621-.814,2.209,2.209,0,0,1,.9-4.231,2.3,2.3,0,0,1,.493.064A1.037,1.037,0,0,0,5.9,45.937a1.049,1.049,0,0,0,0-1.189,2.926,2.926,0,1,1,5.077-2.86,1.044,1.044,0,0,0,1.724.268,2.547,2.547,0,0,1,2.313-.75,1.067,1.067,0,0,0,.91-.236,1.09,1.09,0,0,0,.353-.878,1.516,1.516,0,0,1-.021-.311,3.552,3.552,0,0,1,7.08-.418,1.075,1.075,0,0,0,1.671.739,2.958,2.958,0,0,1,3.588.129,1.041,1.041,0,0,0,1.05.182,1.058,1.058,0,0,0,.664-.857,3.329,3.329,0,0,1,6.416-.75,1.017,1.017,0,0,0,.825.664,1.059,1.059,0,0,0,.985-.407,3.776,3.776,0,0,1,6.78,2.292c0,.129-.011.257-.021.4a1.05,1.05,0,0,0,.45.975,1.113,1.113,0,0,0,1.082.054,3.219,3.219,0,0,1,1.542-.375,3.332,3.332,0,0,1,2.121,5.9,1.036,1.036,0,0,0-.386.835,1.012,1.012,0,0,0,.45.814,3.365,3.365,0,0,1,1.4,2.72,3.328,3.328,0,0,1-3.331,3.331" transform="translate(0 0.003)"/>
        <path id="Trazado_895741" data-name="Trazado 895741" d="M6.176,2.488V5.166a1.767,1.767,0,1,1-3.534,0V2.488Z" transform="translate(25.655 24.163)" fill="#7bb0ad"/>
        <path id="Trazado_895742" data-name="Trazado 895742" d="M10.108,1.072,9.647,14.139H2.921L2.45,1.072Z" transform="translate(23.787 10.414)" fill="#7bb0ad"/>
        <path id="Trazado_895743" data-name="Trazado 895743" d="M18.487.2H2.314a.3.3,0,0,0-.289.289V3.891a.974.974,0,0,0,.353.728L5.87,7.479h9.072l3.481-2.86a.939.939,0,0,0,.353-.728V.485A.288.288,0,0,0,18.487.2M14.674,3.655H6.127a1.05,1.05,0,1,1,0-2.1h8.547a1.05,1.05,0,0,1,0,2.1" transform="translate(19.664 1.907)" fill="#bcdcda"/>
        <path id="Trazado_895744" data-name="Trazado 895744" d="M20.359,4.823v7.165a5.4,5.4,0,0,0-1.35.76,5.425,5.425,0,0,0-9.3,1.125,5.026,5.026,0,0,0-3.556-.107,5.606,5.606,0,0,0-4.209-3.481V4.823A2.34,2.34,0,0,1,4.283,2.488h3V5.166a3.872,3.872,0,0,0,7.744,0V2.488h3a2.34,2.34,0,0,1,2.335,2.335" transform="translate(18.916 24.163)" fill="#bcdcda"/>
        <path id="Trazado_895745" data-name="Trazado 895745" d="M48.65,17.132a1.046,1.046,0,0,1-.439-.814,1.063,1.063,0,0,1,.375-.846,3.332,3.332,0,0,0-2.121-5.9,3.229,3.229,0,0,0-1.542.386,1.055,1.055,0,0,1-1.532-1.039c.011-.139.021-.257.021-.4a3.77,3.77,0,0,0-6.78-2.281,1.049,1.049,0,0,1-.985.407,1.089,1.089,0,0,1-.825-.664,3.322,3.322,0,0,0-6.4.75,1.09,1.09,0,0,1-.675.857,1.07,1.07,0,0,1-1.05-.193,2.958,2.958,0,0,0-3.588-.118,1.037,1.037,0,0,1-1.039.1,1.084,1.084,0,0,1-.632-.835A3.519,3.519,0,0,0,17.922,3.4a3.554,3.554,0,0,0-3.556,3.556,3.01,3.01,0,0,0,.011.311,1.024,1.024,0,0,1-1.264,1.1,2.526,2.526,0,0,0-2.3.76,1.048,1.048,0,0,1-1.735-.278,2.924,2.924,0,0,0-5.591,1.2A2.96,2.96,0,0,0,4,11.723a1.013,1.013,0,0,1,0,1.189,1.03,1.03,0,0,1-1.092.428,1.685,1.685,0,0,0-.493-.064,2.2,2.2,0,0,0-.889,4.22,1.055,1.055,0,0,1,.246,1.767,2.2,2.2,0,0,0,1.382,3.92H46.3l.161-.011h.064l.193.011a3.329,3.329,0,0,0,1.928-6.051m-32.731,2.26A3.883,3.883,0,1,1,19.8,15.5a3.888,3.888,0,0,1-3.877,3.888m16.644-1.521a4.579,4.579,0,1,1,4.595-4.584,4.582,4.582,0,0,1-4.595,4.584" transform="translate(1.903 33.029)" fill="#ead9b0"/>
        <path id="Trazado_895746" data-name="Trazado 895746" d="M12.956,1.373a1.051,1.051,0,0,1-1.05,1.05H3.36a1.05,1.05,0,1,1,0-2.1h8.547a1.051,1.051,0,0,1,1.05,1.05" transform="translate(22.431 3.14)"/>
        <path id="Trazado_895747" data-name="Trazado 895747" d="M7.374,3.9A4.579,4.579,0,1,0,11.969,8.47,4.58,4.58,0,0,0,7.374,3.9m0,7.058A2.48,2.48,0,1,1,9.87,8.47a2.487,2.487,0,0,1-2.5,2.485" transform="translate(27.092 37.845)"/>
        <path id="Trazado_895748" data-name="Trazado 895748" d="M7.966,6.577A2.505,2.505,0,0,1,5.46,9.062a2.485,2.485,0,0,1,0-4.97A2.505,2.505,0,0,1,7.966,6.577" transform="translate(28.995 39.738)" fill="#daad4e"/>
        <path id="Trazado_895749" data-name="Trazado 895749" d="M5.189,4.169A3.883,3.883,0,1,0,9.066,8.046,3.878,3.878,0,0,0,5.189,4.169m0,5.666A1.783,1.783,0,1,1,6.967,8.046,1.792,1.792,0,0,1,5.189,9.835" transform="translate(12.633 40.486)"/>
        <path id="Trazado_895750" data-name="Trazado 895750" d="M5.064,6.143A1.783,1.783,0,1,1,3.286,4.365,1.79,1.79,0,0,1,5.064,6.143" transform="translate(14.537 42.389)" fill="#daad4e"/>
      </g>
    </g>
  </g>
</svg>
