<svg xmlns="http://www.w3.org/2000/svg" xmlns:xlink="http://www.w3.org/1999/xlink" width="112.068" height="112.068" viewBox="0 0 112.068 112.068">
  <defs>
    <clipPath id="clip-path">
      <rect id="Rectángulo_402995" data-name="Rectángulo 402995" width="70.022" height="53.389" fill="none"/>
    </clipPath>
  </defs>
  <g id="a3" transform="translate(-955.333 -165)">
    <g id="Trazado_874102" data-name="Trazado 874102" transform="translate(955.333 165)" fill="#f3d02c">
      <path d="M 56.03418731689453 109.5683670043945 C 48.8060188293457 109.5683670043945 41.79538726806641 108.1532897949219 35.19703674316406 105.362419128418 C 32.02545547485352 104.0209503173828 28.96627044677734 102.3604507446289 26.10445404052734 100.4270553588867 C 23.26918792724609 98.51158905029297 20.60295486450195 96.31172180175781 18.1798038482666 93.88857269287109 C 15.75665378570557 91.46542358398438 13.55678749084473 88.79917144775391 11.64132022857666 85.96390533447266 C 9.707921028137207 83.10210418701172 8.047420501708984 80.04292297363281 6.705954074859619 76.871337890625 C 3.915087223052979 70.27298736572266 2.500004053115845 63.26235580444336 2.500004053115845 56.03418731689453 C 2.500004053115845 48.8060188293457 3.915087223052979 41.79538726806641 6.705954074859619 35.19703674316406 C 8.047420501708984 32.02545547485352 9.707921028137207 28.96627044677734 11.64132022857666 26.10445404052734 C 13.55678749084473 23.26918792724609 15.75665378570557 20.60295486450195 18.1798038482666 18.1798038482666 C 20.60295486450195 15.75665378570557 23.26918792724609 13.55678749084473 26.10445404052734 11.64132022857666 C 28.96627044677734 9.707921028137207 32.02545547485352 8.047420501708984 35.19703674316406 6.705954074859619 C 41.79538726806641 3.915087223052979 48.8060188293457 2.500004053115845 56.03418731689453 2.500004053115845 C 63.26235580444336 2.500004053115845 70.27298736572266 3.915087223052979 76.871337890625 6.705954074859619 C 80.04292297363281 8.047420501708984 83.10210418701172 9.707921028137207 85.96390533447266 11.64132022857666 C 88.79917144775391 13.55678749084473 91.46542358398438 15.75665378570557 93.88857269287109 18.1798038482666 C 96.31172180175781 20.60295486450195 98.51158905029297 23.26918792724609 100.4270553588867 26.10445404052734 C 102.3604507446289 28.96627044677734 104.0209503173828 32.02545547485352 105.362419128418 35.19703674316406 C 108.1532897949219 41.79538726806641 109.5683670043945 48.8060188293457 109.5683670043945 56.03418731689453 C 109.5683670043945 63.26235580444336 108.1532897949219 70.27298736572266 105.362419128418 76.871337890625 C 104.0209503173828 80.04292297363281 102.3604507446289 83.10210418701172 100.4270553588867 85.96390533447266 C 98.51158905029297 88.79917144775391 96.31172180175781 91.46542358398438 93.88857269287109 93.88857269287109 C 91.46542358398438 96.31172180175781 88.79917144775391 98.51158905029297 85.96390533447266 100.4270553588867 C 83.10210418701172 102.3604507446289 80.04292297363281 104.0209503173828 76.871337890625 105.362419128418 C 70.27298736572266 108.1532897949219 63.26235580444336 109.5683670043945 56.03418731689453 109.5683670043945 Z" stroke="none"/>
      <path d="M 56.03418731689453 5.000007629394531 C 49.14240646362305 5.000007629394531 42.45942687988281 6.348648071289062 36.17090606689453 9.008468627929688 C 30.09439086914062 11.57862854003906 24.63607025146484 15.25906372070312 19.94757080078125 19.94757080078125 C 15.25906372070312 24.63607025146484 11.57862854003906 30.09439086914062 9.008468627929688 36.17090606689453 C 6.348648071289062 42.45942687988281 5.000007629394531 49.14240646362305 5.000007629394531 56.03418731689453 C 5.000007629394531 62.92596817016602 6.348648071289062 69.60893249511719 9.008468627929688 75.89746856689453 C 11.57862854003906 81.97396850585938 15.25906372070312 87.43228912353516 19.94757080078125 92.12080383300781 C 24.63607025146484 96.80931091308594 30.09439086914062 100.48974609375 36.17090606689453 103.0599060058594 C 42.45944976806641 105.7197265625 49.14240646362305 107.0683670043945 56.03418731689453 107.0683670043945 C 62.92596817016602 107.0683670043945 69.60893249511719 105.7197265625 75.89744567871094 103.0599060058594 C 81.97396850585938 100.48974609375 87.43228912353516 96.80931091308594 92.12080383300781 92.12080383300781 C 96.80931091308594 87.43228912353516 100.48974609375 81.97396850585938 103.0599060058594 75.89744567871094 C 105.7197265625 69.60893249511719 107.0683670043945 62.92596817016602 107.0683670043945 56.03418731689453 C 107.0683670043945 49.14240646362305 105.7197265625 42.45944976806641 103.0599060058594 36.17090606689453 C 100.48974609375 30.09439086914062 96.80931091308594 24.63607025146484 92.12080383300781 19.94757080078125 C 87.43228912353516 15.25906372070312 81.97396850585938 11.57862854003906 75.89746856689453 9.008468627929688 C 69.60893249511719 6.348648071289062 62.92596817016602 5.000007629394531 56.03418731689453 5.000007629394531 M 56.03418731689453 7.62939453125e-06 C 86.98100280761719 7.62939453125e-06 112.0683670043945 25.08734893798828 112.0683670043945 56.03418731689453 C 112.0683670043945 86.98100280761719 86.98100280761719 112.0683670043945 56.03418731689453 112.0683670043945 C 25.08734893798828 112.0683670043945 7.62939453125e-06 86.98100280761719 7.62939453125e-06 56.03418731689453 C 7.62939453125e-06 25.08734893798828 25.08734893798828 7.62939453125e-06 56.03418731689453 7.62939453125e-06 Z" stroke="none" fill="#fff"/>
    </g>
    <g id="Grupo_1106654" data-name="Grupo 1106654" transform="translate(976.356 194.34)">
      <g id="Grupo_1106653" data-name="Grupo 1106653" transform="translate(0 0)" clip-path="url(#clip-path)">
        <path id="Trazado_895751" data-name="Trazado 895751" d="M68.117,33.324H1.6a1.6,1.6,0,0,1-1.6-1.6V21.276a1.6,1.6,0,0,1,1.6-1.6H68.117a1.594,1.594,0,0,1,1.6,1.6V31.729a1.6,1.6,0,0,1-1.6,1.6" transform="translate(0 19.511)" fill="#fff296"/>
        <path id="Trazado_895752" data-name="Trazado 895752" d="M68.117,18.918H1.6a1.6,1.6,0,0,1-1.6-1.6v-6.37a1.6,1.6,0,0,1,1.6-1.6H68.117a1.6,1.6,0,0,1,1.6,1.6v6.37a1.6,1.6,0,0,1-1.6,1.6" transform="translate(0 9.276)" fill="#fff296"/>
        <path id="Trazado_895753" data-name="Trazado 895753" d="M45.975,3.813a7.381,7.381,0,0,1-3.784,6.532,8.447,8.447,0,0,1-4.3,1.255,6.418,6.418,0,0,1-1.852-.279v3.584h9.021a.918.918,0,0,1,.936.916.935.935,0,0,1-.936.936H32a.918.918,0,0,1-.916-.936A.9.9,0,0,1,32,14.905h2.191V11.321a6.183,6.183,0,0,1-1.832.279,8.447,8.447,0,0,1-4.3-1.255,7.442,7.442,0,0,1-3.8-6.532.979.979,0,0,1,.458-.737,7.389,7.389,0,0,1,7.547.4,9.194,9.194,0,0,1,1.932,1.653V3.515a.931.931,0,0,1,.936-.916.914.914,0,0,1,.916.916V5.128a9.315,9.315,0,0,1,1.952-1.653,7.389,7.389,0,0,1,7.547-.4.908.908,0,0,1,.438.737m-1.852.617a5.732,5.732,0,0,0-5.158.637,5.706,5.706,0,0,0-2.907,4.321,5.779,5.779,0,0,0,5.178-.637,5.731,5.731,0,0,0,2.887-4.321M29.008,8.752a5.779,5.779,0,0,0,5.178.637,5.706,5.706,0,0,0-2.907-4.321A5.779,5.779,0,0,0,26.1,4.431a5.706,5.706,0,0,0,2.907,4.321" transform="translate(24.028 2.201)"/>
        <path id="Trazado_895754" data-name="Trazado 895754" d="M45.975,14.485a7.381,7.381,0,0,1-3.784,6.532,8.258,8.258,0,0,1-4.3,1.255,7.169,7.169,0,0,1-1.852-.259v3.565h9.021a.926.926,0,1,1,0,1.852H30.6a.926.926,0,0,1,0-1.852h3.584V22.012a6.9,6.9,0,0,1-1.832.259,8.258,8.258,0,0,1-4.3-1.255,7.442,7.442,0,0,1-3.8-6.532,1.015,1.015,0,0,1,.458-.737,7.44,7.44,0,0,1,7.547.418,8.645,8.645,0,0,1,1.932,1.653V14.206a.935.935,0,0,1,.936-.936.918.918,0,0,1,.916.936v1.613a8.756,8.756,0,0,1,1.952-1.653,7.44,7.44,0,0,1,7.547-.418.937.937,0,0,1,.438.737m-1.852.637a5.723,5.723,0,0,0-5.158.617,5.771,5.771,0,0,0-2.907,4.341,5.779,5.779,0,0,0,5.178-.637,5.8,5.8,0,0,0,2.887-4.321M29.008,19.444a5.779,5.779,0,0,0,5.178.637,5.771,5.771,0,0,0-2.907-4.341,5.708,5.708,0,0,0-5.178-.617,5.771,5.771,0,0,0,2.907,4.321" transform="translate(24.028 12.797)"/>
        <path id="Trazado_895755" data-name="Trazado 895755" d="M41.266,22.56a.935.935,0,0,1,.936.936.918.918,0,0,1-.936.916H29a.918.918,0,0,1-.936-.916A.935.935,0,0,1,29,22.56H41.266Z" transform="translate(27.821 22.365)"/>
        <path id="Trazado_895756" data-name="Trazado 895756" d="M40.443,25.88a.926.926,0,1,1,0,1.852H29.829a.926.926,0,1,1,0-1.852Z" transform="translate(28.644 25.657)"/>
        <path id="Trazado_895757" data-name="Trazado 895757" d="M33.08,4.145a5.732,5.732,0,0,1,5.158-.637,5.731,5.731,0,0,1-2.887,4.321,5.779,5.779,0,0,1-5.178.637A5.706,5.706,0,0,1,33.08,4.145" transform="translate(29.913 3.124)" fill="#078c2b"/>
        <path id="Trazado_895758" data-name="Trazado 895758" d="M33.08,14.82a5.723,5.723,0,0,1,5.158-.617,5.8,5.8,0,0,1-2.887,4.321,5.779,5.779,0,0,1-5.178.637A5.771,5.771,0,0,1,33.08,14.82" transform="translate(29.913 13.717)" fill="#078c2b"/>
        <path id="Trazado_895759" data-name="Trazado 895759" d="M34.3,11.9v1.016a.926.926,0,1,1-1.852,0V11.9a.926.926,0,0,1,1.852,0" transform="translate(32.173 10.885)"/>
        <path id="Trazado_895760" data-name="Trazado 895760" d="M34.3,1.226V2.242a.926.926,0,0,1-1.852,0V1.226a.926.926,0,1,1,1.852,0" transform="translate(32.173 0.288)"/>
        <path id="Trazado_895761" data-name="Trazado 895761" d="M32.425,11.606v2.25a.926.926,0,0,1-1.852,0v-2.25a.926.926,0,0,1,1.852,0" transform="translate(30.309 10.598)"/>
        <path id="Trazado_895762" data-name="Trazado 895762" d="M32.425.936v2.23a.926.926,0,0,1-1.852,0V.936a.926.926,0,1,1,1.852,0" transform="translate(30.309 0)"/>
        <path id="Trazado_895763" data-name="Trazado 895763" d="M29.755,11.606v2.25a.926.926,0,0,1-1.852,0v-2.25a.926.926,0,0,1,1.852,0" transform="translate(27.662 10.598)"/>
        <path id="Trazado_895764" data-name="Trazado 895764" d="M29.755.936v2.23a.926.926,0,0,1-1.852,0V.936a.926.926,0,1,1,1.852,0" transform="translate(27.662 0)"/>
        <path id="Trazado_895765" data-name="Trazado 895765" d="M33.258,8.466a5.779,5.779,0,0,1-5.178-.637,5.706,5.706,0,0,1-2.907-4.321,5.779,5.779,0,0,1,5.178.637,5.706,5.706,0,0,1,2.907,4.321" transform="translate(24.956 3.124)" fill="#078c2b"/>
        <path id="Trazado_895766" data-name="Trazado 895766" d="M33.258,19.164a5.779,5.779,0,0,1-5.178-.637,5.771,5.771,0,0,1-2.907-4.321,5.708,5.708,0,0,1,5.178.617,5.77,5.77,0,0,1,2.907,4.341" transform="translate(24.956 13.714)" fill="#078c2b"/>
        <path id="Trazado_895767" data-name="Trazado 895767" d="M28.984,22.56a.931.931,0,0,1,.916.936.914.914,0,0,1-.916.916H25.579a.918.918,0,0,1-.936-.916.935.935,0,0,1,.936-.936Z" transform="translate(24.43 22.365)"/>
        <path id="Trazado_895768" data-name="Trazado 895768" d="M27.875,11.9v1.016a.926.926,0,1,1-1.852,0V11.9a.926.926,0,0,1,1.852,0" transform="translate(25.798 10.885)"/>
        <path id="Trazado_895769" data-name="Trazado 895769" d="M27.875,1.226V2.242a.926.926,0,0,1-1.852,0V1.226a.926.926,0,1,1,1.852,0" transform="translate(25.798 0.288)"/>
        <path id="Trazado_895770" data-name="Trazado 895770" d="M27.876,19.27a.926.926,0,1,1,0,1.852H24.809a.926.926,0,0,1,0-1.852Z" transform="translate(23.687 19.104)"/>
        <path id="Trazado_895771" data-name="Trazado 895771" d="M38.745,14.905a.9.9,0,0,1,.916.916.918.918,0,0,1-.916.936H16.661a.931.931,0,0,1-.916-.936.914.914,0,0,1,.916-.916h5.456V11.321a6.418,6.418,0,0,1-1.852.279,8.258,8.258,0,0,1-4.3-1.255A7.381,7.381,0,0,1,12.18,3.813a.908.908,0,0,1,.438-.737,7.389,7.389,0,0,1,7.547.4,9.851,9.851,0,0,1,1.952,1.653V3.515a.916.916,0,0,1,1.832,0V5.128A8.756,8.756,0,0,1,25.9,3.475a7.389,7.389,0,0,1,7.547-.4.908.908,0,0,1,.438.737A7.381,7.381,0,0,1,30.1,10.345,8.447,8.447,0,0,1,25.8,11.6a6.418,6.418,0,0,1-1.852-.279v3.584ZM32.054,4.431a5.779,5.779,0,0,0-5.178.637,5.706,5.706,0,0,0-2.907,4.321,5.779,5.779,0,0,0,5.178-.637,5.757,5.757,0,0,0,2.907-4.321M16.92,8.752a5.718,5.718,0,0,0,5.178.637A5.706,5.706,0,0,0,19.19,5.068a5.718,5.718,0,0,0-5.178-.637A5.706,5.706,0,0,0,16.92,8.752" transform="translate(12.061 2.201)"/>
        <path id="Trazado_895772" data-name="Trazado 895772" d="M32.478,25.88a.926.926,0,1,1,0,1.852h-14a.926.926,0,0,1,0-1.852Z" transform="translate(17.411 25.657)"/>
        <path id="Trazado_895773" data-name="Trazado 895773" d="M25.544,22.56a.935.935,0,0,1,.936.936.918.918,0,0,1-.936.916H22.139a.914.914,0,0,1-.916-.916.931.931,0,0,1,.916-.936Z" transform="translate(21.04 22.365)"/>
        <path id="Trazado_895774" data-name="Trazado 895774" d="M33.886,14.485A7.381,7.381,0,0,1,30.1,21.017a8.258,8.258,0,0,1-4.3,1.255,7.169,7.169,0,0,1-1.852-.259v3.565h3.286a.926.926,0,1,1,0,1.852H16.641a.926.926,0,1,1,0-1.852h5.476V22.012a7.169,7.169,0,0,1-1.852.259,8.258,8.258,0,0,1-4.3-1.255,7.381,7.381,0,0,1-3.784-6.532.937.937,0,0,1,.438-.737,7.44,7.44,0,0,1,7.547.418,9.227,9.227,0,0,1,1.952,1.653V14.206a.916.916,0,1,1,1.832,0v1.613A8.261,8.261,0,0,1,25.9,14.166a7.44,7.44,0,0,1,7.547-.418.937.937,0,0,1,.438.737m-1.832.637a5.769,5.769,0,0,0-5.178.617,5.771,5.771,0,0,0-2.907,4.341,5.779,5.779,0,0,0,5.178-.637,5.825,5.825,0,0,0,2.907-4.321M16.92,19.444a5.779,5.779,0,0,0,5.178.637A5.77,5.77,0,0,0,19.19,15.74a5.769,5.769,0,0,0-5.178-.617,5.771,5.771,0,0,0,2.907,4.321" transform="translate(12.061 12.797)"/>
        <path id="Trazado_895775" data-name="Trazado 895775" d="M24.8,19.27a.926.926,0,1,1,0,1.852H21.729a.926.926,0,0,1,0-1.852Z" transform="translate(20.633 19.104)"/>
        <path id="Trazado_895776" data-name="Trazado 895776" d="M21,4.145a5.779,5.779,0,0,1,5.178-.637,5.757,5.757,0,0,1-2.907,4.321,5.779,5.779,0,0,1-5.178.637A5.706,5.706,0,0,1,21,4.145" transform="translate(17.937 3.124)" fill="#078c2b"/>
        <path id="Trazado_895777" data-name="Trazado 895777" d="M21,14.82a5.769,5.769,0,0,1,5.178-.617,5.825,5.825,0,0,1-2.907,4.321,5.779,5.779,0,0,1-5.178.637A5.771,5.771,0,0,1,21,14.82" transform="translate(17.937 13.717)" fill="#078c2b"/>
        <path id="Trazado_895778" data-name="Trazado 895778" d="M22.225,11.9v1.016a.926.926,0,1,1-1.852,0V11.9a.926.926,0,0,1,1.852,0" transform="translate(20.197 10.885)"/>
        <path id="Trazado_895779" data-name="Trazado 895779" d="M22.225,1.226V2.242a.926.926,0,0,1-1.852,0V1.226a.926.926,0,1,1,1.852,0" transform="translate(20.197 0.288)"/>
        <path id="Trazado_895780" data-name="Trazado 895780" d="M22.134,22.56a.935.935,0,0,1,.936.936.918.918,0,0,1-.936.916H18.729a.918.918,0,0,1-.936-.916.935.935,0,0,1,.936-.936Z" transform="translate(17.639 22.365)"/>
        <path id="Trazado_895781" data-name="Trazado 895781" d="M20.345,11.606v2.25a.926.926,0,0,1-1.852,0v-2.25a.926.926,0,0,1,1.852,0" transform="translate(18.333 10.598)"/>
        <path id="Trazado_895782" data-name="Trazado 895782" d="M20.345.936v2.23a.926.926,0,0,1-1.852,0V.936a.926.926,0,1,1,1.852,0" transform="translate(18.333 0)"/>
        <path id="Trazado_895783" data-name="Trazado 895783" d="M17.675,11.606v2.25a.926.926,0,0,1-1.852,0v-2.25a.926.926,0,0,1,1.852,0" transform="translate(15.686 10.598)"/>
        <path id="Trazado_895784" data-name="Trazado 895784" d="M17.675.936v2.23a.926.926,0,0,1-1.852,0V.936a.926.926,0,1,1,1.852,0" transform="translate(15.686 0)"/>
        <path id="Trazado_895785" data-name="Trazado 895785" d="M25.664,22.56a.931.931,0,0,1,.916.936.914.914,0,0,1-.916.916H8.3a.918.918,0,0,1-.936-.916A.935.935,0,0,1,8.3,22.56H25.664Z" transform="translate(7.299 22.365)"/>
        <path id="Trazado_895786" data-name="Trazado 895786" d="M21.178,8.47A5.718,5.718,0,0,1,16,7.833a5.706,5.706,0,0,1-2.907-4.321,5.718,5.718,0,0,1,5.178.637A5.706,5.706,0,0,1,21.178,8.47" transform="translate(12.98 3.119)" fill="#078c2b"/>
        <path id="Trazado_895787" data-name="Trazado 895787" d="M21.178,19.161A5.779,5.779,0,0,1,16,18.524,5.771,5.771,0,0,1,13.093,14.2a5.769,5.769,0,0,1,5.178.617,5.77,5.77,0,0,1,2.907,4.341" transform="translate(12.98 13.717)" fill="#078c2b"/>
        <path id="Trazado_895788" data-name="Trazado 895788" d="M20.1,25.88a.926.926,0,0,1,0,1.852H11.759a.926.926,0,0,1,0-1.852H20.1Z" transform="translate(10.749 25.657)"/>
        <path id="Trazado_895789" data-name="Trazado 895789" d="M15.795,11.9v1.016a.926.926,0,1,1-1.852,0V11.9a.926.926,0,0,1,1.852,0" transform="translate(13.823 10.885)"/>
        <path id="Trazado_895790" data-name="Trazado 895790" d="M15.795,1.226V2.242a.926.926,0,0,1-1.852,0V1.226a.926.926,0,1,1,1.852,0" transform="translate(13.823 0.288)"/>
        <path id="Trazado_895791" data-name="Trazado 895791" d="M14.861,8.59a.918.918,0,0,1,.936.916.935.935,0,0,1-.936.936H10.7a.931.931,0,0,1-.916-.936A.914.914,0,0,1,10.7,8.59Z" transform="translate(9.699 8.516)"/>
        <path id="Trazado_895792" data-name="Trazado 895792" d="M21.809,3.813a7.381,7.381,0,0,1-3.784,6.532,8.447,8.447,0,0,1-4.3,1.255,6.183,6.183,0,0,1-1.832-.279v3.584h4.262a.918.918,0,0,1,.936.916.935.935,0,0,1-.936.936H1.019a.935.935,0,0,1-.936-.936.918.918,0,0,1,.936-.916H10.04V11.321a6.418,6.418,0,0,1-1.852.279,8.447,8.447,0,0,1-4.3-1.255A7.381,7.381,0,0,1,.1,3.813a.908.908,0,0,1,.438-.737,7.389,7.389,0,0,1,7.547.4A9.315,9.315,0,0,1,10.04,5.128V3.515a.914.914,0,0,1,.916-.916.931.931,0,0,1,.936.916V5.128a9.194,9.194,0,0,1,1.932-1.653,7.389,7.389,0,0,1,7.547-.4.908.908,0,0,1,.438.737m-1.832.617a5.779,5.779,0,0,0-5.178.637,5.706,5.706,0,0,0-2.907,4.321,5.779,5.779,0,0,0,5.178-.637,5.706,5.706,0,0,0,2.907-4.321M4.842,8.752a5.779,5.779,0,0,0,5.178.637A5.706,5.706,0,0,0,7.113,5.068a5.718,5.718,0,0,0-5.178-.637A5.757,5.757,0,0,0,4.842,8.752" transform="translate(0.082 2.201)"/>
        <path id="Trazado_895793" data-name="Trazado 895793" d="M21.809,14.485a7.381,7.381,0,0,1-3.784,6.532,8.258,8.258,0,0,1-4.3,1.255,6.9,6.9,0,0,1-1.832-.259v3.565h8.722a.926.926,0,1,1,0,1.852H1.019a.926.926,0,1,1,0-1.852H10.04V22.012a7.169,7.169,0,0,1-1.852.259,8.258,8.258,0,0,1-4.3-1.255A7.381,7.381,0,0,1,.1,14.485a.937.937,0,0,1,.438-.737,7.44,7.44,0,0,1,7.547.418,8.756,8.756,0,0,1,1.952,1.653V14.206a.918.918,0,0,1,.916-.936.935.935,0,0,1,.936.936v1.613a8.645,8.645,0,0,1,1.932-1.653,7.44,7.44,0,0,1,7.547-.418.937.937,0,0,1,.438.737m-1.832.637a5.769,5.769,0,0,0-5.178.617,5.771,5.771,0,0,0-2.907,4.341,5.779,5.779,0,0,0,5.178-.637,5.771,5.771,0,0,0,2.907-4.321M4.842,19.444a5.779,5.779,0,0,0,5.178.637A5.771,5.771,0,0,0,7.113,15.74a5.769,5.769,0,0,0-5.178-.617,5.824,5.824,0,0,0,2.907,4.321" transform="translate(0.082 12.797)"/>
        <path id="Trazado_895794" data-name="Trazado 895794" d="M11.756,25.88a.926.926,0,1,1,0,1.852H8.789a.926.926,0,1,1,0-1.852Z" transform="translate(7.785 25.657)"/>
        <path id="Trazado_895795" data-name="Trazado 895795" d="M8.92,4.145A5.779,5.779,0,0,1,14.1,3.508a5.706,5.706,0,0,1-2.907,4.321,5.779,5.779,0,0,1-5.178.637A5.706,5.706,0,0,1,8.92,4.145" transform="translate(5.961 3.124)" fill="#078c2b"/>
        <path id="Trazado_895796" data-name="Trazado 895796" d="M8.92,14.82A5.769,5.769,0,0,1,14.1,14.2a5.771,5.771,0,0,1-2.907,4.321,5.779,5.779,0,0,1-5.178.637A5.771,5.771,0,0,1,8.92,14.82" transform="translate(5.961 13.717)" fill="#078c2b"/>
        <path id="Trazado_895797" data-name="Trazado 895797" d="M10.145,11.9v1.016a.926.926,0,1,1-1.852,0V11.9a.926.926,0,0,1,1.852,0" transform="translate(8.221 10.885)"/>
        <path id="Trazado_895798" data-name="Trazado 895798" d="M10.145,1.226V2.242a.926.926,0,0,1-1.852,0V1.226a.926.926,0,1,1,1.852,0" transform="translate(8.221 0.288)"/>
        <path id="Trazado_895799" data-name="Trazado 895799" d="M8.265,11.606v2.25a.926.926,0,0,1-1.852,0v-2.25a.926.926,0,0,1,1.852,0" transform="translate(6.358 10.598)"/>
        <path id="Trazado_895800" data-name="Trazado 895800" d="M8.265.936v2.23a.926.926,0,0,1-1.852,0V.936a.926.926,0,1,1,1.852,0" transform="translate(6.358 0)"/>
        <path id="Trazado_895801" data-name="Trazado 895801" d="M8.756,25.88a.926.926,0,1,1,0,1.852H5.789a.926.926,0,0,1,0-1.852Z" transform="translate(4.831 25.657)"/>
        <path id="Trazado_895802" data-name="Trazado 895802" d="M5.595,11.606v2.25a.926.926,0,0,1-1.852,0v-2.25a.926.926,0,0,1,1.852,0" transform="translate(3.711 10.598)"/>
        <path id="Trazado_895803" data-name="Trazado 895803" d="M5.595.936v2.23a.926.926,0,0,1-1.852,0V.936a.926.926,0,1,1,1.852,0" transform="translate(3.711 0)"/>
        <path id="Trazado_895804" data-name="Trazado 895804" d="M9.1,8.47A5.779,5.779,0,0,1,3.92,7.833,5.757,5.757,0,0,1,1.013,3.512a5.718,5.718,0,0,1,5.178.637A5.706,5.706,0,0,1,9.1,8.47" transform="translate(1.004 3.119)" fill="#078c2b"/>
        <path id="Trazado_895805" data-name="Trazado 895805" d="M9.1,19.161a5.779,5.779,0,0,1-5.178-.637A5.824,5.824,0,0,1,1.013,14.2a5.769,5.769,0,0,1,5.178.617A5.771,5.771,0,0,1,9.1,19.161" transform="translate(1.004 13.717)" fill="#078c2b"/>
        <path id="Trazado_895806" data-name="Trazado 895806" d="M7.571,25.88a.926.926,0,0,1,0,1.852H1.019a.926.926,0,1,1,0-1.852H7.571Z" transform="translate(0.082 25.657)"/>
        <path id="Trazado_895807" data-name="Trazado 895807" d="M7.391,22.56a.931.931,0,0,1,.916.936.914.914,0,0,1-.916.916H1.019A.918.918,0,0,1,.083,23.5a.935.935,0,0,1,.936-.936Z" transform="translate(0.082 22.365)"/>
        <path id="Trazado_895808" data-name="Trazado 895808" d="M3.715,11.9v1.016a.926.926,0,1,1-1.852,0V11.9a.926.926,0,0,1,1.852,0" transform="translate(1.847 10.885)"/>
        <path id="Trazado_895809" data-name="Trazado 895809" d="M3.715,1.226V2.242a.926.926,0,0,1-1.852,0V1.226a.926.926,0,1,1,1.852,0" transform="translate(1.847 0.288)"/>
      </g>
    </g>
  </g>
</svg>
