<svg xmlns="http://www.w3.org/2000/svg" xmlns:xlink="http://www.w3.org/1999/xlink" width="73" height="73" viewBox="0 0 73 73">
  <defs>
    <clipPath id="clip-path">
      <rect id="Rectángulo_403718" data-name="Rectángulo 403718" width="41.235" height="48.486" fill="#f6fbed" stroke="#fff" stroke-width="1"/>
    </clipPath>
  </defs>
  <g id="Grupo_1108116" data-name="Grupo 1108116" transform="translate(-291.051 -2057)">
    <g id="Grupo_1108115" data-name="Grupo 1108115">
      <circle id="Elipse_11715" data-name="Elipse 11715" cx="36.5" cy="36.5" r="36.5" transform="translate(291.051 2057)" fill="#65802c"/>
    </g>
    <g id="Grupo_1107986" data-name="Grupo 1107986" transform="translate(307.051 2069)">
      <g id="Grupo_1107985" data-name="Grupo 1107985" clip-path="url(#clip-path)">
        <path id="Trazado_899621" data-name="Trazado 899621" d="M82.785,41.622a5.486,5.486,0,0,1-2.4-.553,5.357,5.357,0,0,1-2.76-3.119,5.5,5.5,0,1,1,6.948,3.376,5.576,5.576,0,0,1-1.789.3m.088-9.736a4.408,4.408,0,0,0-1.417.235A4.333,4.333,0,0,0,78.7,37.585a4.229,4.229,0,0,0,2.18,2.462,4.378,4.378,0,0,0,6.084-5.262,4.306,4.306,0,0,0-4.092-2.9" transform="translate(-60.223 -23.944)" fill="#f6fbed" stroke="#fff" stroke-width="1"/>
        <path id="Trazado_899622" data-name="Trazado 899622" d="M54.106,32.834a.566.566,0,0,1-.237-.052L50.3,31.137a.568.568,0,0,1,.475-1.031l3.573,1.644a.568.568,0,0,1-.238,1.083" transform="translate(-38.906 -23.402)" fill="#f6fbed" stroke="#fff" stroke-width="1"/>
        <path id="Trazado_899623" data-name="Trazado 899623" d="M135.055,73.046a.566.566,0,0,1-.279-.074l-4.07-2.306a.568.568,0,0,1,.56-.988l4.071,2.306a.568.568,0,0,1-.28,1.061" transform="translate(-101.55 -54.198)" fill="#f6fbed" stroke="#fff" stroke-width="1"/>
        <path id="Trazado_899624" data-name="Trazado 899624" d="M101.3,5.233h-.015a.567.567,0,0,1-.552-.582l.11-4.1A.561.561,0,0,1,101.424,0a.567.567,0,0,1,.552.582l-.11,4.1a.567.567,0,0,1-.567.552" transform="translate(-78.435 -0.001)" fill="#f6fbed" stroke="#fff" stroke-width="1"/>
        <path id="Trazado_899625" data-name="Trazado 899625" d="M133.519,26.063a.568.568,0,0,1-.3-1.047l3.6-2.287a.568.568,0,0,1,.608.958l-3.6,2.287a.564.564,0,0,1-.3.089" transform="translate(-103.523 -17.629)" fill="#f6fbed" stroke="#fff" stroke-width="1"/>
        <path id="Trazado_899626" data-name="Trazado 899626" d="M93,93.147a.568.568,0,0,1-.565-.628l.361-3.376a.568.568,0,0,1,1.129.121l-.361,3.376a.568.568,0,0,1-.564.507" transform="translate(-71.973 -69.017)" fill="#f6fbed" stroke="#fff" stroke-width="1"/>
        <path id="Trazado_899627" data-name="Trazado 899627" d="M52.273,72.34a.568.568,0,0,1-.252-1.077l3.025-1.494a.568.568,0,1,1,.5,1.018l-3.025,1.494a.564.564,0,0,1-.251.059" transform="translate(-40.261 -54.28)" fill="#f6fbed" stroke="#fff" stroke-width="1"/>
        <path id="Trazado_899628" data-name="Trazado 899628" d="M7.5,164.62a7.47,7.47,0,0,1-5.745-2.16,7.147,7.147,0,0,1-1.7-5.585.566.566,0,0,1,.61-.5A10.141,10.141,0,0,1,7.243,159.5a6.065,6.065,0,0,1,1.416,4.588.567.567,0,0,1-.539.519q-.317.015-.622.015m.6-.581h0Zm-6.957-6.461a5.888,5.888,0,0,0,1.449,4.111,6.456,6.456,0,0,0,4.965,1.8,4.892,4.892,0,0,0-1.174-3.254,8.753,8.753,0,0,0-5.24-2.654" transform="translate(0 -121.764)" fill="#f6fbed" stroke="#fff" stroke-width="1"/>
        <path id="Trazado_899629" data-name="Trazado 899629" d="M35.411,164.622q-.306,0-.622-.015a.568.568,0,0,1-.539-.519,6.065,6.065,0,0,1,1.416-4.588,10.141,10.141,0,0,1,6.582-3.119.566.566,0,0,1,.61.5,7.147,7.147,0,0,1-1.7,5.585,7.471,7.471,0,0,1-5.745,2.16m-.053-1.135a6.443,6.443,0,0,0,4.965-1.8,5.887,5.887,0,0,0,1.449-4.111,8.755,8.755,0,0,0-5.24,2.653,4.893,4.893,0,0,0-1.174,3.254" transform="translate(-26.648 -121.765)" fill="#f6fbed" stroke="#fff" stroke-width="1"/>
        <path id="Trazado_899630" data-name="Trazado 899630" d="M34.1,192.869a.567.567,0,0,1-.564-.516,26.01,26.01,0,0,1,0-6.232.568.568,0,1,1,1.131.1,25.166,25.166,0,0,0,0,6.026.567.567,0,0,1-.513.617l-.052,0" transform="translate(-25.963 -144.521)" fill="#f6fbed" stroke="#fff" stroke-width="1"/>
        <path id="Trazado_899631" data-name="Trazado 899631" d="M120.329,164.62a7.47,7.47,0,0,1-5.745-2.16,7.147,7.147,0,0,1-1.7-5.585.565.565,0,0,1,.61-.5,10.141,10.141,0,0,1,6.582,3.119,6.064,6.064,0,0,1,1.416,4.588.568.568,0,0,1-.539.519q-.316.015-.622.015m.6-.581h0Zm-6.957-6.461a5.888,5.888,0,0,0,1.449,4.111,6.456,6.456,0,0,0,4.965,1.8,4.893,4.893,0,0,0-1.174-3.254,8.753,8.753,0,0,0-5.24-2.654" transform="translate(-87.857 -121.764)" fill="#f6fbed" stroke="#fff" stroke-width="1"/>
        <path id="Trazado_899632" data-name="Trazado 899632" d="M148.243,164.622q-.306,0-.622-.015a.568.568,0,0,1-.539-.519A6.065,6.065,0,0,1,148.5,159.5a10.141,10.141,0,0,1,6.582-3.119.567.567,0,0,1,.61.5,7.148,7.148,0,0,1-1.7,5.585,7.471,7.471,0,0,1-5.745,2.16m-.053-1.135a6.466,6.466,0,0,0,4.965-1.8,5.888,5.888,0,0,0,1.449-4.111,8.755,8.755,0,0,0-5.24,2.653,4.893,4.893,0,0,0-1.174,3.254" transform="translate(-114.505 -121.765)" fill="#f6fbed" stroke="#fff" stroke-width="1"/>
        <path id="Trazado_899633" data-name="Trazado 899633" d="M146.929,192.869a.567.567,0,0,1-.564-.516,26.011,26.011,0,0,1,0-6.232.568.568,0,0,1,1.131.1,25.168,25.168,0,0,0,0,6.026.567.567,0,0,1-.513.617l-.052,0" transform="translate(-113.82 -144.521)" fill="#f6fbed" stroke="#fff" stroke-width="1"/>
        <path id="Trazado_899634" data-name="Trazado 899634" d="M58.978,115.417c-3.005,0-5.337-.874-6.938-2.6a8.616,8.616,0,0,1-2.049-6.733.565.565,0,0,1,.61-.5,12.278,12.278,0,0,1,7.969,3.773,7.3,7.3,0,0,1,1.7,5.522.568.568,0,0,1-.539.519q-.384.018-.755.018m.729-.585h0Zm-8.636-8.053a7.365,7.365,0,0,0,1.8,5.264c1.409,1.521,3.52,2.273,6.3,2.238a6.126,6.126,0,0,0-1.466-4.19,10.9,10.9,0,0,0-6.632-3.311" transform="translate(-38.878 -82.213)" fill="#f6fbed" stroke="#fff" stroke-width="1"/>
        <path id="Trazado_899635" data-name="Trazado 899635" d="M93.14,115.416q-.371,0-.755-.018a.567.567,0,0,1-.539-.519,7.3,7.3,0,0,1,1.7-5.522,12.276,12.276,0,0,1,7.969-3.773.566.566,0,0,1,.61.5,8.618,8.618,0,0,1-2.05,6.733c-1.6,1.728-3.933,2.6-6.938,2.6m-.19-1.136c2.777.041,4.886-.716,6.3-2.237a7.366,7.366,0,0,0,1.8-5.264,10.9,10.9,0,0,0-6.632,3.311,6.124,6.124,0,0,0-1.466,4.19" transform="translate(-71.49 -82.212)" fill="#f6fbed" stroke="#fff" stroke-width="1"/>
        <path id="Trazado_899636" data-name="Trazado 899636" d="M91.536,158.549a.567.567,0,0,1-.564-.516,143.815,143.815,0,0,1,0-16.167.568.568,0,0,1,1.131.1,142.046,142.046,0,0,0,0,15.961.567.567,0,0,1-.513.617l-.052,0" transform="translate(-70.657 -110.063)" fill="#f6fbed" stroke="#fff" stroke-width="1"/>
      </g>
    </g>
  </g>
</svg>
