<svg xmlns="http://www.w3.org/2000/svg" xmlns:xlink="http://www.w3.org/1999/xlink" width="73" height="73" viewBox="0 0 73 73">
  <defs>
    <clipPath id="clip-path">
      <rect id="Rectángulo_403719" data-name="Rectángulo 403719" width="44.855" height="45.355" fill="#fff" stroke="#fff" stroke-width="1"/>
    </clipPath>
  </defs>
  <g id="Grupo_1107989" data-name="Grupo 1107989" transform="translate(-659.051 -2057)">
    <circle id="Elipse_11716" data-name="Elipse 11716" cx="36.5" cy="36.5" r="36.5" transform="translate(659.051 2057)" fill="#65802c"/>
    <g id="Grupo_1107988" data-name="Grupo 1107988" transform="translate(675.262 2070.17)">
      <g id="Grupo_1107987" data-name="Grupo 1107987" clip-path="url(#clip-path)">
        <path id="Trazado_899637" data-name="Trazado 899637" d="M127.882,52.172a.615.615,0,0,1-.435-.18l-9.408-9.408a.616.616,0,1,1,.871-.871l9.408,9.408a.616.616,0,0,1-.435,1.051" transform="translate(-89.559 -31.56)" fill="#fff" stroke="#fff" stroke-width="1"/>
        <path id="Trazado_899638" data-name="Trazado 899638" d="M33.265,69.174H8.132A8.141,8.141,0,0,1,0,61.042V43.471A11.232,11.232,0,0,1,10.724,32.235c4.725-.22,15.6-.883,15.707-.889a.61.61,0,0,1,.473.179.623.623,0,0,1,.006.877.614.614,0,0,1-.509.18c-1.135.069-11.137.675-15.621.884A10,10,0,0,0,1.232,43.471v17.57a6.908,6.908,0,0,0,6.9,6.9H33.265a6.908,6.908,0,0,0,6.9-6.9V46.489a.616.616,0,0,1,.981-.721l.07.07a.617.617,0,0,1,.18.436V61.042a8.141,8.141,0,0,1-8.132,8.132" transform="translate(0 -23.819)" fill="#fff" stroke="#fff" stroke-width="1"/>
        <path id="Trazado_899639" data-name="Trazado 899639" d="M20.521,25.248a.625.625,0,0,1-.111-.01.615.615,0,0,1-.5-.716l1.035-5.688a.616.616,0,0,1,1.211.22l-1.035,5.688a.616.616,0,0,1-.605.505" transform="translate(-15.126 -13.928)" fill="#fff" stroke="#fff" stroke-width="1"/>
        <path id="Trazado_899640" data-name="Trazado 899640" d="M64.586,23.1a.616.616,0,0,1-.606-.509L63.36,19.05a.616.616,0,0,1,1.213-.213l.621,3.537a.615.615,0,0,1-.5.713.627.627,0,0,1-.107.009" transform="translate(-48.139 -13.927)" fill="#fff" stroke="#fff" stroke-width="1"/>
        <path id="Trazado_899641" data-name="Trazado 899641" d="M26.683,5.633H15.438a2.149,2.149,0,0,1-2.146-2.146v-.7A2.787,2.787,0,0,1,16.076,0h9.968a2.787,2.787,0,0,1,2.784,2.784v.7a2.148,2.148,0,0,1-2.146,2.146m-10.607-4.4a1.554,1.554,0,0,0-1.553,1.553v.7a.915.915,0,0,0,.915.914H26.683a.915.915,0,0,0,.914-.914v-.7a1.554,1.554,0,0,0-1.553-1.553Z" transform="translate(-10.1)" fill="#fff" stroke="#fff" stroke-width="1"/>
        <path id="Trazado_899642" data-name="Trazado 899642" d="M26.765,3.15a.616.616,0,0,1-.616-.616v-1.1a.616.616,0,1,1,1.231,0v1.1a.616.616,0,0,1-.616.616" transform="translate(-19.87 -0.622)" fill="#fff" stroke="#fff" stroke-width="1"/>
        <path id="Trazado_899643" data-name="Trazado 899643" d="M57.747,3.15a.616.616,0,0,1-.616-.616v-1.1a.616.616,0,1,1,1.231,0v1.1a.616.616,0,0,1-.616.616" transform="translate(-43.413 -0.622)" fill="#fff" stroke="#fff" stroke-width="1"/>
        <path id="Trazado_899644" data-name="Trazado 899644" d="M43.074,3.15a.616.616,0,0,1-.616-.616v-1.1a.616.616,0,1,1,1.231,0v1.1a.616.616,0,0,1-.616.616" transform="translate(-32.263 -0.622)" fill="#fff" stroke="#fff" stroke-width="1"/>
        <path id="Trazado_899645" data-name="Trazado 899645" d="M122.568,36.079a.616.616,0,0,1-.419-1.067l1.838-1.71a4.693,4.693,0,0,0,.186-6.685L117.7,19.879a4.7,4.7,0,0,0-6.414-.333L108.735,21.7a.616.616,0,0,1-.795-.941l2.554-2.157a5.938,5.938,0,0,1,8.1.42l6.469,6.739a5.924,5.924,0,0,1-.236,8.439l-1.838,1.71a.613.613,0,0,1-.419.165" transform="translate(-81.856 -13.079)" fill="#fff" stroke="#fff" stroke-width="1"/>
        <path id="Trazado_899646" data-name="Trazado 899646" d="M127.882,45.07A.616.616,0,0,1,127.463,44l1.486-1.382a2.021,2.021,0,0,0,.082-2.878l-5.484-5.707a2.015,2.015,0,0,0-2.755-.143l-1.922,1.623a.616.616,0,1,1-.794-.941L120,32.954a3.249,3.249,0,0,1,4.438.231l5.484,5.707a3.253,3.253,0,0,1-.132,4.631L128.3,44.905a.613.613,0,0,1-.419.165" transform="translate(-89.559 -24.458)" fill="#fff" stroke="#fff" stroke-width="1"/>
        <path id="Trazado_899647" data-name="Trazado 899647" d="M44.523,87.554A11.584,11.584,0,1,1,56.107,75.97,11.6,11.6,0,0,1,44.523,87.554m0-21.937A10.353,10.353,0,1,0,54.876,75.97,10.365,10.365,0,0,0,44.523,65.618" transform="translate(-25.03 -48.926)" fill="#fff" stroke="#fff" stroke-width="1"/>
        <path id="Trazado_899648" data-name="Trazado 899648" d="M72.126,116.64a.616.616,0,0,1-.61-.54,19.331,19.331,0,0,1,1.548-10.307.616.616,0,1,1,1.123.5,18.1,18.1,0,0,0-1.45,9.65.616.616,0,0,1-.535.687.639.639,0,0,1-.077,0" transform="translate(-54.231 -80.115)" fill="#fff" stroke="#fff" stroke-width="1"/>
        <path id="Trazado_899649" data-name="Trazado 899649" d="M61.94,93.163a.616.616,0,0,1-.058-1.229,4.429,4.429,0,0,0,3.447-2.593,6.487,6.487,0,0,0,.2-4.6c-.167-.556-.39-1.1-.627-1.673a12.022,12.022,0,0,1-.911-2.882,12.432,12.432,0,0,0-4.186,2.4,7.016,7.016,0,0,0-2.369,4.5,4.733,4.733,0,0,0,2,4.321.616.616,0,1,1-.658,1.041,5.912,5.912,0,0,1-2.565-5.457,8.254,8.254,0,0,1,2.766-5.311,14.711,14.711,0,0,1,5.379-2.925.615.615,0,0,1,.812.593,8.437,8.437,0,0,0,.874,3.256c.237.577.483,1.173.668,1.788a7.714,7.714,0,0,1-.264,5.472A5.68,5.68,0,0,1,62,93.16l-.059,0" transform="translate(-42.698 -59.819)" fill="#fff" stroke="#fff" stroke-width="1"/>
      </g>
    </g>
  </g>
</svg>
