<svg xmlns="http://www.w3.org/2000/svg" xmlns:xlink="http://www.w3.org/1999/xlink" width="73" height="73" viewBox="0 0 73 73">
  <defs>
    <clipPath id="clip-path">
      <rect id="Rectángulo_403720" data-name="Rectángulo 403720" width="48.15" height="55.589" fill="#fff" stroke="#fff" stroke-width="1"/>
    </clipPath>
  </defs>
  <g id="Grupo_1107990" data-name="Grupo 1107990" transform="translate(-659.051 -2057)">
    <circle id="Elipse_11716" data-name="Elipse 11716" cx="36.5" cy="36.5" r="36.5" transform="translate(659.051 2057)" fill="#65802c"/>
    <g id="Grupo_1107992" data-name="Grupo 1107992" transform="translate(672.905 2065.705)">
      <g id="Grupo_1107991" data-name="Grupo 1107991" clip-path="url(#clip-path)">
        <path id="Trazado_899650" data-name="Trazado 899650" d="M15.909,131.889a6.275,6.275,0,0,1-4.826-1.824,6.03,6.03,0,0,1-1.439-4.711.671.671,0,0,1,.725-.589,8.466,8.466,0,0,1,5.5,2.611,5.138,5.138,0,0,1,1.2,3.886.675.675,0,0,1-.641.616q-.263.012-.516.012m.485-.685h0Zm-5.444-5a4.511,4.511,0,0,0,1.122,2.946,4.905,4.905,0,0,0,3.663,1.39,3.75,3.75,0,0,0-.9-2.293A6.89,6.89,0,0,0,10.95,126.2" transform="translate(-7.077 -91.958)" fill="#fff" stroke="#fff" stroke-width="1"/>
        <path id="Trazado_899651" data-name="Trazado 899651" d="M34.206,131.888q-.254,0-.516-.012a.675.675,0,0,1-.641-.616,5.138,5.138,0,0,1,1.2-3.886,8.467,8.467,0,0,1,5.5-2.611.673.673,0,0,1,.725.589,6.03,6.03,0,0,1-1.439,4.711,6.275,6.275,0,0,1-4.826,1.824m4.959-5.687a6.891,6.891,0,0,0-3.886,2.043,3.75,3.75,0,0,0-.9,2.294,4.905,4.905,0,0,0,3.663-1.39,4.511,4.511,0,0,0,1.122-2.946" transform="translate(-24.343 -91.958)" fill="#fff" stroke="#fff" stroke-width="1"/>
        <path id="Trazado_899652" data-name="Trazado 899652" d="M33.25,152.3a.674.674,0,0,1-.67-.613,32.538,32.538,0,0,1,0-6.3.674.674,0,0,1,1.343.122,31.272,31.272,0,0,0,0,6.059.674.674,0,0,1-.61.733l-.062,0" transform="translate(-23.899 -106.703)" fill="#fff" stroke="#fff" stroke-width="1"/>
        <path id="Trazado_899653" data-name="Trazado 899653" d="M112.739,131.889a6.275,6.275,0,0,1-4.827-1.824,6.03,6.03,0,0,1-1.438-4.711.671.671,0,0,1,.725-.589,8.466,8.466,0,0,1,5.5,2.611,5.139,5.139,0,0,1,1.2,3.886.675.675,0,0,1-.641.616q-.263.012-.516.012m.485-.685h0Zm-5.444-5a4.509,4.509,0,0,0,1.121,2.946,4.905,4.905,0,0,0,3.663,1.39,3.75,3.75,0,0,0-.9-2.293,6.891,6.891,0,0,0-3.885-2.043" transform="translate(-78.448 -91.958)" fill="#fff" stroke="#fff" stroke-width="1"/>
        <path id="Trazado_899654" data-name="Trazado 899654" d="M131.035,131.888q-.254,0-.516-.012a.675.675,0,0,1-.641-.616,5.138,5.138,0,0,1,1.2-3.886,8.466,8.466,0,0,1,5.5-2.611.673.673,0,0,1,.725.589,6.03,6.03,0,0,1-1.439,4.711,6.275,6.275,0,0,1-4.826,1.824m4.959-5.687a6.89,6.89,0,0,0-3.885,2.043,3.747,3.747,0,0,0-.9,2.294,4.905,4.905,0,0,0,3.663-1.39,4.511,4.511,0,0,0,1.122-2.946" transform="translate(-95.713 -91.958)" fill="#fff" stroke="#fff" stroke-width="1"/>
        <path id="Trazado_899655" data-name="Trazado 899655" d="M130.079,152.3a.674.674,0,0,1-.671-.613,32.537,32.537,0,0,1,0-6.3.674.674,0,0,1,1.343.122,31.247,31.247,0,0,0,0,6.059.674.674,0,0,1-.61.733l-.062,0" transform="translate(-95.27 -106.703)" fill="#fff" stroke="#fff" stroke-width="1"/>
        <path id="Trazado_899656" data-name="Trazado 899656" d="M60.768,102.592a7.537,7.537,0,0,1-5.8-2.185,7.224,7.224,0,0,1-1.721-5.644.672.672,0,0,1,.725-.589A10.2,10.2,0,0,1,60.6,97.316a6.142,6.142,0,0,1,1.434,4.645.675.675,0,0,1-.641.616q-.318.015-.624.015m.593-.688h0Zm-6.815-6.3a5.718,5.718,0,0,0,1.415,3.888,6.23,6.23,0,0,0,4.75,1.752,4.752,4.752,0,0,0-1.141-3.057A8.67,8.67,0,0,0,54.546,95.6" transform="translate(-39.211 -69.411)" fill="#fff" stroke="#fff" stroke-width="1"/>
        <path id="Trazado_899657" data-name="Trazado 899657" d="M83.157,102.592q-.307,0-.624-.015a.675.675,0,0,1-.641-.616,6.14,6.14,0,0,1,1.434-4.645,10.2,10.2,0,0,1,6.624-3.142.674.674,0,0,1,.725.589,7.225,7.225,0,0,1-1.721,5.644,7.538,7.538,0,0,1-5.8,2.184M89.379,95.6a8.668,8.668,0,0,0-5.023,2.583,4.75,4.75,0,0,0-1.141,3.057,6.229,6.229,0,0,0,4.749-1.752A5.718,5.718,0,0,0,89.379,95.6" transform="translate(-60.34 -69.411)" fill="#fff" stroke="#fff" stroke-width="1"/>
        <path id="Trazado_899658" data-name="Trazado 899658" d="M81.992,133.062a.675.675,0,0,1-.671-.613,117.474,117.474,0,0,1,0-13.183.674.674,0,1,1,1.343.122,115.306,115.306,0,0,0,0,12.938.674.674,0,0,1-.61.733l-.062,0" transform="translate(-59.802 -87.456)" fill="#fff" stroke="#fff" stroke-width="1"/>
        <path id="Trazado_899659" data-name="Trazado 899659" d="M73.856,11.144a3.508,3.508,0,0,1-3.188-2.016c-.732-1.7.1-3.526.782-4.753q.114-.2.229-.406A8.4,8.4,0,0,0,73,.615a.674.674,0,0,1,1.346.063,5.331,5.331,0,0,0,1.311,2.751,7.2,7.2,0,0,1,1.73,4,3.776,3.776,0,0,1-2.657,3.6,3.246,3.246,0,0,1-.873.118m-.13-8.176c-.259.579-.57,1.126-.875,1.665l-.225.4c-.869,1.555-1.1,2.687-.72,3.561a2.154,2.154,0,0,0,2.462,1.134,2.423,2.423,0,0,0,1.67-2.285,6.017,6.017,0,0,0-1.482-3.234c-.287-.406-.578-.816-.83-1.241" transform="translate(-51.877 0)" fill="#fff" stroke="#fff" stroke-width="1"/>
        <path id="Trazado_899660" data-name="Trazado 899660" d="M73.856,59.5a3.508,3.508,0,0,1-3.188-2.016c-.732-1.7.1-3.526.782-4.753q.114-.2.229-.406A8.4,8.4,0,0,0,73,48.972a.674.674,0,0,1,1.346.063,5.332,5.332,0,0,0,1.311,2.751,7.2,7.2,0,0,1,1.73,4,3.776,3.776,0,0,1-2.657,3.6,3.256,3.256,0,0,1-.873.118m-.13-8.176c-.26.579-.57,1.126-.875,1.665l-.225.4c-.869,1.555-1.1,2.687-.72,3.561a2.153,2.153,0,0,0,2.462,1.134,2.422,2.422,0,0,0,1.67-2.285,6.017,6.017,0,0,0-1.482-3.234c-.287-.406-.578-.817-.83-1.241" transform="translate(-51.877 -35.643)" fill="#fff" stroke="#fff" stroke-width="1"/>
        <path id="Trazado_899661" data-name="Trazado 899661" d="M23.728,59.5a3.507,3.507,0,0,1-3.188-2.016c-.732-1.7.1-3.525.781-4.753q.114-.2.229-.406a8.4,8.4,0,0,0,1.321-3.353.674.674,0,0,1,1.346.063,5.333,5.333,0,0,0,1.311,2.751,7.2,7.2,0,0,1,1.73,4,3.775,3.775,0,0,1-2.657,3.6,3.256,3.256,0,0,1-.873.118m-.13-8.176c-.26.579-.57,1.126-.875,1.665l-.225.4c-.869,1.555-1.1,2.687-.72,3.561a2.152,2.152,0,0,0,2.462,1.134A2.422,2.422,0,0,0,25.91,55.8a6.017,6.017,0,0,0-1.482-3.234c-.287-.406-.578-.817-.83-1.241" transform="translate(-14.928 -35.643)" fill="#fff" stroke="#fff" stroke-width="1"/>
        <path id="Trazado_899662" data-name="Trazado 899662" d="M120.772,59.5a3.508,3.508,0,0,1-3.188-2.016c-.732-1.7.1-3.525.781-4.753q.114-.2.228-.405a8.4,8.4,0,0,0,1.321-3.354.674.674,0,0,1,1.346.063,5.333,5.333,0,0,0,1.311,2.751,7.2,7.2,0,0,1,1.73,4,3.776,3.776,0,0,1-2.657,3.6,3.256,3.256,0,0,1-.873.118m-.13-8.176c-.259.579-.57,1.127-.876,1.666l-.225.4c-.869,1.555-1.1,2.687-.72,3.561a2.153,2.153,0,0,0,2.462,1.134,2.422,2.422,0,0,0,1.67-2.285,6.017,6.017,0,0,0-1.482-3.234c-.287-.406-.578-.817-.83-1.241" transform="translate(-86.457 -35.643)" fill="#fff" stroke="#fff" stroke-width="1"/>
        <path id="Trazado_899663" data-name="Trazado 899663" d="M47.475,170.478H.674a.674.674,0,1,1,0-1.348h46.8a.674.674,0,1,1,0,1.348" transform="translate(0 -124.661)" fill="#fff" stroke="#fff" stroke-width="1"/>
        <path id="Trazado_899664" data-name="Trazado 899664" d="M77.845,185.419h0a.674.674,0,0,1-.673-.675.422.422,0,0,0-.366-.377.417.417,0,0,0-.385.357.674.674,0,1,1-1.346-.067,1.757,1.757,0,0,1,1.725-1.639h.042a1.756,1.756,0,0,1,1.68,1.727.674.674,0,0,1-.674.673" transform="translate(-55.333 -134.898)" fill="#fff" stroke="#fff" stroke-width="1"/>
        <path id="Trazado_899665" data-name="Trazado 899665" d="M129.306,184.336h0a.674.674,0,0,1-.673-.675.422.422,0,0,0-.366-.376.43.43,0,0,0-.385.357.674.674,0,1,1-1.346-.067,1.758,1.758,0,0,1,1.725-1.639h.042a1.757,1.757,0,0,1,1.68,1.727.674.674,0,0,1-.674.673" transform="translate(-93.264 -134.1)" fill="#fff" stroke="#fff" stroke-width="1"/>
        <path id="Trazado_899666" data-name="Trazado 899666" d="M103.846,204.7h0a.674.674,0,0,1-.673-.675.422.422,0,0,0-.366-.377H102.8a.424.424,0,0,0-.379.357.674.674,0,1,1-1.346-.067A1.758,1.758,0,0,1,102.8,202.3h.042a1.757,1.757,0,0,1,1.68,1.727.674.674,0,0,1-.674.673" transform="translate(-74.498 -149.106)" fill="#fff" stroke="#fff" stroke-width="1"/>
        <path id="Trazado_899667" data-name="Trazado 899667" d="M32.883,185.419h0a.674.674,0,0,1-.673-.675.422.422,0,0,0-.366-.376.427.427,0,0,0-.385.357.674.674,0,1,1-1.346-.067,1.724,1.724,0,0,1,3.446.089.674.674,0,0,1-.674.673" transform="translate(-22.193 -134.898)" fill="#fff" stroke="#fff" stroke-width="1"/>
        <path id="Trazado_899668" data-name="Trazado 899668" d="M50.218,204.7h0a.674.674,0,0,1-.673-.676.422.422,0,0,0-.366-.376h-.006a.424.424,0,0,0-.379.357.674.674,0,1,1-1.346-.067,1.724,1.724,0,0,1,3.446.089.674.674,0,0,1-.674.673" transform="translate(-34.97 -149.107)" fill="#fff" stroke="#fff" stroke-width="1"/>
      </g>
    </g>
  </g>
</svg>
