<svg xmlns="http://www.w3.org/2000/svg" xmlns:xlink="http://www.w3.org/1999/xlink" width="85" height="95" viewBox="0 0 85 95">
  <defs>
    <clipPath id="clip-path">
      <rect id="Rect치ngulo_402995" data-name="Rect치ngulo 402995" width="61.808" height="47.125" fill="none"/>
    </clipPath>
  </defs>
  <g id="_2" data-name="2" transform="translate(-180 -726)">
    <rect id="Rect치ngulo_402759" data-name="Rect치ngulo 402759" width="85" height="95" rx="8" transform="translate(180 726)" fill="#bdaf7f"/>
    <g id="Grupo_1106654" data-name="Grupo 1106654" transform="translate(190.837 749.938)">
      <g id="Grupo_1106653" data-name="Grupo 1106653" transform="translate(0 0)" clip-path="url(#clip-path)">
        <path id="Trazado_895751" data-name="Trazado 895751" d="M60.125,31.723H1.408A1.409,1.409,0,0,1,0,30.315V21.089a1.408,1.408,0,0,1,1.408-1.408H60.125a1.407,1.407,0,0,1,1.408,1.408v9.226a1.408,1.408,0,0,1-1.408,1.408" transform="translate(0 14.913)" fill="#fff296"/>
        <path id="Trazado_895752" data-name="Trazado 895752" d="M60.125,17.8H1.408A1.409,1.409,0,0,1,0,16.388V10.765A1.409,1.409,0,0,1,1.408,9.357H60.125a1.408,1.408,0,0,1,1.408,1.408v5.623A1.408,1.408,0,0,1,60.125,17.8" transform="translate(0 7.09)" fill="#fff296"/>
        <path id="Trazado_895753" data-name="Trazado 895753" d="M43.424,3.626a6.515,6.515,0,0,1-3.34,5.765,7.456,7.456,0,0,1-3.8,1.107,5.665,5.665,0,0,1-1.635-.246v3.164h7.963a.81.81,0,0,1,.826.809.825.825,0,0,1-.826.826H31.085a.81.81,0,0,1-.809-.826.8.8,0,0,1,.809-.809h1.934V10.253A5.457,5.457,0,0,1,31.4,10.5a7.456,7.456,0,0,1-3.8-1.107,6.569,6.569,0,0,1-3.357-5.765.864.864,0,0,1,.4-.65,6.522,6.522,0,0,1,6.662.352,8.115,8.115,0,0,1,1.705,1.459V3.363a.822.822,0,0,1,.826-.809.806.806,0,0,1,.809.809V4.786a8.223,8.223,0,0,1,1.723-1.459,6.522,6.522,0,0,1,6.662-.352.8.8,0,0,1,.387.65m-1.635.545a5.059,5.059,0,0,0-4.553.562,5.036,5.036,0,0,0-2.566,3.814,5.1,5.1,0,0,0,4.57-.562A5.058,5.058,0,0,0,41.79,4.171M28.448,7.986a5.1,5.1,0,0,0,4.57.562,5.036,5.036,0,0,0-2.566-3.814,5.1,5.1,0,0,0-4.57-.562,5.036,5.036,0,0,0,2.566,3.814" transform="translate(18.366 1.682)"/>
        <path id="Trazado_895754" data-name="Trazado 895754" d="M43.424,14.3a6.515,6.515,0,0,1-3.34,5.765,7.29,7.29,0,0,1-3.8,1.107,6.328,6.328,0,0,1-1.635-.229v3.146h7.963a.817.817,0,1,1,0,1.635H29.855a.817.817,0,0,1,0-1.635h3.164V20.944a6.09,6.09,0,0,1-1.617.229,7.29,7.29,0,0,1-3.8-1.107A6.569,6.569,0,0,1,24.247,14.3a.9.9,0,0,1,.4-.65,6.567,6.567,0,0,1,6.662.369,7.631,7.631,0,0,1,1.705,1.459V14.054a.825.825,0,0,1,.826-.826.81.81,0,0,1,.809.826v1.424a7.729,7.729,0,0,1,1.723-1.459,6.567,6.567,0,0,1,6.662-.369.827.827,0,0,1,.387.65m-1.635.562a5.051,5.051,0,0,0-4.553.545,5.094,5.094,0,0,0-2.566,3.832,5.1,5.1,0,0,0,4.57-.562,5.117,5.117,0,0,0,2.549-3.814M28.448,18.677a5.1,5.1,0,0,0,4.57.562,5.094,5.094,0,0,0-2.566-3.832,5.039,5.039,0,0,0-4.57-.545,5.094,5.094,0,0,0,2.566,3.814" transform="translate(18.366 9.781)"/>
        <path id="Trazado_895755" data-name="Trazado 895755" d="M39.717,22.56a.825.825,0,0,1,.826.826.81.81,0,0,1-.826.809H28.889a.81.81,0,0,1-.826-.809.825.825,0,0,1,.826-.826H39.717Z" transform="translate(21.265 17.095)"/>
        <path id="Trazado_895756" data-name="Trazado 895756" d="M39.088,25.88a.817.817,0,1,1,0,1.635H29.719a.817.817,0,1,1,0-1.635Z" transform="translate(21.894 19.61)"/>
        <path id="Trazado_895757" data-name="Trazado 895757" d="M32.739,4.028a5.059,5.059,0,0,1,4.553-.562A5.058,5.058,0,0,1,34.743,7.28a5.1,5.1,0,0,1-4.57.562,5.036,5.036,0,0,1,2.566-3.814" transform="translate(22.863 2.388)" fill="#078c2b"/>
        <path id="Trazado_895758" data-name="Trazado 895758" d="M32.739,14.7a5.051,5.051,0,0,1,4.553-.545,5.117,5.117,0,0,1-2.549,3.814,5.1,5.1,0,0,1-4.57.562A5.094,5.094,0,0,1,32.739,14.7" transform="translate(22.863 10.484)" fill="#078c2b"/>
        <path id="Trazado_895759" data-name="Trazado 895759" d="M34.088,11.789v.9a.817.817,0,1,1-1.635,0v-.9a.817.817,0,0,1,1.635,0" transform="translate(24.591 8.32)"/>
        <path id="Trazado_895760" data-name="Trazado 895760" d="M34.088,1.116v.9a.817.817,0,0,1-1.635,0v-.9a.817.817,0,1,1,1.635,0" transform="translate(24.591 0.22)"/>
        <path id="Trazado_895761" data-name="Trazado 895761" d="M32.208,11.5v1.986a.817.817,0,0,1-1.635,0V11.5a.817.817,0,0,1,1.635,0" transform="translate(23.167 8.1)"/>
        <path id="Trazado_895762" data-name="Trazado 895762" d="M32.208.826V2.795a.817.817,0,0,1-1.635,0V.826a.817.817,0,1,1,1.635,0" transform="translate(23.167 0)"/>
        <path id="Trazado_895763" data-name="Trazado 895763" d="M29.538,11.5v1.986a.817.817,0,0,1-1.635,0V11.5a.817.817,0,0,1,1.635,0" transform="translate(21.143 8.1)"/>
        <path id="Trazado_895764" data-name="Trazado 895764" d="M29.538.826V2.795a.817.817,0,0,1-1.635,0V.826a.817.817,0,1,1,1.635,0" transform="translate(21.143 0)"/>
        <path id="Trazado_895765" data-name="Trazado 895765" d="M32.309,7.843a5.1,5.1,0,0,1-4.57-.562,5.036,5.036,0,0,1-2.566-3.814,5.1,5.1,0,0,1,4.57.562,5.036,5.036,0,0,1,2.566,3.814" transform="translate(19.075 2.388)" fill="#078c2b"/>
        <path id="Trazado_895766" data-name="Trazado 895766" d="M32.309,18.538a5.1,5.1,0,0,1-4.57-.562,5.094,5.094,0,0,1-2.566-3.814,5.039,5.039,0,0,1,4.57.545,5.094,5.094,0,0,1,2.566,3.832" transform="translate(19.075 10.482)" fill="#078c2b"/>
        <path id="Trazado_895767" data-name="Trazado 895767" d="M28.475,22.56a.822.822,0,0,1,.809.826.806.806,0,0,1-.809.809H25.469a.81.81,0,0,1-.826-.809.825.825,0,0,1,.826-.826Z" transform="translate(18.673 17.095)"/>
        <path id="Trazado_895768" data-name="Trazado 895768" d="M27.658,11.789v.9a.817.817,0,1,1-1.635,0v-.9a.817.817,0,0,1,1.635,0" transform="translate(19.719 8.32)"/>
        <path id="Trazado_895769" data-name="Trazado 895769" d="M27.658,1.116v.9a.817.817,0,0,1-1.635,0v-.9a.817.817,0,1,1,1.635,0" transform="translate(19.719 0.22)"/>
        <path id="Trazado_895770" data-name="Trazado 895770" d="M27.408,19.27a.817.817,0,1,1,0,1.635H24.7a.817.817,0,0,1,0-1.635Z" transform="translate(18.105 14.602)"/>
        <path id="Trazado_895771" data-name="Trazado 895771" d="M35.627,13.417a.8.8,0,0,1,.809.809.81.81,0,0,1-.809.826H16.133a.822.822,0,0,1-.809-.826.806.806,0,0,1,.809-.809H20.95V10.253a5.665,5.665,0,0,1-1.635.246,7.29,7.29,0,0,1-3.8-1.107,6.515,6.515,0,0,1-3.34-5.765.8.8,0,0,1,.387-.65,6.522,6.522,0,0,1,6.662.352A8.7,8.7,0,0,1,20.95,4.786V3.363a.809.809,0,0,1,1.617,0V4.786a7.729,7.729,0,0,1,1.723-1.459,6.522,6.522,0,0,1,6.662-.352.8.8,0,0,1,.387.65A6.515,6.515,0,0,1,28,9.392,7.456,7.456,0,0,1,24.2,10.5a5.665,5.665,0,0,1-1.635-.246v3.164ZM29.721,4.171a5.1,5.1,0,0,0-4.57.562,5.036,5.036,0,0,0-2.566,3.814,5.1,5.1,0,0,0,4.57-.562,5.082,5.082,0,0,0,2.566-3.814M16.362,7.986a5.047,5.047,0,0,0,4.57.562,5.036,5.036,0,0,0-2.566-3.814,5.047,5.047,0,0,0-4.57-.562,5.036,5.036,0,0,0,2.566,3.814" transform="translate(9.219 1.682)"/>
        <path id="Trazado_895772" data-name="Trazado 895772" d="M30.729,25.88a.817.817,0,1,1,0,1.635H18.372a.817.817,0,0,1,0-1.635Z" transform="translate(13.308 19.61)"/>
        <path id="Trazado_895773" data-name="Trazado 895773" d="M25.037,22.56a.825.825,0,0,1,.826.826.81.81,0,0,1-.826.809H22.032a.806.806,0,0,1-.809-.809.822.822,0,0,1,.809-.826Z" transform="translate(16.082 17.095)"/>
        <path id="Trazado_895774" data-name="Trazado 895774" d="M31.338,14.3A6.515,6.515,0,0,1,28,20.065a7.29,7.29,0,0,1-3.8,1.107,6.328,6.328,0,0,1-1.635-.229v3.146h2.9a.817.817,0,1,1,0,1.635H16.116a.817.817,0,1,1,0-1.635H20.95V20.944a6.327,6.327,0,0,1-1.635.229,7.29,7.29,0,0,1-3.8-1.107,6.515,6.515,0,0,1-3.34-5.765.827.827,0,0,1,.387-.65,6.567,6.567,0,0,1,6.662.369,8.145,8.145,0,0,1,1.723,1.459V14.054a.809.809,0,1,1,1.617,0v1.424a7.292,7.292,0,0,1,1.723-1.459,6.567,6.567,0,0,1,6.662-.369.827.827,0,0,1,.387.65m-1.617.562a5.092,5.092,0,0,0-4.57.545,5.094,5.094,0,0,0-2.566,3.832,5.1,5.1,0,0,0,4.57-.562,5.141,5.141,0,0,0,2.566-3.814M16.362,18.677a5.1,5.1,0,0,0,4.57.562,5.094,5.094,0,0,0-2.566-3.832,5.092,5.092,0,0,0-4.57-.545,5.094,5.094,0,0,0,2.566,3.814" transform="translate(9.219 9.781)"/>
        <path id="Trazado_895775" data-name="Trazado 895775" d="M24.328,19.27a.817.817,0,1,1,0,1.635H21.622a.817.817,0,0,1,0-1.635Z" transform="translate(15.771 14.602)"/>
        <path id="Trazado_895776" data-name="Trazado 895776" d="M20.659,4.028a5.1,5.1,0,0,1,4.57-.562A5.082,5.082,0,0,1,22.663,7.28a5.1,5.1,0,0,1-4.57.562,5.036,5.036,0,0,1,2.566-3.814" transform="translate(13.71 2.388)" fill="#078c2b"/>
        <path id="Trazado_895777" data-name="Trazado 895777" d="M20.659,14.7a5.092,5.092,0,0,1,4.57-.545,5.141,5.141,0,0,1-2.566,3.814,5.1,5.1,0,0,1-4.57.562A5.094,5.094,0,0,1,20.659,14.7" transform="translate(13.71 10.484)" fill="#078c2b"/>
        <path id="Trazado_895778" data-name="Trazado 895778" d="M22.008,11.789v.9a.817.817,0,1,1-1.635,0v-.9a.817.817,0,0,1,1.635,0" transform="translate(15.438 8.32)"/>
        <path id="Trazado_895779" data-name="Trazado 895779" d="M22.008,1.116v.9a.817.817,0,0,1-1.635,0v-.9a.817.817,0,1,1,1.635,0" transform="translate(15.438 0.22)"/>
        <path id="Trazado_895780" data-name="Trazado 895780" d="M21.625,22.56a.825.825,0,0,1,.826.826.81.81,0,0,1-.826.809H18.619a.81.81,0,0,1-.826-.809.825.825,0,0,1,.826-.826Z" transform="translate(13.483 17.095)"/>
        <path id="Trazado_895781" data-name="Trazado 895781" d="M20.128,11.5v1.986a.817.817,0,0,1-1.635,0V11.5a.817.817,0,0,1,1.635,0" transform="translate(14.013 8.1)"/>
        <path id="Trazado_895782" data-name="Trazado 895782" d="M20.128.826V2.795a.817.817,0,0,1-1.635,0V.826a.817.817,0,1,1,1.635,0" transform="translate(14.013 0)"/>
        <path id="Trazado_895783" data-name="Trazado 895783" d="M17.458,11.5v1.986a.817.817,0,0,1-1.635,0V11.5a.817.817,0,0,1,1.635,0" transform="translate(11.99 8.1)"/>
        <path id="Trazado_895784" data-name="Trazado 895784" d="M17.458.826V2.795a.817.817,0,0,1-1.635,0V.826a.817.817,0,1,1,1.635,0" transform="translate(11.99 0)"/>
        <path id="Trazado_895785" data-name="Trazado 895785" d="M23.517,22.56a.822.822,0,0,1,.809.826.806.806,0,0,1-.809.809H8.189a.81.81,0,0,1-.826-.809.825.825,0,0,1,.826-.826H23.517Z" transform="translate(5.579 17.095)"/>
        <path id="Trazado_895786" data-name="Trazado 895786" d="M20.229,7.846a5.047,5.047,0,0,1-4.57-.562,5.036,5.036,0,0,1-2.566-3.814,5.047,5.047,0,0,1,4.57.562,5.036,5.036,0,0,1,2.566,3.814" transform="translate(9.921 2.384)" fill="#078c2b"/>
        <path id="Trazado_895787" data-name="Trazado 895787" d="M20.229,18.536a5.1,5.1,0,0,1-4.57-.562,5.094,5.094,0,0,1-2.566-3.814,5.092,5.092,0,0,1,4.57.545,5.094,5.094,0,0,1,2.566,3.832" transform="translate(9.921 10.484)" fill="#078c2b"/>
        <path id="Trazado_895788" data-name="Trazado 895788" d="M19.017,25.88a.817.817,0,0,1,0,1.635H11.652a.817.817,0,0,1,0-1.635h7.365Z" transform="translate(8.216 19.61)"/>
        <path id="Trazado_895789" data-name="Trazado 895789" d="M15.578,11.789v.9a.817.817,0,1,1-1.635,0v-.9a.817.817,0,0,1,1.635,0" transform="translate(10.565 8.32)"/>
        <path id="Trazado_895790" data-name="Trazado 895790" d="M15.578,1.116v.9a.817.817,0,0,1-1.635,0v-.9a.817.817,0,1,1,1.635,0" transform="translate(10.565 0.22)"/>
        <path id="Trazado_895791" data-name="Trazado 895791" d="M14.265,8.59a.81.81,0,0,1,.826.809.825.825,0,0,1-.826.826H10.592A.822.822,0,0,1,9.783,9.4a.806.806,0,0,1,.809-.809Z" transform="translate(7.413 6.509)"/>
        <path id="Trazado_895792" data-name="Trazado 895792" d="M19.26,3.626a6.515,6.515,0,0,1-3.34,5.765,7.456,7.456,0,0,1-3.8,1.107,5.457,5.457,0,0,1-1.617-.246v3.164h3.762a.81.81,0,0,1,.826.809.825.825,0,0,1-.826.826H.909a.825.825,0,0,1-.826-.826.81.81,0,0,1,.826-.809H8.872V10.253a5.665,5.665,0,0,1-1.635.246,7.456,7.456,0,0,1-3.8-1.107A6.515,6.515,0,0,1,.1,3.626a.8.8,0,0,1,.387-.65,6.522,6.522,0,0,1,6.662.352A8.222,8.222,0,0,1,8.872,4.786V3.363a.806.806,0,0,1,.809-.809.822.822,0,0,1,.826.809V4.786a8.115,8.115,0,0,1,1.705-1.459,6.522,6.522,0,0,1,6.662-.352.8.8,0,0,1,.387.65m-1.617.545a5.1,5.1,0,0,0-4.57.562,5.036,5.036,0,0,0-2.566,3.814,5.1,5.1,0,0,0,4.57-.562,5.036,5.036,0,0,0,2.566-3.814M4.284,7.986a5.1,5.1,0,0,0,4.57.562A5.036,5.036,0,0,0,6.288,4.734a5.047,5.047,0,0,0-4.57-.562A5.082,5.082,0,0,0,4.284,7.986" transform="translate(0.063 1.682)"/>
        <path id="Trazado_895793" data-name="Trazado 895793" d="M19.26,14.3a6.515,6.515,0,0,1-3.34,5.765,7.29,7.29,0,0,1-3.8,1.107,6.09,6.09,0,0,1-1.617-.229v3.146h7.7a.817.817,0,1,1,0,1.635H.909a.817.817,0,1,1,0-1.635H8.872V20.944a6.328,6.328,0,0,1-1.635.229,7.29,7.29,0,0,1-3.8-1.107A6.515,6.515,0,0,1,.1,14.3a.827.827,0,0,1,.387-.65,6.567,6.567,0,0,1,6.662.369,7.729,7.729,0,0,1,1.723,1.459V14.054a.81.81,0,0,1,.809-.826.825.825,0,0,1,.826.826v1.424a7.631,7.631,0,0,1,1.705-1.459,6.567,6.567,0,0,1,6.662-.369.827.827,0,0,1,.387.65m-1.617.562a5.092,5.092,0,0,0-4.57.545,5.094,5.094,0,0,0-2.566,3.832,5.1,5.1,0,0,0,4.57-.562,5.094,5.094,0,0,0,2.566-3.814M4.284,18.677a5.1,5.1,0,0,0,4.57.562,5.094,5.094,0,0,0-2.566-3.832,5.092,5.092,0,0,0-4.57-.545,5.141,5.141,0,0,0,2.566,3.814" transform="translate(0.063 9.781)"/>
        <path id="Trazado_895794" data-name="Trazado 895794" d="M11.3,25.88a.817.817,0,1,1,0,1.635H8.679a.817.817,0,1,1,0-1.635Z" transform="translate(5.951 19.61)"/>
        <path id="Trazado_895795" data-name="Trazado 895795" d="M8.579,4.028a5.1,5.1,0,0,1,4.57-.562A5.036,5.036,0,0,1,10.583,7.28a5.1,5.1,0,0,1-4.57.562A5.036,5.036,0,0,1,8.579,4.028" transform="translate(4.556 2.388)" fill="#078c2b"/>
        <path id="Trazado_895796" data-name="Trazado 895796" d="M8.579,14.7a5.092,5.092,0,0,1,4.57-.545,5.094,5.094,0,0,1-2.566,3.814,5.1,5.1,0,0,1-4.57.562A5.094,5.094,0,0,1,8.579,14.7" transform="translate(4.556 10.484)" fill="#078c2b"/>
        <path id="Trazado_895797" data-name="Trazado 895797" d="M9.928,11.789v.9a.817.817,0,1,1-1.635,0v-.9a.817.817,0,0,1,1.635,0" transform="translate(6.284 8.32)"/>
        <path id="Trazado_895798" data-name="Trazado 895798" d="M9.928,1.116v.9a.817.817,0,0,1-1.635,0v-.9a.817.817,0,1,1,1.635,0" transform="translate(6.284 0.22)"/>
        <path id="Trazado_895799" data-name="Trazado 895799" d="M8.048,11.5v1.986a.817.817,0,0,1-1.635,0V11.5a.817.817,0,0,1,1.635,0" transform="translate(4.859 8.1)"/>
        <path id="Trazado_895800" data-name="Trazado 895800" d="M8.048.826V2.795a.817.817,0,0,1-1.635,0V.826a.817.817,0,1,1,1.635,0" transform="translate(4.859 0)"/>
        <path id="Trazado_895801" data-name="Trazado 895801" d="M8.3,25.88a.817.817,0,1,1,0,1.635H5.682a.817.817,0,0,1,0-1.635Z" transform="translate(3.692 19.61)"/>
        <path id="Trazado_895802" data-name="Trazado 895802" d="M5.378,11.5v1.986a.817.817,0,0,1-1.635,0V11.5a.817.817,0,0,1,1.635,0" transform="translate(2.836 8.1)"/>
        <path id="Trazado_895803" data-name="Trazado 895803" d="M5.378.826V2.795a.817.817,0,0,1-1.635,0V.826a.817.817,0,1,1,1.635,0" transform="translate(2.836 0)"/>
        <path id="Trazado_895804" data-name="Trazado 895804" d="M8.149,7.846a5.1,5.1,0,0,1-4.57-.562A5.082,5.082,0,0,1,1.013,3.469a5.047,5.047,0,0,1,4.57.562A5.036,5.036,0,0,1,8.149,7.846" transform="translate(0.768 2.384)" fill="#078c2b"/>
        <path id="Trazado_895805" data-name="Trazado 895805" d="M8.149,18.536a5.1,5.1,0,0,1-4.57-.562,5.141,5.141,0,0,1-2.566-3.814,5.092,5.092,0,0,1,4.57.545,5.094,5.094,0,0,1,2.566,3.832" transform="translate(0.768 10.484)" fill="#078c2b"/>
        <path id="Trazado_895806" data-name="Trazado 895806" d="M6.692,25.88a.817.817,0,0,1,0,1.635H.909a.817.817,0,1,1,0-1.635H6.692Z" transform="translate(0.063 19.61)"/>
        <path id="Trazado_895807" data-name="Trazado 895807" d="M6.534,22.56a.822.822,0,0,1,.809.826.806.806,0,0,1-.809.809H.909a.81.81,0,0,1-.826-.809.825.825,0,0,1,.826-.826Z" transform="translate(0.063 17.095)"/>
        <path id="Trazado_895808" data-name="Trazado 895808" d="M3.5,11.789v.9a.817.817,0,1,1-1.635,0v-.9a.817.817,0,0,1,1.635,0" transform="translate(1.412 8.32)"/>
        <path id="Trazado_895809" data-name="Trazado 895809" d="M3.5,1.116v.9a.817.817,0,0,1-1.635,0v-.9a.817.817,0,1,1,1.635,0" transform="translate(1.412 0.22)"/>
      </g>
    </g>
  </g>
</svg>
