<svg xmlns="http://www.w3.org/2000/svg" xmlns:xlink="http://www.w3.org/1999/xlink" width="108" height="108" viewBox="0 0 108 108">
  <defs>
    <clipPath id="clip-path">
      <rect id="Rectángulo_403282" data-name="Rectángulo 403282" width="67.997" height="59.229" fill="none"/>
    </clipPath>
  </defs>
  <g id="_55" data-name="55" transform="translate(-1161.051 -5094)">
    <g id="Grupo_1106652" data-name="Grupo 1106652" transform="translate(0 3691)">
      <circle id="Elipse_11686" data-name="Elipse 11686" cx="54" cy="54" r="54" transform="translate(1161.051 1403)" fill="#f7f0d8"/>
    </g>
    <g id="Grupo_1107232" data-name="Grupo 1107232" transform="translate(1181.051 5118)">
      <g id="Grupo_1107231" data-name="Grupo 1107231" transform="translate(0 0)" clip-path="url(#clip-path)">
        <path id="Trazado_898438" data-name="Trazado 898438" d="M59.161,26.235l-15.8,4.121-10.3-3.434A15.693,15.693,0,0,0,31,34.768V48.53A17.521,17.521,0,0,0,48.5,66.071C55.04,64.7,61.222,57.829,61.222,48.53V34.768c0-4.412-.675-6-2.061-8.533" transform="translate(-9.708 -8.216)" fill="#79c651"/>
        <path id="Trazado_898439" data-name="Trazado 898439" d="M44.079,20.224,56.726,16.1c-1-2.69-4.506-3.033-6.182-4.808-1.353-1.433-4.437-2.061-5.738-2.061h-1.23c-1.3,0-4.729.627-6.082,2.061C35.82,13.07,33,13.414,32,16.1Z" transform="translate(-10.021 -2.892)" fill="#ffc960"/>
        <path id="Trazado_898440" data-name="Trazado 898440" d="M41.359,25.093a1.06,1.06,0,0,1-.27-.036L24.261,20.5a1.03,1.03,0,0,1-.688-1.374c1.091-2.759,3.752-4.358,6.1-5.769a18.076,18.076,0,0,0,3.4-2.385c2.234-2.234,5.256-3.736,7.519-3.736h1.872c2.263,0,5.285,1.5,7.519,3.736a18.077,18.077,0,0,0,3.4,2.385c2.348,1.411,5.009,3.01,6.1,5.769a1.031,1.031,0,0,1-.694,1.375L52.1,22.276a1.03,1.03,0,0,1-.529-1.992l5.436-1.443a14.713,14.713,0,0,0-4.686-3.719,19.529,19.529,0,0,1-3.8-2.694C46.684,10.583,44.192,9.3,42.467,9.3H40.594c-1.725,0-4.218,1.288-6.062,3.133a19.529,19.529,0,0,1-3.8,2.694,14.7,14.7,0,0,0-4.69,3.725L41.361,23l5.7-1.513a1.031,1.031,0,1,1,.528,1.993l-5.965,1.583a1.047,1.047,0,0,1-.264.034" transform="translate(-7.36 -2.266)" fill="#252d32"/>
        <path id="Trazado_898441" data-name="Trazado 898441" d="M40.9,66.939A18.909,18.909,0,0,1,22,48.066V34.274a18.931,18.931,0,0,1,.725-5.2,1.03,1.03,0,0,1,1.982.566,16.858,16.858,0,0,0-.646,4.637V48.066a16.827,16.827,0,0,0,33.655,0V34.274a16.85,16.85,0,0,0-2.088-8.126,1.03,1.03,0,1,1,1.8-1,18.915,18.915,0,0,1,2.345,9.121V48.066A18.9,18.9,0,0,1,40.9,66.939" transform="translate(-6.89 -7.71)" fill="#252d32"/>
        <path id="Trazado_898442" data-name="Trazado 898442" d="M59.031,9.09a1.03,1.03,0,0,1-.808-1.668,30.136,30.136,0,0,0,2.635-3.944C61.963,1.267,63.382,0,64.751,0a2.273,2.273,0,0,1,2.071,1.418c.922,1.843.087,5.148-2.411,6.813a1.03,1.03,0,1,1-1.143-1.714c1.626-1.084,2.158-3.281,1.71-4.177-.091-.183-.183-.279-.227-.279-.288,0-1.166.571-2.05,2.339a31.737,31.737,0,0,1-2.86,4.3,1.03,1.03,0,0,1-.81.392" transform="translate(-18.164 0)" fill="#252d32"/>
        <path id="Trazado_898443" data-name="Trazado 898443" d="M72.03,17.537a1.03,1.03,0,0,1-.2-2.041l3.218-.644,7.245-5.164a1.053,1.053,0,0,1,.251-.13L88.854,7.3a1.03,1.03,0,0,1,.7,1.94L83.372,11.45l-7.309,5.21a1.018,1.018,0,0,1-.4.171l-3.434.687a1.079,1.079,0,0,1-.2.02" transform="translate(-22.235 -2.266)" fill="#252d32"/>
        <path id="Trazado_898444" data-name="Trazado 898444" d="M18.2,17.537a1.025,1.025,0,0,1-.2-.02l-3.434-.687a1.018,1.018,0,0,1-.4-.171L6.861,11.45.684,9.235a1.03,1.03,0,0,1,.7-1.94L7.69,9.558a1.054,1.054,0,0,1,.251.13l7.245,5.164L18.4,15.5a1.03,1.03,0,0,1-.2,2.041" transform="translate(0 -2.266)" fill="#252d32"/>
        <path id="Trazado_898445" data-name="Trazado 898445" d="M90.454,54.345a1.029,1.029,0,0,1-.5-.13l-6.182-3.434a1.036,1.036,0,0,1-.421-.44L78.829,41.3h-2.8a1.03,1.03,0,0,1,0-2.061h3.434a1.031,1.031,0,0,1,.922.569l4.665,9.331,5.9,3.279a1.03,1.03,0,0,1-.5,1.931" transform="translate(-23.488 -12.287)" fill="#252d32"/>
        <path id="Trazado_898446" data-name="Trazado 898446" d="M90.454,76.406a1.02,1.02,0,0,1-.53-.147l-6.868-4.121a1.03,1.03,0,0,1-.376-.395l-4.7-8.729L75.413,61.09a1.03,1.03,0,0,1,1.236-1.648L79.4,61.5a1.027,1.027,0,0,1,.288.336l4.674,8.68,6.625,3.975a1.03,1.03,0,0,1-.53,1.914" transform="translate(-23.488 -18.551)" fill="#252d32"/>
        <path id="Trazado_898447" data-name="Trazado 898447" d="M35.784,9.09a1.03,1.03,0,0,1-.81-.392,31.736,31.736,0,0,1-2.86-4.3c-.884-1.768-1.762-2.339-2.05-2.339-.044,0-.136.1-.227.279-.449.9.084,3.093,1.71,4.177A1.03,1.03,0,1,1,30.4,8.23c-2.5-1.665-3.333-4.969-2.411-6.813A2.273,2.273,0,0,1,30.064,0c1.369,0,2.788,1.267,3.894,3.478a30.062,30.062,0,0,0,2.635,3.944,1.03,1.03,0,0,1-.808,1.668" transform="translate(-8.652 0)" fill="#252d32"/>
        <path id="Trazado_898448" data-name="Trazado 898448" d="M1.032,54.345a1.03,1.03,0,0,1-.5-1.931l5.9-3.279L11.1,39.8a1.031,1.031,0,0,1,.922-.569h3.434a1.03,1.03,0,1,1,0,2.061h-2.8L8.134,50.342a1.033,1.033,0,0,1-.422.44L1.531,54.216a1.024,1.024,0,0,1-.5.13" transform="translate(0 -12.287)" fill="#252d32"/>
        <path id="Trazado_898449" data-name="Trazado 898449" d="M1.032,76.406A1.03,1.03,0,0,1,.5,74.493l6.626-3.975,4.674-8.68a1.027,1.027,0,0,1,.288-.336l2.747-2.061a1.03,1.03,0,1,1,1.236,1.648l-2.566,1.925-4.7,8.729a1.026,1.026,0,0,1-.377.395L1.561,76.259a1.016,1.016,0,0,1-.529.147" transform="translate(0 -18.551)" fill="#252d32"/>
        <path id="Trazado_898450" data-name="Trazado 898450" d="M49.031,63.022A1.031,1.031,0,0,1,48,61.991V37.265a1.03,1.03,0,0,1,2.061,0V61.991a1.031,1.031,0,0,1-1.03,1.03" transform="translate(-15.032 -11.348)" fill="#252d32"/>
      </g>
    </g>
  </g>
</svg>
