<svg xmlns="http://www.w3.org/2000/svg" xmlns:xlink="http://www.w3.org/1999/xlink" width="105" height="105" viewBox="0 0 105 105">
  <defs>
    <clipPath id="clip-path">
      <rect id="Rectángulo_403339" data-name="Rectángulo 403339" width="49.898" height="66.112" fill="none"/>
    </clipPath>
  </defs>
  <g id="_73" data-name="73" transform="translate(-556 -794)">
    <circle id="Elipse_11712" data-name="Elipse 11712" cx="52.5" cy="52.5" r="52.5" transform="translate(556 794)" fill="#ecdb9f"/>
    <g id="Grupo_1107280" data-name="Grupo 1107280" transform="translate(580 810.683)">
      <g id="Grupo_1107279" data-name="Grupo 1107279" transform="translate(0 0)" clip-path="url(#clip-path)">
        <path id="Trazado_898604" data-name="Trazado 898604" d="M29.827,17.738c-.075-4.977.138-13.3-5.141-15.95-4.135-2.086-14-1.5-18.2.364C.554,4.792.479,11.064,1.522,16.557a4.583,4.583,0,0,0,.616,1.584c-.44,8.685-.666,17.4-.528,26.106.088,5.467.251,11.639,5.631,14.768,4.625,2.677,12.33,1.848,16.943-.528,6.108-3.155,5.291-9.766,5.379-15.623.126-8.371.39-16.754.264-25.125" transform="translate(11.713 5.427)" fill="#f8e66f"/>
        <path id="Trazado_898605" data-name="Trazado 898605" d="M15.877,7.814a6.671,6.671,0,0,0-6.5-6.473,6.587,6.587,0,0,0-1.559,13,5.058,5.058,0,0,0,3.607-.478l.138-.1a5.875,5.875,0,0,0,2.551-1.533,6.4,6.4,0,0,0,1.76-4.412" transform="translate(31.835 15.514)" fill="#fc685b"/>
        <path id="Trazado_898606" data-name="Trazado 898606" d="M10.111,3.451H10.1a6.333,6.333,0,0,0-6.184,0A6.724,6.724,0,0,0,.534,9.333a7.174,7.174,0,0,0,3.62,6.108,7.973,7.973,0,0,0,7.378.163,6.462,6.462,0,0,0,3.746-5.92,6.709,6.709,0,0,0-5.166-6.234" transform="translate(6.166 30.586)" fill="#fdc2bd"/>
        <path id="Trazado_898607" data-name="Trazado 898607" d="M49.076,34.037a.862.862,0,0,1,.817.918.886.886,0,0,1-.867.817c-.05,0-4.7-.314-6.724-.452v3.017A4.411,4.411,0,0,1,44.978,41.5h2.6a.883.883,0,0,1,.867.892.869.869,0,0,1-.867.867h-2.6A4.388,4.388,0,0,1,42.3,46.429v4.5a5.78,5.78,0,0,1,2.388.943l3.218-2.878a.871.871,0,0,1,1.219.063.862.862,0,0,1-.063,1.232l-3.1,2.79a5.709,5.709,0,0,1,1.257,3.57,5.783,5.783,0,0,1-5.782,5.782,5.88,5.88,0,0,1-1.345-.163,10.481,10.481,0,0,1-2,1.948.892.892,0,0,1-1.219-.2.88.88,0,0,1,.2-1.219,8.974,8.974,0,0,0,1.37-1.219l-.038-.013c-.151-.1-.314-.214-.465-.327a2.907,2.907,0,0,1-.3-.251,6.2,6.2,0,0,1-.5-.49c-.138-.151-.264-.314-.39-.465l-.239-.364a4.033,4.033,0,0,1-.3-.566l-.138-.264a7.33,7.33,0,0,1-.277-.892l-.05-.289a4.485,4.485,0,0,1-.113-1.006,4.8,4.8,0,0,1,.126-1.131l.088-.339c.063-.239.138-.478.214-.7l.189-.377c.1-.2.2-.377.314-.566a2.338,2.338,0,0,1,.264-.352,3.707,3.707,0,0,1,.39-.49c.1-.113.214-.2.327-.314l.465-.39c.126-.088.264-.163.377-.251a4.624,4.624,0,0,1,.553-.289,2.084,2.084,0,0,1,.415-.189,5.039,5.039,0,0,1,.616-.2c.138-.025.277-.075.44-.113l.163-.038V46.731a2.071,2.071,0,0,1-.4-.05,3.415,3.415,0,0,1-.39-.038,4.517,4.517,0,0,1-.44-.151,3.088,3.088,0,0,1-.364-.113c-.151-.075-.264-.151-.4-.214-.1-.075-.226-.126-.327-.189l-.352-.3a1.262,1.262,0,0,1-.277-.239,2.906,2.906,0,0,1-.3-.364,1.663,1.663,0,0,1-.226-.277,3.441,3.441,0,0,1-.239-.427l-.163-.3c-.063-.163-.1-.352-.151-.528a1.176,1.176,0,0,1-.088-.277,3.948,3.948,0,0,1-.088-.855v-.013a3.828,3.828,0,0,1,.088-.867,1.016,1.016,0,0,1,.088-.277,3.809,3.809,0,0,1,.151-.54c.05-.113.113-.189.163-.3l.239-.44.214-.277.314-.364a2.707,2.707,0,0,1,.277-.239c.113-.088.226-.2.352-.289.1-.075.226-.126.327-.189a4.071,4.071,0,0,1,.4-.214,1.783,1.783,0,0,1,.364-.126,4.5,4.5,0,0,1,.44-.138,3.278,3.278,0,0,1,.39-.05,1.954,1.954,0,0,1,.4-.05V31.46l-.327-.013a3.724,3.724,0,0,1-.39-.038l-.39-.063a3.186,3.186,0,0,1-.364-.05,1.655,1.655,0,0,1-.377-.113l-.364-.088c-.113-.038-.239-.1-.364-.138l-.339-.126-.352-.163-.314-.163a3.015,3.015,0,0,1-.339-.2c-.088-.063-.2-.113-.289-.189a2.951,2.951,0,0,1-.314-.239,1.481,1.481,0,0,1-.277-.214l-.214-.189-2.438,6.259a.872.872,0,0,1-.817.553.7.7,0,0,1-.314-.063.872.872,0,0,1-.49-1.131l2.765-7.114c-.075-.088-.126-.2-.189-.289l-.176-.3-.176-.364-.151-.314c-.05-.138-.1-.264-.138-.4a2.942,2.942,0,0,1-.113-.3c-.05-.151-.075-.3-.113-.44a2.117,2.117,0,0,1-.075-.3,3.392,3.392,0,0,1-.075-.515l-.038-.239c-.025-.264-.05-.528-.05-.792s.025-.528.05-.779l.038-.251a3.016,3.016,0,0,1,.075-.5,2.117,2.117,0,0,1,.075-.3l.1-.415-4.676-3.017a.868.868,0,1,1,.943-1.458l4.437,2.853.063-.088a3.772,3.772,0,0,1,.214-.352l.2-.264c.075-.1.151-.214.239-.314a2.276,2.276,0,0,1,.226-.264l.264-.289.251-.239a2.907,2.907,0,0,1,.3-.251,1.405,1.405,0,0,1,.264-.214l.327-.251.289-.176a3.015,3.015,0,0,1,.339-.2c.1-.063.214-.113.314-.163.126-.05.226-.126.352-.163l.339-.138.364-.126.364-.113.377-.088c.113-.025.239-.038.364-.075l.39-.05L40.24,16l.327-.025v-.452l-.013-.352-.063-.013a2.9,2.9,0,0,1-.628-.163l-.314-.088a5.232,5.232,0,0,1-.6-.277l-.264-.151a6.088,6.088,0,0,1-.553-.377,1.725,1.725,0,0,1-.226-.2,3.955,3.955,0,0,1-.465-.452,1.334,1.334,0,0,1-.214-.251,5.363,5.363,0,0,1-.364-.515l-.189-.327c-.075-.176-.176-.339-.239-.515a4.069,4.069,0,0,1-.163-.515,4.24,4.24,0,0,1-.113-.427,4.6,4.6,0,0,1-.113-1.018,4.487,4.487,0,0,1,.1-.93l.088-.4.063-.264a8.3,8.3,0,0,0-4-1.031H21.851a8.316,8.316,0,0,0-4.588,1.4l.126.176a2.454,2.454,0,0,1,.214.289,1.545,1.545,0,0,1,.176.314l.138.264a3.756,3.756,0,0,1,.113.4l.075.226a4.132,4.132,0,0,1,.063.679,3.514,3.514,0,0,1-3.519,3.519,3.075,3.075,0,0,1-.892-.138l-.088-.013a7.165,7.165,0,0,0-.088,1.156V17.6l.226.088.515.2c.189.1.352.189.515.289l.377.214a6.65,6.65,0,0,1,.8.666l.1.126a5.782,5.782,0,0,1,.566.679c.063.113.138.2.189.314a6.165,6.165,0,0,1,.352.628c.05.126.1.239.138.364a4.187,4.187,0,0,1,.226.7l.088.339a6.239,6.239,0,0,1,.1,1.106,6.319,6.319,0,0,1-.1,1.093l-.088.352a4.592,4.592,0,0,1-.226.7,2.927,2.927,0,0,1-.138.352,6.352,6.352,0,0,1-.352.641l-.189.289a7.166,7.166,0,0,1-.566.691l-.1.126a7.945,7.945,0,0,1-.8.654c-.126.088-.239.151-.364.226-.176.1-.339.2-.528.289-.163.075-.339.138-.5.2l-.239.088V32.2c.189-.013.377-.025.566-.025a8.044,8.044,0,0,1,6.4,12.921l4,3.921a.861.861,0,0,1,.013,1.232.81.81,0,0,1-.6.264.876.876,0,0,1-.616-.251l-3.972-3.9a8.116,8.116,0,0,1-5.216,1.923c-.189,0-.377-.013-.566-.025v3.419a2.334,2.334,0,0,1,.427.063,3.229,3.229,0,0,1,.5.088,4.978,4.978,0,0,1,.578.163l.465.176c.176.088.339.189.515.289a2.8,2.8,0,0,1,.415.251,3.218,3.218,0,0,1,.465.377l.352.3c.151.163.264.327.39.478a3.965,3.965,0,0,1,.277.365,6.308,6.308,0,0,1,.327.578l.189.377a6.3,6.3,0,0,1,.214.691,2.534,2.534,0,0,1,.1.364,5.349,5.349,0,0,1,.126,1.119,5.476,5.476,0,0,1-.113,1.006l-.05.251a4.953,4.953,0,0,1-.264.867l-.138.277c-.088.189-.189.377-.289.553l-.214.339a5.9,5.9,0,0,1-.5.591,4.4,4.4,0,0,1-.352.339,2.751,2.751,0,0,1-.314.251,5.13,5.13,0,0,1-.415.314,8.25,8.25,0,0,0,5.581,2.162h7.164a.867.867,0,1,1,0,1.735H21.851a9.923,9.923,0,0,1-7.3-3.167,5.674,5.674,0,0,1-7.026-5.518,5.471,5.471,0,0,1,.49-2.275l-3.243-2.7a.875.875,0,0,1-.113-1.232.863.863,0,0,1,1.232-.1l3.079,2.564a5.627,5.627,0,0,1,2.878-1.76V47.938a8.082,8.082,0,0,1-2.388-1.156.874.874,0,0,1,1.018-1.42,6.378,6.378,0,0,0,2.514,1.068,7.062,7.062,0,0,0,1.156.1,6.3,6.3,0,1,0-6.31-6.31l.013.364a.871.871,0,0,1-.817.918.852.852,0,0,1-.918-.8c-.013-.163-.013-.314-.013-.478a8.071,8.071,0,0,1,.364-2.413L.7,36.638A.855.855,0,0,1,.019,35.62a.87.87,0,0,1,1.031-.691l6.159,1.244a8.066,8.066,0,0,1,4.638-3.645V29.3H11.8A5.971,5.971,0,0,1,7.749,18.9L6.178,15.472a.865.865,0,0,1,.427-1.156.851.851,0,0,1,1.144.427l1.458,3.167a5.942,5.942,0,0,1,2.589-.6h.05V15.523A9.345,9.345,0,0,1,12.1,13.4a3.513,3.513,0,0,1,2.551-5.907,3.845,3.845,0,0,1,1.031.163,9.931,9.931,0,0,1,5.279-2.1V.88a.88.88,0,1,1,1.76,0V5.518h8.71V3.255a.874.874,0,0,1,1.747,0V5.593a9.715,9.715,0,0,1,3.9,1.156A5.367,5.367,0,0,1,40.29,4.625a2.046,2.046,0,0,1-.038-.39A3.746,3.746,0,1,1,46.122,7.3,5.3,5.3,0,0,1,46.8,9.879a5.367,5.367,0,0,1-4.525,5.291l.025.352v.641a7.756,7.756,0,0,1,3.972,2.174L48.435,16.4A.872.872,0,0,1,49.6,17.7l-2.275,2.036a7.465,7.465,0,0,1,.729,1.533.874.874,0,1,1-1.659.553,5.986,5.986,0,1,0-.754,5.317.883.883,0,0,1,1.219-.226.869.869,0,0,1,.214,1.219A7.75,7.75,0,0,1,42.3,31.284v2.288ZM44.614,6.121a1.966,1.966,0,0,0,1.37-1.885,2,2,0,1,0-4,0,2.146,2.146,0,0,0,.176.8,1.914,1.914,0,0,0,.277.427l.075.088a1.382,1.382,0,0,0,.377.339l.038.025a1.8,1.8,0,0,0,.415.2l.126.038A2.324,2.324,0,0,0,44,6.234a2.234,2.234,0,0,0,.591-.1l.025-.013m.452,3.758a3.56,3.56,0,0,0-.578-1.936,3.559,3.559,0,0,1-3.1-1.031l-.063-.063c-.138-.151-.277-.314-.4-.478l-.038-.063-.025-.025a3.688,3.688,0,0,0-2.7,2.049,3.156,3.156,0,0,0-.251.7l-.025.063a4.137,4.137,0,0,0-.1.779,3.489,3.489,0,0,0,.088.716,3.655,3.655,0,0,0,3.494,2.916h.075a3.634,3.634,0,0,0,3.632-3.632m.415,46.769a4.053,4.053,0,1,0-8.107,0,4.316,4.316,0,0,0,.075.716l.063.264c.038.151.088.277.126.4l.126.327.151.264a4.207,4.207,0,0,0,1.043,1.219l.025.013a3.521,3.521,0,0,0,.515.314l.025.025a3.7,3.7,0,0,0,.553.251l.013.013a4.318,4.318,0,0,0,1.345.239,4.061,4.061,0,0,0,4.047-4.047M43.332,42.395a2.64,2.64,0,0,0-2.086-2.577,3,3,0,0,0-.578-.05l-.163.013a1.611,1.611,0,0,0-.4.075l-.126.038a1.894,1.894,0,0,0-.415.163l-.063.038a1.822,1.822,0,0,0-.4.251l-.063.05a1.807,1.807,0,0,0-.339.352l-.038.05a1.711,1.711,0,0,0-.264.4l-.05.075-.151.427-.038.113a2.888,2.888,0,0,0-.063.566v.013a2.763,2.763,0,0,0,.063.553l.038.1a4.8,4.8,0,0,0,.163.452l.025.05a2.122,2.122,0,0,0,.289.427l.013.025a2.159,2.159,0,0,0,.364.39l.013.013c.151.113.3.2.465.3l.025.013A3.357,3.357,0,0,0,40,44.9l.088.025a2.8,2.8,0,0,0,.452.063l.126.013a3,3,0,0,0,.578-.05,2.613,2.613,0,0,0,2.086-2.551M17.1,58.068a4.439,4.439,0,0,0,.063-.7,3.953,3.953,0,0,0-3.934-3.959l-.264.025-.151.025h-.038a3.94,3.94,0,0,0,.452,7.856,4.072,4.072,0,0,0,1.295-.239,2.5,2.5,0,0,0,.553-.264H15.1a3.389,3.389,0,0,0,.5-.314,4.329,4.329,0,0,0,1.043-1.207,2.66,2.66,0,0,1,.151-.251l.113-.327a1.9,1.9,0,0,0,.126-.377l.063-.264M16.434,11a1.618,1.618,0,0,0-.126-.6l-.075-.163a1.443,1.443,0,0,0-.239-.352l-.126-.163A1.77,1.77,0,0,0,12.89,11a1.754,1.754,0,0,0,1.031,1.6l.088.05a1.577,1.577,0,0,0,.641.126A1.781,1.781,0,0,0,16.434,11m-.39,12.317a4.39,4.39,0,0,0-.075-.817,1.619,1.619,0,0,1-.075-.264,3.736,3.736,0,0,0-.163-.49l-.126-.289c-.063-.138-.138-.264-.214-.4l-.2-.277-.264-.327c-.088-.088-.176-.189-.264-.264l-.3-.239-.327-.239a1.942,1.942,0,0,0-.277-.151,4.75,4.75,0,0,0-.44-.214l-.189-.05a3.038,3.038,0,0,0-.578-.163,5.11,5.11,0,0,0-.754-.075,4.255,4.255,0,1,0,0,8.509,3.837,3.837,0,0,0,.754-.075,4.363,4.363,0,0,0,.578-.163l.189-.05a4.75,4.75,0,0,0,.44-.214,1.32,1.32,0,0,0,.264-.151,2.071,2.071,0,0,0,.339-.239,1.8,1.8,0,0,0,.3-.239l.264-.251c.088-.113.176-.214.264-.339l.2-.277a4.071,4.071,0,0,0,.214-.4l.126-.289a3.2,3.2,0,0,0,.163-.49,2.08,2.08,0,0,1,.075-.264,4.257,4.257,0,0,0,.075-.8" transform="translate(0.006 0)"/>
        <path id="Trazado_898608" data-name="Trazado 898608" d="M7.338,2.188a1.982,1.982,0,0,1-1.37,1.885l-.038.013a2.156,2.156,0,0,1-.578.088,2.337,2.337,0,0,1-.528-.063l-.138-.038a3.134,3.134,0,0,1-.415-.2l-.038-.025a1.561,1.561,0,0,1-.364-.339L3.781,3.42a2.181,2.181,0,0,1-.264-.427,1.928,1.928,0,0,1-.176-.8,2,2,0,1,1,4,0" transform="translate(38.652 2.048)" fill="#9299fb"/>
        <path id="Trazado_898609" data-name="Trazado 898609" d="M9.718,2.159A3.56,3.56,0,0,1,10.3,4.095,3.637,3.637,0,0,1,6.651,7.727H6.588a3.681,3.681,0,0,1-3.507-2.9,3.589,3.589,0,0,1-.075-.729,3.4,3.4,0,0,1,.1-.779l.025-.063a2.634,2.634,0,0,1,.251-.7A3.665,3.665,0,0,1,6.085.5l.025.025L6.148.6c.126.151.251.314.4.465l.05.063A3.584,3.584,0,0,0,9.718,2.159" transform="translate(34.776 5.785)" fill="#9299fb"/>
        <path id="Trazado_898610" data-name="Trazado 898610" d="M7.021,4.184a4.047,4.047,0,0,1,0,8.094,3.91,3.91,0,0,1-1.332-.239l-.013-.013a2.831,2.831,0,0,1-.566-.239l-.025-.025a2.748,2.748,0,0,1-.515-.327l-.025-.013A4.185,4.185,0,0,1,3.5,10.217a1.892,1.892,0,0,1-.138-.277l-.138-.314-.126-.4L3.037,8.96a4.5,4.5,0,0,1-.063-.729A4.053,4.053,0,0,1,7.021,4.184" transform="translate(34.406 48.404)" fill="#fc685b"/>
        <path id="Trazado_898611" data-name="Trazado 898611" d="M6.186,3.214a2.614,2.614,0,0,1,0,5.116,2.327,2.327,0,0,1-.578.063L5.482,8.38A1.893,1.893,0,0,1,5.029,8.3L4.941,8.28A1.684,1.684,0,0,1,4.489,8.1l-.025-.013A3.986,3.986,0,0,1,4.011,7.8L4,7.789a2.207,2.207,0,0,1-.377-.39l-.013-.025a3.19,3.19,0,0,1-.289-.427l-.025-.063a3.789,3.789,0,0,1-.163-.452l-.038-.088a2.888,2.888,0,0,1-.063-.566V5.766a2.663,2.663,0,0,1,.063-.553L3.132,5.1l.151-.427.05-.075a1.487,1.487,0,0,1,.264-.4l.038-.063a1.45,1.45,0,0,1,.339-.339l.063-.05a1.856,1.856,0,0,1,.4-.264L4.5,3.441a2.836,2.836,0,0,1,.415-.163l.138-.038a2.1,2.1,0,0,1,.39-.063l.163-.013a3.084,3.084,0,0,1,.578.05" transform="translate(35.065 36.604)" fill="#9299fb"/>
        <path id="Trazado_898612" data-name="Trazado 898612" d="M8.631,8.208a4.439,4.439,0,0,1-.063.7,1.043,1.043,0,0,1-.075.264,1.871,1.871,0,0,1-.113.377l-.126.327-.138.251a4.544,4.544,0,0,1-1.043,1.207,3.389,3.389,0,0,1-.5.314H6.545a2.907,2.907,0,0,1-.566.264,4.008,4.008,0,0,1-1.295.239A3.94,3.94,0,0,1,4.245,4.3H4.27l.163-.025.251-.025A3.956,3.956,0,0,1,8.631,8.208" transform="translate(8.538 49.156)" fill="#9299fb"/>
        <path id="Trazado_898613" data-name="Trazado 898613" d="M4.445,1.891a1.9,1.9,0,0,1,.113.6,1.759,1.759,0,0,1-1.772,1.76,1.81,1.81,0,0,1-.641-.113l-.088-.063A1.755,1.755,0,1,1,4,1.213l.113.163a1.7,1.7,0,0,1,.251.339l.075.176" transform="translate(11.87 8.503)" fill="#9299fb"/>
        <path id="Trazado_898614" data-name="Trazado 898614" d="M9.033,4.96a4.39,4.39,0,0,1,.075.817,4.257,4.257,0,0,1-.075.8l-.063.264c-.063.163-.1.327-.163.49l-.138.289a1.935,1.935,0,0,1-.214.39,2.366,2.366,0,0,1-.2.289c-.075.113-.176.226-.264.339l-.251.251a1.885,1.885,0,0,1-.314.239,1.976,1.976,0,0,1-.327.239l-.264.151a4.992,4.992,0,0,1-.452.214l-.176.05a4.363,4.363,0,0,1-.578.163,3.963,3.963,0,0,1-.767.075,4.255,4.255,0,1,1,0-8.509,5.279,5.279,0,0,1,.767.075,3.038,3.038,0,0,1,.578.163l.176.05a4.991,4.991,0,0,1,.452.214l.277.151c.1.075.214.151.314.239s.214.163.314.239l.251.264c.088.113.189.214.264.327l.2.277a3.118,3.118,0,0,1,.214.4l.138.289c.063.163.1.327.163.49l.063.264" transform="translate(6.93 17.539)" fill="#fc685b"/>
      </g>
    </g>
  </g>
</svg>
