<svg xmlns="http://www.w3.org/2000/svg" xmlns:xlink="http://www.w3.org/1999/xlink" width="105" height="105" viewBox="0 0 105 105">
  <defs>
    <clipPath id="clip-path">
      <rect id="Rectángulo_403340" data-name="Rectángulo 403340" width="68.347" height="72.074" fill="none"/>
    </clipPath>
  </defs>
  <g id="_74" data-name="74" transform="translate(-718 -794)">
    <circle id="Elipse_11713" data-name="Elipse 11713" cx="52.5" cy="52.5" r="52.5" transform="translate(718 794)" fill="#ecdb9f"/>
    <g id="Grupo_1107282" data-name="Grupo 1107282" transform="translate(737.653 808.86)">
      <g id="Grupo_1107281" data-name="Grupo 1107281" transform="translate(0 0)" clip-path="url(#clip-path)">
        <path id="Trazado_898615" data-name="Trazado 898615" d="M47.541,24.381A23.408,23.408,0,1,1,24.133.973,23.4,23.4,0,0,1,47.541,24.381" transform="translate(9.281 12.451)" fill="#e79aca"/>
        <path id="Trazado_898616" data-name="Trazado 898616" d="M5.884,1.2a1.753,1.753,0,1,1,0,3.506,1.753,1.753,0,1,1,0-3.506" transform="translate(52.706 15.395)" fill="#a1e3fd"/>
        <path id="Trazado_898617" data-name="Trazado 898617" d="M4.286.306A2.264,2.264,0,1,1,2.022,2.57,2.265,2.265,0,0,1,4.286.306" transform="translate(25.886 3.912)" fill="#a1e3fd"/>
        <path id="Trazado_898618" data-name="Trazado 898618" d="M1.879,1.489a1.525,1.525,0,1,1,0,3.05,1.525,1.525,0,1,1,0-3.05" transform="translate(4.442 19.057)" fill="#a1e3fd"/>
        <path id="Trazado_898619" data-name="Trazado 898619" d="M2.541,3.429A2.381,2.381,0,1,1,.167,5.8,2.383,2.383,0,0,1,2.541,3.429" transform="translate(2.138 43.892)" fill="#a1e3fd"/>
        <path id="Trazado_898620" data-name="Trazado 898620" d="M3.784,4.559a2.319,2.319,0,1,1,0,4.637,2.319,2.319,0,1,1,0-4.637" transform="translate(18.755 58.359)" fill="#a1e3fd"/>
        <path id="Trazado_898621" data-name="Trazado 898621" d="M7.474,4.338a4.016,4.016,0,1,1-4,4,4.008,4.008,0,0,1,4-4" transform="translate(44.436 55.529)" fill="#a1e3fd"/>
        <path id="Trazado_898622" data-name="Trazado 898622" d="M58.183,34.049A4.048,4.048,0,0,1,54.981,38l-.179.014a.963.963,0,0,1-.193-1.9,2.1,2.1,0,1,0-2.526-2.056,2.04,2.04,0,0,0,.345,1.159.96.96,0,0,1-.29,1.311.973.973,0,0,1-1.325-.276,3.659,3.659,0,0,1-.455-1.008l-2.871.69c.041.414.083.856.083,1.3a25.087,25.087,0,0,1-1.063,7.094l2.3.759a4.56,4.56,0,0,1,3.782-2.043,4.652,4.652,0,0,1,2.471.732.959.959,0,0,1-1.035,1.615,2.524,2.524,0,0,0-1.435-.414,2.657,2.657,0,1,0,2.443,3.727.93.93,0,0,1,1.242-.469.941.941,0,0,1,.511,1.256,4.583,4.583,0,0,1-8.764-1.863,6.742,6.742,0,0,1,.069-.759l-2.236-.732A22.209,22.209,0,0,1,44.6,48.859a1,1,0,0,1-.856.483.843.843,0,0,1-.455-.124.934.934,0,0,1-.373-1.284,20.1,20.1,0,0,0,1.118-2.415L37.549,43.38a.943.943,0,0,1-.607-1.2.927.927,0,0,1,1.2-.607l6.528,2.139a22.377,22.377,0,0,0,.966-6.487,8.389,8.389,0,0,0-.041-.842l-2.208.524a.61.61,0,0,1-.207.028.974.974,0,0,1-.952-.732.933.933,0,0,1,.7-1.146l2.526-.621A21.9,21.9,0,0,0,41.565,24.4l-2.816,1.767a.96.96,0,0,1-.511.152.92.92,0,0,1-.787-.455.97.97,0,0,1,.276-1.325l2.678-1.67A22.294,22.294,0,0,0,31.7,16.549L28.081,24.14a.951.951,0,0,1-.87.538,1.094,1.094,0,0,1-.4-.083.95.95,0,0,1-.428-1.284l3.492-7.425a22.253,22.253,0,0,0-6.528-.994c-.58,0-1.118.055-1.642.1l.373,4.817a.946.946,0,0,1-.87,1.021h-.083a.938.938,0,0,1-.952-.87l-.4-4.748A21.994,21.994,0,0,0,10,19.35l2.829,4.361a.951.951,0,0,1-.276,1.311.932.932,0,0,1-.511.166.985.985,0,0,1-.814-.442L8.523,20.565c-.3.262-.607.511-.9.787a.946.946,0,0,1-1.353-.014A.93.93,0,0,1,6.287,20c.359-.373.773-.7,1.173-1.063l-2.07-3.2a3.319,3.319,0,0,1-1.1.193A3.9,3.9,0,0,1,.932,14a.948.948,0,0,1,.331-1.311.96.96,0,0,1,1.311.331,1.981,1.981,0,0,0,3.7-.994,2,2,0,0,0-1.987-1.987,2.058,2.058,0,0,0-.814.179A.954.954,0,0,1,2.2,9.744a.939.939,0,0,1,.469-1.256,3.9,3.9,0,0,1,4.375,6.294l1.9,2.954A24.086,24.086,0,0,1,19.62,13.291L19.4,10.614a4.169,4.169,0,1,1,4.762-4.127A4.158,4.158,0,0,1,21.3,10.434l.221,2.65c.593-.055,1.2-.1,1.822-.1A24.066,24.066,0,0,1,30.7,14.147l1.035-2.181a6.487,6.487,0,1,1,9.137-8.64.974.974,0,0,1-.386,1.311.957.957,0,0,1-1.3-.373,4.58,4.58,0,1,0-.276,4.886.957.957,0,1,1,1.573,1.09,6.479,6.479,0,0,1-5.3,2.733,6.391,6.391,0,0,1-1.7-.248L32.5,14.809a24.15,24.15,0,0,1,9.551,7.039l3.064-1.932a3.66,3.66,0,1,1,3.312,2.1,3.913,3.913,0,0,1-2.07-.607l-3.161,1.974A23.851,23.851,0,0,1,47.32,33.994l2.926-.7a4,4,0,0,1,7.936.759M50.177,18.343a1.76,1.76,0,0,0-3.52,0,1.76,1.76,0,1,0,3.52,0M22.256,6.487A2.264,2.264,0,1,0,19.993,8.75a2.265,2.265,0,0,0,2.264-2.264" transform="translate(10.165 -0.005)"/>
        <path id="Trazado_898623" data-name="Trazado 898623" d="M42.474,10.125a5.935,5.935,0,1,1-5.907,5.935,5.833,5.833,0,0,1,1.863-4.279L37.2,9.753a23.891,23.891,0,0,1-9.427,3.561l.055,1.877a4.582,4.582,0,1,1-4.237,7.66.958.958,0,0,1,.041-1.353.93.93,0,0,1,1.339.028,2.66,2.66,0,1,0,1.918-4.513,2.609,2.609,0,0,0-1.877.787.956.956,0,0,1-1.353-1.353A4.317,4.317,0,0,1,25.9,15.232l-.041-1.684c-.593.041-1.187.083-1.78.083a24.086,24.086,0,0,1-7.508-1.2l-.939,1.6a4.22,4.22,0,1,1-2.526-.842,4.566,4.566,0,0,1,.759.069l.9-1.518A24.357,24.357,0,0,1,8.466,7.9l-2,1.877a3.189,3.189,0,0,1,.483,1.656,3.106,3.106,0,1,1-6.1-.8A.941.941,0,0,1,2.021,9.96.965.965,0,0,1,2.7,11.119a1.188,1.188,0,1,0,2.333.317,1.19,1.19,0,0,0-1.187-1.2.952.952,0,1,1,0-1.9,3.494,3.494,0,0,1,1.132.207l2.07-1.932C6.63,6.178,6.189,5.778,5.8,5.322A.959.959,0,1,1,7.252,4.066a22.067,22.067,0,0,0,8.488,6l1.339-2.291a.948.948,0,0,1,1.311-.331.936.936,0,0,1,.345,1.3l-1.159,1.987a22.27,22.27,0,0,0,6.5.98c.566,0,1.159-.041,1.725-.083L25.719,8.7a.946.946,0,0,1,.925-.98.964.964,0,0,1,.98.925l.083,2.747A22.3,22.3,0,0,0,36.222,8.11L34.883,5.874a.948.948,0,0,1,.331-1.311.97.97,0,0,1,1.325.331l1.256,2.1c.511-.4,1.008-.828,1.5-1.284a.944.944,0,0,1,1.339.069A.93.93,0,0,1,40.6,7.116a21.394,21.394,0,0,1-1.822,1.532l1.242,2.043a5.635,5.635,0,0,1,2.457-.566M46.5,16.06a4.016,4.016,0,1,0-4.03,4.03,4.02,4.02,0,0,0,4.03-4.03M15.422,17.413A2.319,2.319,0,1,0,13.1,19.731a2.324,2.324,0,0,0,2.319-2.319" transform="translate(9.435 47.824)"/>
        <path id="Trazado_898624" data-name="Trazado 898624" d="M19.461,28.857a.962.962,0,0,1-.69,1.159L14.23,31.19l.069.11a.967.967,0,0,1-.331,1.325,1.07,1.07,0,0,1-.483.138.977.977,0,0,1-.842-.469l-.317-.607-3.354.87a4.278,4.278,0,1,1-.373-1.9l2.843-.732a23.994,23.994,0,0,1-2.167-9.979l.014-.455-.98-.221A4.284,4.284,0,0,1,0,17.788a4.763,4.763,0,0,1,.124-.98A.963.963,0,0,1,1.27,16.09a.966.966,0,0,1,.718,1.159,2.4,2.4,0,0,0-.069.538,2.374,2.374,0,1,0,4.748,0,2.419,2.419,0,0,0-1.38-2.167.937.937,0,0,1-.455-1.256A.954.954,0,0,1,6.1,13.9,4.235,4.235,0,0,1,8.543,17.36l.856.193A24.1,24.1,0,0,1,11.732,9.3L8.971,6.981A3.41,3.41,0,0,1,6.335,8.237a3.444,3.444,0,1,1,3.437-3.45l-.028.331L12.67,7.575c.235-.4.469-.8.745-1.187a.954.954,0,0,1,1.325-.262.967.967,0,0,1,.248,1.339c-.29.442-.566.9-.828,1.353L15.417,9.88a.959.959,0,0,1-.607,1.7,1.033,1.033,0,0,1-.621-.221l-.939-.8a22.256,22.256,0,0,0-1.974,7.425L15.693,19a.961.961,0,0,1,.732,1.146.987.987,0,0,1-.952.745l-.193-.028-4.085-.939v.014a22.253,22.253,0,0,0,2.126,9.5l4.983-1.27a.941.941,0,0,1,1.159.69M7.853,4.787A1.525,1.525,0,1,0,6.335,6.319,1.532,1.532,0,0,0,7.853,4.787M7.067,32.418a2.381,2.381,0,1,0-2.374,2.374,2.383,2.383,0,0,0,2.374-2.374" transform="translate(0 17.277)"/>
      </g>
    </g>
    <g id="Grupo_1107283" data-name="Grupo 1107283" transform="translate(737.653 808.86)">
      <g id="Grupo_1107281-2" data-name="Grupo 1107281" transform="translate(0 0)" clip-path="url(#clip-path)">
        <path id="Trazado_898615-2" data-name="Trazado 898615" d="M47.541,24.381A23.408,23.408,0,1,1,24.133.973,23.4,23.4,0,0,1,47.541,24.381" transform="translate(9.281 12.451)" fill="#dceeb6"/>
        <path id="Trazado_898616-2" data-name="Trazado 898616" d="M5.884,1.2a1.753,1.753,0,1,1,0,3.506,1.753,1.753,0,1,1,0-3.506" transform="translate(52.706 15.395)" fill="#a1e3fd"/>
        <path id="Trazado_898617-2" data-name="Trazado 898617" d="M4.286.306A2.264,2.264,0,1,1,2.022,2.57,2.265,2.265,0,0,1,4.286.306" transform="translate(25.886 3.912)" fill="#a1e3fd"/>
        <path id="Trazado_898618-2" data-name="Trazado 898618" d="M1.879,1.489a1.525,1.525,0,1,1,0,3.05,1.525,1.525,0,1,1,0-3.05" transform="translate(4.442 19.057)" fill="#a1e3fd"/>
        <path id="Trazado_898619-2" data-name="Trazado 898619" d="M2.541,3.429A2.381,2.381,0,1,1,.167,5.8,2.383,2.383,0,0,1,2.541,3.429" transform="translate(2.138 43.892)" fill="#a1e3fd"/>
        <path id="Trazado_898620-2" data-name="Trazado 898620" d="M3.784,4.559a2.319,2.319,0,1,1,0,4.637,2.319,2.319,0,1,1,0-4.637" transform="translate(18.755 58.359)" fill="#a1e3fd"/>
        <path id="Trazado_898621-2" data-name="Trazado 898621" d="M7.474,4.338a4.016,4.016,0,1,1-4,4,4.008,4.008,0,0,1,4-4" transform="translate(44.436 55.529)" fill="#a1e3fd"/>
        <path id="Trazado_898622-2" data-name="Trazado 898622" d="M58.183,34.049A4.048,4.048,0,0,1,54.981,38l-.179.014a.963.963,0,0,1-.193-1.9,2.1,2.1,0,1,0-2.526-2.056,2.04,2.04,0,0,0,.345,1.159.96.96,0,0,1-.29,1.311.973.973,0,0,1-1.325-.276,3.659,3.659,0,0,1-.455-1.008l-2.871.69c.041.414.083.856.083,1.3a25.087,25.087,0,0,1-1.063,7.094l2.3.759a4.56,4.56,0,0,1,3.782-2.043,4.652,4.652,0,0,1,2.471.732.959.959,0,0,1-1.035,1.615,2.524,2.524,0,0,0-1.435-.414,2.657,2.657,0,1,0,2.443,3.727.93.93,0,0,1,1.242-.469.941.941,0,0,1,.511,1.256,4.583,4.583,0,0,1-8.764-1.863,6.742,6.742,0,0,1,.069-.759l-2.236-.732A22.209,22.209,0,0,1,44.6,48.859a1,1,0,0,1-.856.483.843.843,0,0,1-.455-.124.934.934,0,0,1-.373-1.284,20.1,20.1,0,0,0,1.118-2.415L37.549,43.38a.943.943,0,0,1-.607-1.2.927.927,0,0,1,1.2-.607l6.528,2.139a22.377,22.377,0,0,0,.966-6.487,8.389,8.389,0,0,0-.041-.842l-2.208.524a.61.61,0,0,1-.207.028.974.974,0,0,1-.952-.732.933.933,0,0,1,.7-1.146l2.526-.621A21.9,21.9,0,0,0,41.565,24.4l-2.816,1.767a.96.96,0,0,1-.511.152.92.92,0,0,1-.787-.455.97.97,0,0,1,.276-1.325l2.678-1.67A22.294,22.294,0,0,0,31.7,16.549L28.081,24.14a.951.951,0,0,1-.87.538,1.094,1.094,0,0,1-.4-.083.95.95,0,0,1-.428-1.284l3.492-7.425a22.253,22.253,0,0,0-6.528-.994c-.58,0-1.118.055-1.642.1l.373,4.817a.946.946,0,0,1-.87,1.021h-.083a.938.938,0,0,1-.952-.87l-.4-4.748A21.994,21.994,0,0,0,10,19.35l2.829,4.361a.951.951,0,0,1-.276,1.311.932.932,0,0,1-.511.166.985.985,0,0,1-.814-.442L8.523,20.565c-.3.262-.607.511-.9.787a.946.946,0,0,1-1.353-.014A.93.93,0,0,1,6.287,20c.359-.373.773-.7,1.173-1.063l-2.07-3.2a3.319,3.319,0,0,1-1.1.193A3.9,3.9,0,0,1,.932,14a.948.948,0,0,1,.331-1.311.96.96,0,0,1,1.311.331,1.981,1.981,0,0,0,3.7-.994,2,2,0,0,0-1.987-1.987,2.058,2.058,0,0,0-.814.179A.954.954,0,0,1,2.2,9.744a.939.939,0,0,1,.469-1.256,3.9,3.9,0,0,1,4.375,6.294l1.9,2.954A24.086,24.086,0,0,1,19.62,13.291L19.4,10.614a4.169,4.169,0,1,1,4.762-4.127A4.158,4.158,0,0,1,21.3,10.434l.221,2.65c.593-.055,1.2-.1,1.822-.1A24.066,24.066,0,0,1,30.7,14.147l1.035-2.181a6.487,6.487,0,1,1,9.137-8.64.974.974,0,0,1-.386,1.311.957.957,0,0,1-1.3-.373,4.58,4.58,0,1,0-.276,4.886.957.957,0,1,1,1.573,1.09,6.479,6.479,0,0,1-5.3,2.733,6.391,6.391,0,0,1-1.7-.248L32.5,14.809a24.15,24.15,0,0,1,9.551,7.039l3.064-1.932a3.66,3.66,0,1,1,3.312,2.1,3.913,3.913,0,0,1-2.07-.607l-3.161,1.974A23.851,23.851,0,0,1,47.32,33.994l2.926-.7a4,4,0,0,1,7.936.759M50.177,18.343a1.76,1.76,0,0,0-3.52,0,1.76,1.76,0,1,0,3.52,0M22.256,6.487A2.264,2.264,0,1,0,19.993,8.75a2.265,2.265,0,0,0,2.264-2.264" transform="translate(10.165 -0.005)"/>
        <path id="Trazado_898623-2" data-name="Trazado 898623" d="M42.474,10.125a5.935,5.935,0,1,1-5.907,5.935,5.833,5.833,0,0,1,1.863-4.279L37.2,9.753a23.891,23.891,0,0,1-9.427,3.561l.055,1.877a4.582,4.582,0,1,1-4.237,7.66.958.958,0,0,1,.041-1.353.93.93,0,0,1,1.339.028,2.66,2.66,0,1,0,1.918-4.513,2.609,2.609,0,0,0-1.877.787.956.956,0,0,1-1.353-1.353A4.317,4.317,0,0,1,25.9,15.232l-.041-1.684c-.593.041-1.187.083-1.78.083a24.086,24.086,0,0,1-7.508-1.2l-.939,1.6a4.22,4.22,0,1,1-2.526-.842,4.566,4.566,0,0,1,.759.069l.9-1.518A24.357,24.357,0,0,1,8.466,7.9l-2,1.877a3.189,3.189,0,0,1,.483,1.656,3.106,3.106,0,1,1-6.1-.8A.941.941,0,0,1,2.021,9.96.965.965,0,0,1,2.7,11.119a1.188,1.188,0,1,0,2.333.317,1.19,1.19,0,0,0-1.187-1.2.952.952,0,1,1,0-1.9,3.494,3.494,0,0,1,1.132.207l2.07-1.932C6.63,6.178,6.189,5.778,5.8,5.322A.959.959,0,1,1,7.252,4.066a22.067,22.067,0,0,0,8.488,6l1.339-2.291a.948.948,0,0,1,1.311-.331.936.936,0,0,1,.345,1.3l-1.159,1.987a22.27,22.27,0,0,0,6.5.98c.566,0,1.159-.041,1.725-.083L25.719,8.7a.946.946,0,0,1,.925-.98.964.964,0,0,1,.98.925l.083,2.747A22.3,22.3,0,0,0,36.222,8.11L34.883,5.874a.948.948,0,0,1,.331-1.311.97.97,0,0,1,1.325.331l1.256,2.1c.511-.4,1.008-.828,1.5-1.284a.944.944,0,0,1,1.339.069A.93.93,0,0,1,40.6,7.116a21.394,21.394,0,0,1-1.822,1.532l1.242,2.043a5.635,5.635,0,0,1,2.457-.566M46.5,16.06a4.016,4.016,0,1,0-4.03,4.03,4.02,4.02,0,0,0,4.03-4.03M15.422,17.413A2.319,2.319,0,1,0,13.1,19.731a2.324,2.324,0,0,0,2.319-2.319" transform="translate(9.435 47.824)"/>
        <path id="Trazado_898624-2" data-name="Trazado 898624" d="M19.461,28.857a.962.962,0,0,1-.69,1.159L14.23,31.19l.069.11a.967.967,0,0,1-.331,1.325,1.07,1.07,0,0,1-.483.138.977.977,0,0,1-.842-.469l-.317-.607-3.354.87a4.278,4.278,0,1,1-.373-1.9l2.843-.732a23.994,23.994,0,0,1-2.167-9.979l.014-.455-.98-.221A4.284,4.284,0,0,1,0,17.788a4.763,4.763,0,0,1,.124-.98A.963.963,0,0,1,1.27,16.09a.966.966,0,0,1,.718,1.159,2.4,2.4,0,0,0-.069.538,2.374,2.374,0,1,0,4.748,0,2.419,2.419,0,0,0-1.38-2.167.937.937,0,0,1-.455-1.256A.954.954,0,0,1,6.1,13.9,4.235,4.235,0,0,1,8.543,17.36l.856.193A24.1,24.1,0,0,1,11.732,9.3L8.971,6.981A3.41,3.41,0,0,1,6.335,8.237a3.444,3.444,0,1,1,3.437-3.45l-.028.331L12.67,7.575c.235-.4.469-.8.745-1.187a.954.954,0,0,1,1.325-.262.967.967,0,0,1,.248,1.339c-.29.442-.566.9-.828,1.353L15.417,9.88a.959.959,0,0,1-.607,1.7,1.033,1.033,0,0,1-.621-.221l-.939-.8a22.256,22.256,0,0,0-1.974,7.425L15.693,19a.961.961,0,0,1,.732,1.146.987.987,0,0,1-.952.745l-.193-.028-4.085-.939v.014a22.253,22.253,0,0,0,2.126,9.5l4.983-1.27a.941.941,0,0,1,1.159.69M7.853,4.787A1.525,1.525,0,1,0,6.335,6.319,1.532,1.532,0,0,0,7.853,4.787M7.067,32.418a2.381,2.381,0,1,0-2.374,2.374,2.383,2.383,0,0,0,2.374-2.374" transform="translate(0 17.277)"/>
      </g>
    </g>
  </g>
</svg>
