<svg xmlns="http://www.w3.org/2000/svg" xmlns:xlink="http://www.w3.org/1999/xlink" width="105" height="105" viewBox="0 0 105 105">
  <defs>
    <clipPath id="clip-path">
      <rect id="Rectángulo_403341" data-name="Rectángulo 403341" width="69.252" height="66.881" fill="none"/>
    </clipPath>
  </defs>
  <g id="_75" data-name="75" transform="translate(-877 -794)">
    <circle id="Elipse_11714" data-name="Elipse 11714" cx="52.5" cy="52.5" r="52.5" transform="translate(877 794)" fill="#ecdb9f"/>
    <g id="Grupo_1107285" data-name="Grupo 1107285" transform="translate(895 809.914)">
      <g id="Grupo_1107284" data-name="Grupo 1107284" transform="translate(0 0)" clip-path="url(#clip-path)">
        <path id="Trazado_898625" data-name="Trazado 898625" d="M17.924,8.443A5.1,5.1,0,0,0,18.436,6.3,5.01,5.01,0,0,0,13.667,1.29C8.494.684-.073,2.516.129,9.534.358,17.2,9.882,16.647,14.6,14.653a5.2,5.2,0,0,0,3.341-6.169l-.013-.04" transform="translate(1.568 14.734)" fill="#9299fb"/>
        <path id="Trazado_898626" data-name="Trazado 898626" d="M28.482,11.151a7.627,7.627,0,0,1-4.5,13.807l-.162-.013A7.434,7.434,0,0,1,19.5,23.5l-5.819-4.23L6.161,13.818A8.709,8.709,0,0,1,4.8,12.552,7.636,7.636,0,0,1,11.725.078a.926.926,0,0,1,.795,1.037.941.941,0,0,1-.929.822l-.135-.013A5.77,5.77,0,0,0,7.266,12.31L20.6,21.995a5.767,5.767,0,1,0,6.776-9.335l-12.245-8.9A.907.907,0,0,1,14.8,2.732a1.092,1.092,0,0,1,.135-.283.956.956,0,0,1,1.307-.216Z" transform="translate(37.618 -0.003)"/>
        <path id="Trazado_898627" data-name="Trazado 898627" d="M22.423,6.494a7.653,7.653,0,0,1,.66,5.806L18.557,28.154a7.643,7.643,0,1,1-14.7-4.2l2.425-8.527L8.4,8.11A7.665,7.665,0,0,1,16.55,2.6a7.32,7.32,0,0,1,1.293.256,7.635,7.635,0,0,1,4.58,3.637m-1.132,5.294a5.758,5.758,0,0,0-3.974-7.139,6.344,6.344,0,0,0-1.576-.216,5.779,5.779,0,0,0-5.55,4.189L5.666,24.463a5.741,5.741,0,0,0,.5,4.391,5.776,5.776,0,0,0,7.853,2.25,5.707,5.707,0,0,0,2.735-3.475Z" transform="translate(44.444 31.918)"/>
        <path id="Trazado_898628" data-name="Trazado 898628" d="M25.65,10.931a5.767,5.767,0,1,1-6.776,9.335L5.538,10.594A5.779,5.779,0,0,1,9.727.2l.135.013L13.068,1A.913.913,0,0,0,13.4,2.041Z" transform="translate(39.346 1.726)" fill="#9299fb"/>
        <path id="Trazado_898629" data-name="Trazado 898629" d="M19.058,5.663a5.741,5.741,0,0,1,.5,4.391L15.017,25.9a5.681,5.681,0,0,1-2.735,3.462A5.769,5.769,0,0,1,3.931,22.73L8.457,6.875A5.771,5.771,0,0,1,14.02,2.7a5.916,5.916,0,0,1,1.576.216,5.749,5.749,0,0,1,3.462,2.748" transform="translate(46.179 33.652)" fill="#9299fb"/>
        <path id="Trazado_898630" data-name="Trazado 898630" d="M5.642,1.972a.932.932,0,0,1,.889.97l-.2,4.836a.954.954,0,0,1-.929.9A.934.934,0,0,1,4.47,7.7l.2-4.822a.952.952,0,0,1,.97-.9" transform="translate(55.729 24.586)"/>
        <path id="Trazado_898631" data-name="Trazado 898631" d="M22.257,7.1l-.067,1.616a.965.965,0,0,0-.983.9l-.189,4.836a.922.922,0,0,0,.929.97l-.135,1.253a7.632,7.632,0,0,0-8.15,5.5l-2.1,7.314L9.2,28.816a.931.931,0,0,0-.418-1.024L5.432,25.745a.9.9,0,0,0-1.118.121L3.142,24.614l5.119-4.742a7.665,7.665,0,0,0,.4-10.79A7.84,7.84,0,0,0,6.793,7.614l.66-1.024a.973.973,0,0,0,.242.323.976.976,0,0,0,1.32-.121L11.628,3.6a.949.949,0,0,0-.135-1.307l.62-.862,5.819,4.23A7.4,7.4,0,0,0,22.257,7.1" transform="translate(39.182 17.84)" fill="#e79aca"/>
        <path id="Trazado_898632" data-name="Trazado 898632" d="M28.936,7.654l-.62.862A.953.953,0,0,0,27,8.651l-2.6,3.166a.991.991,0,0,0-.121,1l-.66,1.024a7.725,7.725,0,0,0-7.638.094.921.921,0,0,0-.323,1.266.941.941,0,0,0,1.28.337,5.774,5.774,0,0,1,6.87,9.2L11.721,35.955a5.7,5.7,0,0,1-4.135,1.522,5.689,5.689,0,0,1-4.014-1.832,5.8,5.8,0,0,1-.929-6.52.942.942,0,0,0-.418-1.253.821.821,0,0,0-.431-.108l.983-2.209a7.52,7.52,0,0,0,2.964.606,7.64,7.64,0,0,0,7.638-7.638V4.151h1.455a.665.665,0,0,0,.067.323.9.9,0,0,0,.862.633.665.665,0,0,0,.323-.067l3.139-1.118A.938.938,0,0,0,18.9,2.1L20.046.932A8.244,8.244,0,0,0,21.419,2.2Z" transform="translate(22.36 11.617)" fill="#e79aca"/>
        <path id="Trazado_898633" data-name="Trazado 898633" d="M7.585,1.679A.965.965,0,0,1,7.72,3L5.106,6.178a.976.976,0,0,1-1.32.121.735.735,0,0,1-.242-.323.937.937,0,0,1,.121-.983l2.6-3.166a.955.955,0,0,1,1.32-.148" transform="translate(43.104 18.454)"/>
        <path id="Trazado_898634" data-name="Trazado 898634" d="M7.977,5.415a.942.942,0,0,1,.418,1.037l-.121.242a.9.9,0,0,1-.781.445A.968.968,0,0,1,7.007,7L3.653,4.957a.936.936,0,0,1-.31-1.28L3.5,3.489a.9.9,0,0,1,1.118-.121Z" transform="translate(40.005 40.218)"/>
        <path id="Trazado_898635" data-name="Trazado 898635" d="M26.987,4.25a7.64,7.64,0,0,1-.4,10.79l-5.119,4.742-4.472,4.162-2.479,2.317a7.6,7.6,0,0,1-5.2,2.048l-.3-.013A7.548,7.548,0,0,1,3.71,25.857a7.688,7.688,0,0,1-1.239-8.621.914.914,0,0,1,.835-.525.853.853,0,0,1,.431.108.942.942,0,0,1,.418,1.253,5.8,5.8,0,0,0,.929,6.52A5.664,5.664,0,0,0,9.1,26.423,5.724,5.724,0,0,0,13.234,24.9L25.317,13.679a5.778,5.778,0,0,0-6.883-9.2.944.944,0,0,1-1.28-.337.928.928,0,0,1,.337-1.266,7.725,7.725,0,0,1,7.638-.094A7.517,7.517,0,0,1,26.987,4.25" transform="translate(20.86 22.672)"/>
        <path id="Trazado_898636" data-name="Trazado 898636" d="M7.719,1.652A.917.917,0,0,1,7.14,2.838L4.015,3.956a.867.867,0,0,1-.323.067.94.94,0,0,1-.876-.633.859.859,0,0,1-.054-.323.94.94,0,0,1,.62-.876L6.52,1.073a.79.79,0,0,1,.31-.054.938.938,0,0,1,.889.633" transform="translate(34.443 12.702)"/>
        <path id="Trazado_898637" data-name="Trazado 898637" d="M16.743,14.466a7.619,7.619,0,0,1-7.5,7.746H9.106a7.59,7.59,0,0,1-7.059-4.728.916.916,0,0,1,.5-1.212,1.089,1.089,0,0,1,.364-.067.939.939,0,0,1,.862.566,5.687,5.687,0,0,0,5.442,3.583,5.773,5.773,0,0,0,5.671-5.86l-.162-9.968a.894.894,0,0,1,.269-.674.907.907,0,0,1,.647-.269.939.939,0,0,1,.943.916Z" transform="translate(24.611 44.663)"/>
        <path id="Trazado_898638" data-name="Trazado 898638" d="M24.708,14.759l1.765,1.886a.894.894,0,0,0-.269.674l.148,9.982a5.772,5.772,0,0,1-5.671,5.86,5.669,5.669,0,0,1-5.429-3.583A.949.949,0,0,0,14.376,29V25.4h2.883a.936.936,0,0,0,0-1.872H11.938a.946.946,0,0,0-.943.943,1.028,1.028,0,0,0,.067.364l-2.048.094a7.788,7.788,0,0,0-.552-1.6L1.418,8.428C1.3,8.2,1.189,7.97,1.054,7.755L2.711,7.4a.941.941,0,0,0,.674.3.984.984,0,0,0,.445-.108L7.223,5.815a.926.926,0,0,0,.4-1.253.951.951,0,0,0-.822-.512l1.832-1.5a7.523,7.523,0,0,0,3.368,2.761l-.983,2.209a.905.905,0,0,0-.822.512,7.682,7.682,0,0,0,1.226,8.621A7.525,7.525,0,0,0,16.747,19.1l.283.013a7.555,7.555,0,0,0,5.2-2.048Z" transform="translate(13.144 31.857)" fill="#e79aca"/>
        <path id="Trazado_898639" data-name="Trazado 898639" d="M16.795,10.2V24.573a7.641,7.641,0,0,1-13.969,4.27,7.722,7.722,0,0,1-1.307-4.27V8.085a7.638,7.638,0,1,1,15.276,0ZM14.936,24.573V8.085a5.772,5.772,0,1,0-11.544,0V24.573a5.772,5.772,0,1,0,11.544,0" transform="translate(18.943 5.569)"/>
        <path id="Trazado_898640" data-name="Trazado 898640" d="M13.2,6.364V22.852a5.772,5.772,0,1,1-11.544,0V6.364a5.772,5.772,0,1,1,11.544,0" transform="translate(20.676 7.29)" fill="#9299fb"/>
        <path id="Trazado_898641" data-name="Trazado 898641" d="M8.068,4.112a.936.936,0,0,1,0,1.872H2.747a.933.933,0,0,1-.862-.566.667.667,0,0,1-.094-.364.957.957,0,0,1,.956-.943Z" transform="translate(22.335 51.273)"/>
        <path id="Trazado_898642" data-name="Trazado 898642" d="M22.154,23.549a7.655,7.655,0,0,1-4.2,8.567,7.667,7.667,0,0,1-3.26.727,7.618,7.618,0,0,1-6.91-4.364L.736,13.581A7.592,7.592,0,0,1,.453,7.735a7.513,7.513,0,0,1,3.92-4.324,7.557,7.557,0,0,1,5.833-.3,7.685,7.685,0,0,1,3.987,3.26c.121.216.242.445.35.674l7.059,14.9a8.679,8.679,0,0,1,.552,1.6m-2.034,3.61a5.78,5.78,0,0,0-.216-4.418L12.86,7.842A5.659,5.659,0,0,0,9.573,4.879,5.73,5.73,0,0,0,7.62,4.542a5.656,5.656,0,0,0-2.452.552A5.74,5.74,0,0,0,2.42,12.773l7.059,14.9a5.781,5.781,0,0,0,7.678,2.761,5.758,5.758,0,0,0,2.964-3.273" transform="translate(0.005 33.25)"/>
        <path id="Trazado_898643" data-name="Trazado 898643" d="M6.332,3.165a.941.941,0,0,1-.4,1.266L2.533,6.21a.976.976,0,0,1-.445.094.927.927,0,0,1-.674-.283l-.148-.216a.936.936,0,0,1,.391-1.266L5.066,2.761A1.041,1.041,0,0,1,5.5,2.667a.969.969,0,0,1,.835.5" transform="translate(14.44 33.253)"/>
        <path id="Trazado_898644" data-name="Trazado 898644" d="M18.185,21.017a5.767,5.767,0,1,1-10.426,4.93L.7,11.049A5.748,5.748,0,0,1,7.853,3.155,5.659,5.659,0,0,1,11.14,6.119Z" transform="translate(1.725 34.974)" fill="#9299fb"/>
        <path id="Trazado_898645" data-name="Trazado 898645" d="M16.859,15.447a.924.924,0,0,1-.876.983L8.2,16.943l-.512.013A7.646,7.646,0,0,1,7.214,1.681l8.662-.552A.941.941,0,0,1,16.859,2a.928.928,0,0,1-.876,1l-8.648.552A5.761,5.761,0,0,0,1.947,9.669a5.781,5.781,0,0,0,6.116,5.4l7.813-.5a.932.932,0,0,1,.983.876" transform="translate(0.882 14.048)"/>
      </g>
    </g>
  </g>
</svg>
