<svg xmlns="http://www.w3.org/2000/svg" xmlns:xlink="http://www.w3.org/1999/xlink" width="65" height="65" viewBox="0 0 65 65">
  <defs>
    <clipPath id="clip-path">
      <rect id="Rect치ngulo_403768" data-name="Rect치ngulo 403768" width="36.826" height="38.986" fill="none"/>
    </clipPath>
  </defs>
  <g id="_95" data-name="95" transform="translate(-1190 -1705)">
    <rect id="Rect치ngulo_403767" data-name="Rect치ngulo 403767" width="65" height="65" rx="32.5" transform="translate(1190 1705)" fill="#fff"/>
    <g id="Grupo_1108101" data-name="Grupo 1108101" transform="translate(1204 1718)">
      <g id="Grupo_1108100" data-name="Grupo 1108100" clip-path="url(#clip-path)">
        <path id="Trazado_899887" data-name="Trazado 899887" d="M18.413,38.986C6.539,38.986,0,34.129,0,25.31A16.806,16.806,0,0,1,11.019,9.245v-3h-.466a3.121,3.121,0,1,1,0-6.241H26.273a3.121,3.121,0,1,1,0,6.241h-.466v3A16.806,16.806,0,0,1,36.826,25.31c0,8.819-6.539,13.676-18.413,13.676m-7.86-37.6a1.739,1.739,0,0,0,0,3.477H11.71a.691.691,0,0,1,.691.691V9.727a.691.691,0,0,1-.461.652A15.476,15.476,0,0,0,1.382,25.31c0,10.7,10.67,12.294,17.03,12.294s17.031-1.6,17.031-12.294A15.476,15.476,0,0,0,24.885,10.379a.691.691,0,0,1-.461-.652V5.551a.691.691,0,0,1,.691-.691h1.158a1.739,1.739,0,0,0,0-3.477Z" fill="#6d961e"/>
        <path id="Trazado_899888" data-name="Trazado 899888" d="M54.855,47.219a.691.691,0,0,1-.39-.12c-.148-.1-3.612-2.518-3.612-6.554,0-3.932,3.34-7.787,3.482-7.949a.691.691,0,0,1,1.089.064c.131.19,3.2,4.688,3.2,8,0,3.408-3.176,6.264-3.311,6.384a.69.69,0,0,1-.459.174M54.8,34.243c-.907,1.231-2.561,3.816-2.561,6.3a7,7,0,0,0,2.57,5.062c.787-.828,2.438-2.817,2.438-4.945s-1.6-5.033-2.446-6.418" transform="translate(-36.195 -23.033)" fill="#6d961e"/>
        <path id="Trazado_899889" data-name="Trazado 899889" d="M27.25,80.556A7.673,7.673,0,0,1,22.8,79.134c-2.2-1.535-3.866-5.4-3.936-5.561a.692.692,0,0,1,.438-.934c.234-.07,5.775-1.684,8.648.973a7.216,7.216,0,0,1,1.976,6.06.69.69,0,0,1-.438.535,6.806,6.806,0,0,1-2.244.351m-6.76-6.784A12.392,12.392,0,0,0,23.6,78,6.26,6.26,0,0,0,28.6,79.027a5.688,5.688,0,0,0-1.587-4.4c-1.746-1.615-5.025-1.169-6.527-.854" transform="translate(-13.39 -51.31)" fill="#6d961e"/>
        <path id="Trazado_899890" data-name="Trazado 899890" d="M62.831,81.476a.692.692,0,0,1-.681-.812,22.836,22.836,0,0,0-.265-8.334,19.144,19.144,0,0,1-.325-6.521.691.691,0,0,1,1.363.227,18.089,18.089,0,0,0,.326,6.066,24.306,24.306,0,0,1,.262,8.8.691.691,0,0,1-.68.571" transform="translate(-43.698 -46.43)" fill="#6d961e"/>
        <path id="Trazado_899891" data-name="Trazado 899891" d="M49.163,96.851a.692.692,0,0,1-.667-.511,16.252,16.252,0,0,0-6-8.241.691.691,0,0,1,.767-1.15,17.379,17.379,0,0,1,6.565,9.031.691.691,0,0,1-.668.871" transform="translate(-30.031 -61.805)" fill="#6d961e"/>
        <path id="Trazado_899892" data-name="Trazado 899892" d="M77.867,80.556a6.8,6.8,0,0,1-2.244-.351.691.691,0,0,1-.438-.535,7.214,7.214,0,0,1,1.976-6.059c2.873-2.658,8.414-1.043,8.649-.973a.691.691,0,0,1,.438.934c-.07.164-1.738,4.027-3.936,5.561a7.673,7.673,0,0,1-4.445,1.423m-1.356-1.53A6.258,6.258,0,0,0,81.52,78a12.381,12.381,0,0,0,3.106-4.228c-1.5-.314-4.786-.757-6.526.853a5.652,5.652,0,0,0-1.589,4.4" transform="translate(-53.468 -51.31)" fill="#6d961e"/>
        <path id="Trazado_899893" data-name="Trazado 899893" d="M64.648,96.851a.684.684,0,0,1-.18-.024.691.691,0,0,1-.487-.847,17.378,17.378,0,0,1,6.565-9.031.691.691,0,1,1,.766,1.151,16.254,16.254,0,0,0-6,8.24.691.691,0,0,1-.667.511" transform="translate(-45.522 -61.804)" fill="#6d961e"/>
      </g>
    </g>
  </g>
</svg>
