<svg xmlns="http://www.w3.org/2000/svg" xmlns:xlink="http://www.w3.org/1999/xlink" width="91.215" height="91.215" viewBox="0 0 91.215 91.215">
  <defs>
    <clipPath id="clip-path">
      <rect id="Rectángulo_403284" data-name="Rectángulo 403284" width="47.36" height="52.705" fill="none"/>
    </clipPath>
  </defs>
  <g id="a2" transform="translate(6815.45 12805.855)">
    <g id="Grupo_1103760" data-name="Grupo 1103760" transform="translate(-6815.45 -12805.855)">
      <g id="Trazado_874102" data-name="Trazado 874102" transform="translate(0 0)" fill="#8ab72c">
        <path d="M 45.60742568969727 88.71485137939453 C 39.7868537902832 88.71485137939453 34.14172744750977 87.57545471191406 28.8288402557373 85.32828521728516 C 23.6959400177002 83.15725708007812 19.0855827331543 80.04869842529297 15.12586879730225 76.08898162841797 C 11.16615390777588 72.12926483154297 8.057597160339355 67.51891326904297 5.886568546295166 62.38601303100586 C 3.639397144317627 57.07312393188477 2.499997138977051 51.42799758911133 2.499997138977051 45.60742568969727 C 2.499997138977051 39.7868537902832 3.639397144317627 34.14172744750977 5.886568546295166 28.8288402557373 C 8.057597160339355 23.6959400177002 11.16615390777588 19.0855827331543 15.12586879730225 15.12586879730225 C 19.0855827331543 11.16615390777588 23.6959400177002 8.057597160339355 28.8288402557373 5.886568546295166 C 34.14172744750977 3.639397144317627 39.7868537902832 2.499997138977051 45.60742568969727 2.499997138977051 C 51.42799758911133 2.499997138977051 57.07312393188477 3.639397144317627 62.38601303100586 5.886568546295166 C 67.51891326904297 8.057597160339355 72.12926483154297 11.16615390777588 76.08898162841797 15.12586879730225 C 80.04869842529297 19.0855827331543 83.15725708007812 23.6959400177002 85.32828521728516 28.8288402557373 C 87.57545471191406 34.14172744750977 88.71485137939453 39.7868537902832 88.71485137939453 45.60742568969727 C 88.71485137939453 51.42799758911133 87.57545471191406 57.07312393188477 85.32828521728516 62.38601303100586 C 83.15725708007812 67.51891326904297 80.04869842529297 72.12926483154297 76.08898162841797 76.08898162841797 C 72.12926483154297 80.04869842529297 67.51891326904297 83.15725708007812 62.38601303100586 85.32828521728516 C 57.07312393188477 87.57545471191406 51.42799758911133 88.71485137939453 45.60742568969727 88.71485137939453 Z" stroke="none"/>
        <path d="M 45.60742568969727 4.999992370605469 C 40.12326049804688 4.999992370605469 34.80579376220703 6.072959899902344 29.80272674560547 8.189079284667969 C 24.96781158447266 10.23407745361328 20.62457275390625 13.16271209716797 16.89363861083984 16.89363861083984 C 13.16271209716797 20.62457275390625 10.23407745361328 24.96781158447266 8.189079284667969 29.80272674560547 C 6.072959899902344 34.80579376220703 4.999992370605469 40.12326049804688 4.999992370605469 45.60742568969727 C 4.999992370605469 51.09159088134766 6.072959899902344 56.4090576171875 8.189079284667969 61.41212463378906 C 10.23406219482422 66.24703979492188 13.16271209716797 70.59027099609375 16.89363861083984 74.32121276855469 C 20.62455749511719 78.05213928222656 24.96781158447266 80.98077392578125 29.80270767211914 83.0257568359375 C 34.8057746887207 85.14187622070312 40.12326049804688 86.21484375 45.60742568969727 86.21484375 C 51.09159088134766 86.21484375 56.4090576171875 85.14187622070312 61.41212463378906 83.0257568359375 C 66.24703979492188 80.98077392578125 70.59027099609375 78.05213928222656 74.32121276855469 74.32121276855469 C 78.05213928222656 70.59027099609375 80.98077392578125 66.24703979492188 83.0257568359375 61.41212463378906 C 85.14187622070312 56.4090576171875 86.21484375 51.09159088134766 86.21484375 45.60742568969727 C 86.21484375 40.12326049804688 85.14187622070312 34.8057746887207 83.0257568359375 29.80270767211914 C 80.98077392578125 24.96781158447266 78.05213928222656 20.62455749511719 74.32121276855469 16.89363861083984 C 70.59027099609375 13.16271209716797 66.24703979492188 10.23406219482422 61.41212463378906 8.189079284667969 C 56.4090576171875 6.072959899902344 51.09159088134766 4.999992370605469 45.60742568969727 4.999992370605469 M 45.60742568969727 -7.62939453125e-06 C 70.79570770263672 -7.62939453125e-06 91.21484375 20.41914367675781 91.21484375 45.60742568969727 C 91.21484375 70.79570770263672 70.79570770263672 91.21484375 45.60742568969727 91.21484375 C 20.41914367675781 91.21484375 -7.62939453125e-06 70.79570770263672 -7.62939453125e-06 45.60742568969727 C -7.62939453125e-06 20.41914367675781 20.41914367675781 -7.62939453125e-06 45.60742568969727 -7.62939453125e-06 Z" stroke="none" fill="#fff"/>
      </g>
    </g>
    <g id="Grupo_1107238" data-name="Grupo 1107238" transform="translate(-6795.244 -12786.601)">
      <g id="Grupo_1107237" data-name="Grupo 1107237" transform="translate(0 0)" clip-path="url(#clip-path)">
        <path id="Trazado_898471" data-name="Trazado 898471" d="M17.041,15.061,30.66,10.818S25.392,2.7,11.735,4.4,2.62,8.189,2.62,8.189s12.642,4.156,14.421,6.872" transform="translate(16.449 36.099)" fill="#f2cd86"/>
        <path id="Trazado_898472" data-name="Trazado 898472" d="M.112,8.138V19A29,29,0,0,1,16.794,11.84s8.013-4.272,9.143-4.224S22.71,4.775,22.71,4.775,10.367,1.044.112,8.138" transform="translate(0.971 32.883)" fill="#eecf93"/>
        <path id="Trazado_898473" data-name="Trazado 898473" d="M10.01,6.464a4.2,4.2,0,0,1,.648,3.4,9.055,9.055,0,0,1-3.431,4.456V9.479a.957.957,0,1,0-1.914,0v5.074a6.982,6.982,0,0,1-3.132-4.108C1.5,7.623,2.829,4.211,6.124.268c.764,1.266,2.146,3.5,3.885,6.2" transform="translate(17.411 2.323)" fill="#79c651"/>
        <path id="Trazado_898474" data-name="Trazado 898474" d="M12.348,4.065A8.4,8.4,0,0,1,15.373,9.12,17.779,17.779,0,0,1,8.134,5.08.95.95,0,1,0,6.82,6.453a19.361,19.361,0,0,0,7.433,4.34,5.9,5.9,0,0,1-4.214.686C5.679,10.57,2.151,5.051.827,2.683,5.921,1.63,9.8,2.094,12.348,4.065" transform="translate(7.166 18.495)" fill="#79c651"/>
        <path id="Trazado_898475" data-name="Trazado 898475" d="M17.113,2.685c-1.324,2.358-4.833,7.887-9.2,8.8a5.876,5.876,0,0,1-4.224-.7,19.342,19.342,0,0,0,7.442-4.33A.957.957,0,1,0,9.806,5.072a17.489,17.489,0,0,1-7.239,4.04A8.391,8.391,0,0,1,5.583,4.077C8.134,2.086,12.02,1.631,17.113,2.685" transform="translate(22.244 18.493)" fill="#79c651"/>
        <path id="Trazado_898476" data-name="Trazado 898476" d="M47.044,45.558A.953.953,0,0,1,46.4,47.22a.923.923,0,0,1-.638-.242,21.946,21.946,0,0,0-24.975-3.025A23.4,23.4,0,0,1,33.426,49.8a.952.952,0,0,1,.068,1.353.982.982,0,0,1-1.363.068,21.637,21.637,0,0,0-14.643-5.606A21.71,21.71,0,0,0,1.665,52.391.968.968,0,0,1,.96,52.7a.962.962,0,0,1-.706-1.614,23.726,23.726,0,0,1,17.233-7.394h.048a23.142,23.142,0,0,1,8.428-3.673A21.942,21.942,0,0,0,2.419,41.237a.956.956,0,0,1-1.334-.213A.967.967,0,0,1,1.3,39.681a23.9,23.9,0,0,1,21.418-3.2V30.731a8.2,8.2,0,0,1-4.311,1.3,8.4,8.4,0,0,1-1.6-.174C10.335,30.489,5.889,21.327,5.705,20.94A.964.964,0,0,1,6.334,19.6c6.292-1.537,11.135-1.054,14.382,1.459a9.182,9.182,0,0,1,2,2.136V19.074a9.3,9.3,0,0,1-5-5.848c-.889-3.692.87-8.042,5.229-12.913A1.016,1.016,0,0,1,23.76,0a.973.973,0,0,1,.725.474C24.5.5,26.322,3.542,29.028,7.756a6.076,6.076,0,0,1,.889,4.891c-.8,3.2-4.03,5.538-5.277,6.331v4.214a9.233,9.233,0,0,1,2.01-2.136c3.238-2.513,8.071-3.006,14.372-1.459a.924.924,0,0,1,.628.522.942.942,0,0,1,0,.822c-.184.387-4.63,9.549-11.1,10.912a8.412,8.412,0,0,1-1.614.174,8.214,8.214,0,0,1-4.3-1.3v6.476a22.772,22.772,0,0,1,4.195,2.368,22.394,22.394,0,0,1,2.281-.126,23.553,23.553,0,0,1,15.929,6.109M30.159,29.967c4.369-.9,7.877-6.427,9.2-8.786-5.094-1.054-8.979-.6-11.54,1.392a8.391,8.391,0,0,0-3.006,5.036,17.661,17.661,0,0,0,7.239-4.04.957.957,0,1,1,1.324,1.382,19.342,19.342,0,0,1-7.442,4.33,5.822,5.822,0,0,0,4.224.686M28.071,12.183a4.171,4.171,0,0,0-.657-3.4c-1.74-2.7-3.112-4.929-3.885-6.2-3.3,3.943-4.62,7.355-3.943,10.178a7.019,7.019,0,0,0,3.132,4.108V11.8a.962.962,0,1,1,1.923,0v4.842c1.247-.957,2.958-2.561,3.431-4.456M22.542,27.609a8.421,8.421,0,0,0-3.025-5.055C16.966,20.582,13.09,20.128,8,21.182c1.324,2.358,4.852,7.887,9.211,8.786a5.8,5.8,0,0,0,4.214-.686,19.317,19.317,0,0,1-7.433-4.33A.954.954,0,1,1,15.3,23.569a17.6,17.6,0,0,0,7.239,4.04" transform="translate(-0.003 0.006)" fill="#252d32"/>
      </g>
    </g>
  </g>
</svg>
