<svg xmlns="http://www.w3.org/2000/svg" width="53.85" height="52.001" viewBox="0 0 53.85 52.001">
  <g id="Grupo_1106643" data-name="Grupo 1106643" transform="translate(-194.73 -5774.494)">
    <rect id="Rectángulo_402557" data-name="Rectángulo 402557" width="26" height="52" rx="5" transform="translate(194.73 5774.494)" fill="#faecab"/>
    <g id="tractor_1_" data-name="tractor (1)" transform="translate(199.077 5750.901)">
      <path id="Trazado_893959" data-name="Trazado 893959" d="M97.771,85.672H81.93l-3.921-15.5H58.391V93.033a8.373,8.373,0,0,1,11.827,7.628,8.456,8.456,0,0,1-.054.94H87.638a5.914,5.914,0,0,1,11.431,0h.663a1.791,1.791,0,0,0,1.791-1.791V89.424A3.753,3.753,0,0,0,97.771,85.672Z" transform="translate(-52.745 -34.167)" fill="#ff5023"/>
      <path id="Trazado_893960" data-name="Trazado 893960" d="M475.09,284.017h1.387v-3.351H475.09a1.612,1.612,0,0,0-1.612,1.612v.128A1.612,1.612,0,0,0,475.09,284.017Z" transform="translate(-427.699 -224.312)" fill="#fff"/>
      <rect id="Rectángulo_402149" data-name="Rectángulo 402149" width="2.112" height="7.142" transform="translate(3.534 49.213)" fill="#e0e0e2"/>
      <rect id="Rectángulo_402150" data-name="Rectángulo 402150" width="10.675" height="2.255" transform="translate(33.715 49.213)" fill="#fed322"/>
      <g id="Grupo_1104005" data-name="Grupo 1104005" transform="translate(5.646 36.002)">
        <path id="Trazado_893961" data-name="Trazado 893961" d="M461.635,366.2a5.912,5.912,0,0,1,1.69,2.811h.663a1.791,1.791,0,0,0,1.791-1.791V366.2h-4.144Z" transform="translate(-422.647 -337.575)" fill="#cd2a01"/>
        <path id="Trazado_893962" data-name="Trazado 893962" d="M61.844,89.132c-.178,0-.354.005-.529.013V70.169H58.391V93.033a8.373,8.373,0,0,1,11.827,7.628,8.456,8.456,0,0,1-.054.94H87.638a5.911,5.911,0,0,1,1.69-2.811H73.222A11.532,11.532,0,0,0,61.844,89.132Z" transform="translate(-58.391 -70.169)" fill="#cd2a01"/>
      </g>
      <rect id="Rectángulo_402151" data-name="Rectángulo 402151" width="22.233" height="2.932" transform="translate(4.589 33.07)" fill="#fece00"/>
      <g id="Grupo_1104006" data-name="Grupo 1104006" transform="translate(0.725 42.749)">
        <rect id="Rectángulo_402152" data-name="Rectángulo 402152" width="2.547" height="8.719" transform="translate(30.444 0)" fill="#77767e"/>
        <path id="Trazado_893963" data-name="Trazado 893963" d="M370.47,354.221a5.915,5.915,0,1,0,.2,1.52A5.915,5.915,0,0,0,370.47,354.221Z" transform="translate(-324.871 -329.536)" fill="#77767e"/>
        <path id="Trazado_893964" data-name="Trazado 893964" d="M15.875,298.936a8.374,8.374,0,1,0,8.32,9.314,8.366,8.366,0,0,0-8.32-9.314Z" transform="translate(-7.501 -283.564)" fill="#77767e"/>
      </g>
      <path id="Trazado_893965" data-name="Trazado 893965" d="M41.307,327.092a5.652,5.652,0,1,0,5.615,6.286,5.646,5.646,0,0,0-5.615-6.286Z" transform="translate(-32.208 -266.249)" fill="#57565c"/>
      <circle id="Elipse_11648" data-name="Elipse 11648" cx="3.453" cy="3.453" r="3.453" transform="translate(5.645 63.041)" fill="#e0e0e2"/>
      <path id="Trazado_893966" data-name="Trazado 893966" d="M391.483,378.3a3.406,3.406,0,1,0,.114.875A3.406,3.406,0,0,0,391.483,378.3Z" transform="translate(-347.583 -310.224)" fill="#57565c"/>
      <path id="Trazado_893967" data-name="Trazado 893967" d="M407.272,396.4a1.52,1.52,0,1,0,.051.391A1.52,1.52,0,0,0,407.272,396.4Z" transform="translate(-365.194 -327.833)" fill="#e0e0e2"/>
      <path id="Trazado_893968" data-name="Trazado 893968" d="M110.569,109.229H95.763V99.453h12.252Z" transform="translate(-86.504 -60.62)" fill="#97c7ef"/>
      <g id="Grupo_1104007" data-name="Grupo 1104007" transform="translate(11.389 41.235)">
        <rect id="Rectángulo_402153" data-name="Rectángulo 402153" width="6.775" height="1.45" transform="translate(4.791 5.816) rotate(-135)" fill="#fff"/>
        <rect id="Rectángulo_402154" data-name="Rectángulo 402154" width="5.245" height="1.45" transform="translate(7.192 4.976) rotate(-135)" fill="#fff"/>
      </g>
      <path id="Trazado_893969" data-name="Trazado 893969" d="M55.069,342.326a4.179,4.179,0,1,0,4.179,4.179A4.183,4.183,0,0,0,55.069,342.326Zm0,6.907A2.728,2.728,0,1,1,57.8,346.5,2.731,2.731,0,0,1,55.069,349.233Z" transform="translate(-45.97 -280.01)"/>
      <path id="Trazado_893970" data-name="Trazado 893970" d="M45.115,50.782V48.487H34.441V42.024H33.167V39.875a1.026,1.026,0,0,1,1.025-1.025V37.4a2.478,2.478,0,0,0-2.475,2.475v2.149H30.444v8.755h-.694L26.2,36.727h1.352V32.345H3.864v4.382H4.92v11.76H2.809v8.592H4.92v1.335A9.1,9.1,0,1,0,18.042,68.16H28.459v1.063H21.442v1.45h8.467V68.16h4.108A6.639,6.639,0,1,0,47.2,68.15,2.52,2.52,0,0,0,49.5,65.643V55.257A4.482,4.482,0,0,0,45.115,50.782Zm-10.675-.844h9.224v.8H34.441Zm-2.547-6.463h1.1v7.268h-1.1ZM5.314,33.8H26.1v1.481H5.314ZM4.259,55.629V49.938H4.92v5.691ZM16.744,66.7c-.006.212-.022.43-.046.649h0a7.64,7.64,0,1,1,.05-.86Q16.748,66.6,16.744,66.7Zm18.11-1.061c-.019.032-.038.064-.056.1s-.05.092-.074.139-.034.063-.05.1c-.025.05-.049.1-.072.15-.014.03-.029.06-.043.09-.026.058-.051.117-.076.176-.01.023-.02.046-.03.07q-.05.123-.095.248H18.2q0-.108,0-.215a9.171,9.171,0,0,0-.051-.962H34.919Zm5.754,8.5a5.188,5.188,0,1,1,1.284-10.215q.206.053.406.122.1.035.2.073a5.188,5.188,0,0,1-1.889,10.02Zm7.444-8.5a1.067,1.067,0,0,1-1.066,1.066h-.13q-.045-.126-.1-.249l-.026-.061c-.026-.062-.052-.123-.079-.184-.013-.029-.027-.057-.041-.086-.024-.052-.049-.1-.074-.154-.016-.031-.032-.062-.048-.093-.025-.048-.05-.1-.076-.142l-.054-.094c-.022-.038-.043-.076-.066-.114h1.755v.111Zm0-6.663h-.662a.887.887,0,0,1-.886-.886v-.128a.887.887,0,0,1,.886-.886h.662Zm0-3.351h-.662a2.34,2.34,0,0,0-2.337,2.337v.128a2.34,2.34,0,0,0,2.337,2.337h.662v3.651H45.115l-.066-.061c-.041-.037-.084-.074-.126-.11l-.07-.06c-.048-.04-.1-.078-.146-.117l-.057-.045q-.207-.159-.427-.3l-.052-.033c-.056-.035-.112-.071-.169-.1l-.078-.045c-.049-.028-.1-.056-.148-.083l-.09-.047L43.545,63l-.1-.046-.139-.064-.1-.044-.138-.058-.107-.041-.139-.051-.109-.038-.14-.045-.112-.034-.142-.039-.114-.029-.144-.034-.114-.025-.148-.028-.113-.02-.154-.023-.111-.015-.162-.017-.106-.01c-.06,0-.12-.008-.18-.011l-.09-.005q-.136-.006-.272-.006t-.272.006l-.09.005c-.06,0-.12.006-.18.011l-.106.01-.162.017-.111.015-.154.023-.113.02-.149.028-.114.025-.145.034-.113.029-.143.04-.111.034-.141.045L38.4,62.7l-.139.051-.106.041-.139.058-.1.044-.14.065-.1.046-.142.073-.09.047c-.05.027-.1.056-.148.084l-.078.045c-.057.034-.113.069-.169.105L37,63.387q-.219.142-.427.3l-.057.045c-.049.038-.1.077-.146.117l-.07.06c-.042.036-.085.072-.126.109l-.066.061H17.873A9.115,9.115,0,0,0,9.1,57.4c-.1,0-.208,0-.311.006l-.084,0q-.131.006-.262.015l-.053,0q-.153.012-.3.029l-.077.009q-.123.015-.244.033l-.074.011q-.15.023-.3.052l-.06.012q-.124.025-.246.052L7,57.64c-.1.023-.2.048-.3.075l-.022.006q-.137.038-.274.081l-.039.012v-5.62h5.362v-1.45H6.371V36.727H24.7l3.554,14.052H13.7v1.45H45.025a3.031,3.031,0,0,1,3.027,3.027Z" transform="translate(0)"/>
      <path id="Trazado_893971" data-name="Trazado 893971" d="M101.8,91.952H88.261v11.227h16.471ZM89.712,93.4h10.966l2.176,8.325H89.712Z" transform="translate(-79.727 -53.844)"/>
      <rect id="Rectángulo_402155" data-name="Rectángulo 402155" width="8.957" height="1.45" transform="translate(31.169 54.288)"/>
      <rect id="Rectángulo_402156" data-name="Rectángulo 402156" width="8.957" height="1.45" transform="translate(31.169 56.257)"/>
      <rect id="Rectángulo_402157" data-name="Rectángulo 402157" width="8.957" height="1.45" transform="translate(31.169 58.225)"/>
      <path id="Trazado_893972" data-name="Trazado 893972" d="M399.025,387.767a2.245,2.245,0,1,0,2.17,1.669A2.247,2.247,0,0,0,399.025,387.767Zm0,3.04a.8.8,0,1,1,.795-.795A.8.8,0,0,1,399.025,390.807Z" transform="translate(-358.417 -321.058)"/>
    </g>
  </g>
</svg>
